<svg xmlns="http://www.w3.org/2000/svg" xmlns:xlink="http://www.w3.org/1999/xlink" width="500" zoomAndPan="magnify" viewBox="0 0 375 374.999991" height="500" preserveAspectRatio="xMidYMid meet" version="1.0"><defs><clipPath id="f9ea332e5e"><path d="M 0 72.273438 L 375 72.273438 L 375 337.773438 L 0 337.773438 Z M 0 72.273438 " clip-rule="nonzero"/></clipPath></defs><path fill="#d0c3f1" d="M 203.261719 91.550781 L 62.140625 91.550781 L 62.140625 73.394531 L 203.261719 73.394531 Z M 165.429688 218.8125 L 190.511719 218.570312 L 190.53125 218.332031 L 203.253906 218.332031 L 203.253906 183.308594 C 207.171875 182.222656 211.308594 181.023438 213.925781 180.113281 C 220.144531 177.964844 220.855469 173.1875 219.902344 168.414062 C 218.945312 163.636719 207.480469 161.007812 207.480469 161.007812 C 207.480469 161.007812 217.035156 156.230469 216.085938 153.839844 C 215.125 151.453125 209.398438 152.882812 205.09375 154.800781 C 204.503906 155.066406 203.886719 155.347656 203.261719 155.648438 L 203.261719 92.828125 L 61.507812 92.828125 L 61.507812 218.332031 L 165.566406 218.332031 C 165.480469 218.648438 165.429688 218.8125 165.429688 218.8125 Z M 280.660156 102.527344 L 280.660156 102.167969 C 280.660156 93.804688 273.878906 87.023438 265.515625 87.023438 L 231.375 87.023438 C 223.011719 87.023438 216.230469 93.804688 216.230469 102.167969 L 216.230469 102.527344 C 216.230469 109.839844 221.410156 115.933594 228.292969 117.355469 L 223.019531 126.59375 L 240.328125 117.671875 L 265.523438 117.671875 C 273.878906 117.671875 280.660156 110.890625 280.660156 102.527344 Z M 12.769531 281.886719 C 12.769531 281.886719 14.84375 272.015625 23.601562 271.691406 C 32.359375 271.375 78.707031 272.171875 78.707031 272.171875 L 81.574219 276.316406 L 66.507812 276.425781 C 73.304688 276.65625 78.707031 276.949219 78.707031 276.949219 C 78.707031 276.949219 76.636719 283.960938 79.339844 287.460938 L 61.542969 287.957031 C 71.722656 287.90625 82.046875 287.777344 82.046875 287.777344 C 82.046875 287.777344 84.433594 290.960938 79.339844 291.921875 C 74.246094 292.878906 22.640625 293.351562 22.640625 293.351562 C 22.640625 293.351562 13.402344 292.71875 12.769531 281.886719 Z M 36.691406 286.683594 C 35.910156 285.886719 35.234375 284.789062 35.003906 283.316406 C 35.175781 284.925781 35.542969 285.980469 36.691406 286.683594 Z M 40.003906 276.632812 C 40.003906 276.632812 38.179688 276.957031 36.707031 278.136719 C 37.65625 277.511719 39.0625 276.964844 41.117188 276.632812 C 41.132812 276.632812 41.160156 276.621094 41.183594 276.621094 Z M 66.601562 309.601562 C 66.601562 309.601562 72.972656 307.375 71.695312 302.589844 C 70.421875 297.8125 65.480469 297.8125 65.480469 297.8125 L 27.410156 298.128906 C 27.410156 298.128906 29.164062 304.34375 27.574219 309.273438 Z M 83.800781 326.164062 C 83.800781 332.699219 77.433594 335.882812 77.433594 335.882812 L 17.703125 336.199219 L 14.515625 331.257812 L 22.109375 331.257812 L 18.496094 330.300781 C 21.519531 326.800781 18.660156 319.625 18.660156 319.625 L 56.730469 319.789062 L 15.320312 319.308594 C 15.320312 319.308594 16.433594 314.847656 22.007812 314.367188 C 27.582031 313.890625 76.960938 315.328125 76.960938 315.328125 C 76.960938 315.328125 83.800781 319.632812 83.800781 326.164062 Z M 61.714844 322.277344 C 62.054688 322.886719 62.320312 323.632812 62.457031 324.574219 C 62.398438 323.632812 62.117188 322.886719 61.714844 322.277344 Z M 207.953125 263.25 L 189.074219 281.648438 L 198.433594 304.589844 C 193.972656 294.113281 186.6875 277.273438 186.6875 277.273438 C 186.6875 277.273438 186.371094 275.679688 178.410156 275.679688 C 170.445312 275.679688 107.050781 276.316406 107.050781 276.316406 C 107.050781 276.316406 101.632812 276.632812 102.910156 282.683594 L 120.109375 326.328125 L 123.933594 327.605469 C 123.933594 327.605469 124.25 334.933594 126.484375 335.882812 C 128.710938 336.839844 225.554688 336.199219 225.554688 336.199219 C 225.554688 336.199219 228.421875 333.332031 228.738281 329.1875 C 229.054688 325.042969 227.144531 323.769531 227.144531 323.769531 L 204.84375 324.085938 C 204.84375 324.085938 203.253906 316.441406 201.660156 312.296875 C 201.582031 312.082031 201.464844 311.792969 201.316406 311.449219 L 229.6875 284.988281 C 227.308594 272.804688 207.953125 263.25 207.953125 263.25 Z M 339.832031 279.738281 C 339.832031 279.738281 330.28125 277.589844 321.914062 279.019531 C 313.550781 280.449219 306.867188 289.773438 306.867188 289.773438 L 314.511719 309.839844 C 314.511719 309.839844 289.425781 310.320312 283.210938 308.410156 C 276.996094 306.5 273.65625 295.988281 269.589844 291.691406 C 265.523438 287.394531 260.035156 290.972656 254.539062 294.078125 C 249.042969 297.1875 249.285156 305.550781 249.285156 305.550781 L 254.300781 302.441406 C 258.128906 296.46875 262.425781 298.617188 262.425781 298.617188 C 257.648438 300.523438 257.410156 306.742188 257.410156 306.742188 C 257.410156 306.742188 258.605469 315.582031 263.144531 316.773438 C 267.683594 317.972656 269.832031 321.550781 269.832031 321.550781 C 271.03125 327.285156 280.824219 328.476562 280.824219 328.476562 C 280.824219 328.476562 314.269531 334.453125 329.800781 334.210938 C 345.328125 333.972656 348.917969 325.136719 348.917969 317.492188 C 348.917969 309.839844 339.832031 279.738281 339.832031 279.738281 Z M 265.054688 215.230469 C 265.054688 215.230469 267.921875 224.074219 267.203125 228.613281 C 266.484375 233.152344 263.144531 233.628906 263.144531 233.628906 L 255.019531 233.871094 C 255.019531 233.871094 255.5 241.515625 268.160156 242.234375 C 280.824219 242.953125 287.988281 237.695312 293.722656 233.871094 C 293.722656 233.871094 285.601562 233.871094 284.171875 229.332031 C 282.742188 224.792969 279.632812 216.429688 281.78125 212.371094 C 281.78125 212.371094 282.261719 211.175781 285.367188 210.703125 C 288.476562 210.222656 291.816406 208.792969 291.816406 204.257812 C 291.816406 199.71875 288.707031 196.851562 280.582031 204.015625 L 285.601562 181.800781 C 285.601562 181.800781 283.929688 174.636719 256.929688 175.585938 C 256.929688 175.585938 248.324219 191.355469 248.804688 199 C 249.285156 206.628906 251.671875 214.273438 265.054688 215.230469 Z M 265.054688 215.230469 " fill-opacity="1" fill-rule="evenodd"/><path fill="#4e2780" d="M 103.953125 82.957031 C 103.953125 84.933594 102.351562 86.542969 100.367188 86.542969 C 98.390625 86.542969 96.78125 84.941406 96.78125 82.957031 C 96.78125 80.96875 98.378906 79.371094 100.367188 79.371094 C 102.34375 79.371094 103.953125 80.96875 103.953125 82.957031 Z M 88.742188 79.292969 C 86.761719 79.292969 85.152344 80.894531 85.152344 82.878906 C 85.152344 84.867188 86.753906 86.46875 88.742188 86.46875 C 90.71875 86.46875 92.328125 84.867188 92.328125 82.878906 C 92.328125 80.894531 90.71875 79.292969 88.742188 79.292969 Z M 77.507812 79.292969 C 75.53125 79.292969 73.921875 80.894531 73.921875 82.878906 C 73.921875 84.867188 75.523438 86.46875 77.507812 86.46875 C 79.484375 86.46875 81.097656 84.867188 81.097656 82.878906 C 81.097656 80.894531 79.484375 79.292969 77.507812 79.292969 Z M 87.226562 168.402344 C 81.804688 176.289062 71.617188 217.699219 71.617188 217.699219 L 85.480469 217.535156 C 85.480469 217.535156 114.074219 189.824219 117.8125 187.828125 C 121.554688 185.832031 130.160156 187.347656 132.066406 187.75 C 133.976562 188.152344 140.824219 185.601562 140.824219 185.601562 C 140.824219 185.601562 142.496094 186.5625 142.101562 189.265625 C 141.699219 191.972656 134.378906 193.726562 134.378906 193.726562 L 147.761719 200.738281 C 147.761719 200.738281 151.347656 205.59375 150.070312 207.269531 C 148.796875 208.941406 144.421875 207.109375 144.421875 207.109375 C 144.421875 207.109375 141.554688 210.457031 135.578125 213.082031 C 129.601562 215.710938 121.007812 214.28125 121.007812 214.28125 L 117.417969 217.867188 L 165.4375 218.828125 L 178.820312 173.675781 L 169.746094 164.363281 L 167.835938 182.519531 L 154.214844 182.761719 L 150.15625 167.710938 L 140.363281 166.992188 L 142.273438 176.546875 C 135.347656 177.976562 125.074219 174.875 125.074219 174.875 L 122.683594 163.644531 C 113.132812 162.683594 103.335938 153.371094 103.335938 153.371094 C 98.371094 155.1875 87.226562 168.402344 87.226562 168.402344 Z M 41.5625 246.050781 C 34.242188 246.050781 28.300781 251.71875 28.300781 258.714844 C 28.300781 265.707031 34.234375 271.375 41.5625 271.375 C 48.890625 271.375 54.820312 265.707031 54.820312 258.714844 C 54.8125 251.71875 48.878906 246.050781 41.5625 246.050781 Z M 32.835938 244.375 C 26.152344 236.488281 15.160156 241.746094 15.160156 241.746094 C 23.042969 251.070312 32.835938 244.375 32.835938 244.375 Z M 26.9375 292.71875 C 26.9375 292.71875 25.347656 296.066406 25.183594 297.496094 L 67.390625 298.289062 C 67.390625 298.289062 72.011719 301.476562 71.53125 305.140625 C 71.054688 308.804688 68.1875 310.078125 63.410156 309.917969 C 58.632812 309.753906 24.386719 309.4375 24.386719 309.4375 C 24.386719 309.4375 25.5 314.53125 29.328125 314.695312 C 33.15625 314.855469 82.363281 314.375 82.363281 314.375 C 82.363281 314.375 94.46875 312.785156 93.191406 303.382812 C 91.917969 293.984375 81.882812 293.1875 81.882812 293.1875 Z M 207.953125 263.25 C 207.953125 263.25 226.109375 270.417969 229.695312 284.996094 L 236.863281 280.21875 L 241.160156 313.425781 L 249.285156 305.542969 C 249.285156 305.542969 248.085938 298.375 253.109375 295.269531 C 258.128906 292.160156 264.34375 290.492188 264.34375 290.492188 L 271.507812 283.085938 L 275.804688 285.714844 L 269.589844 291.691406 C 269.589844 291.691406 276.039062 306.019531 283.210938 308.410156 C 290.378906 310.796875 314.511719 309.839844 314.511719 309.839844 L 306.867188 289.773438 C 306.867188 289.773438 318.335938 274.003906 339.832031 279.738281 C 339.832031 279.738281 330.28125 250.589844 324.066406 244.863281 C 317.847656 239.132812 307.574219 235.066406 302.089844 234.347656 C 296.601562 233.628906 293.722656 233.871094 293.722656 233.871094 C 293.722656 233.871094 283.453125 244.863281 268.160156 242.234375 C 252.871094 239.605469 255.019531 233.871094 255.019531 233.871094 C 255.019531 233.871094 232.804688 226.703125 206.28125 264.210938 M 241.398438 321.070312 L 243.308594 336.363281 L 317.847656 335.882812 L 314.503906 333.253906 L 283.441406 329.425781 C 283.441406 329.425781 271.5 328.226562 269.820312 321.542969 L 263.136719 316.765625 L 258.597656 311.988281 L 257.398438 306.730469 Z M 241.398438 321.070312 " fill-opacity="1" fill-rule="evenodd"/><path fill="#011e31" d="M 172.835938 110.824219 C 176.421875 124.203125 167.816406 182.496094 167.816406 182.496094 L 154.199219 182.734375 L 147.984375 157.652344 L 140.816406 153.59375 L 143.925781 143.320312 C 143.925781 143.320312 152.769531 145.46875 157.785156 141.410156 C 162.800781 137.351562 165.429688 132.097656 166.386719 126.601562 C 167.347656 121.105469 165.191406 116.566406 165.191406 116.566406 L 137.238281 121.824219 C 137.238281 121.824219 130.074219 115.136719 128.164062 120.152344 C 126.253906 125.171875 134.140625 130.1875 134.140625 130.1875 L 142.265625 176.535156 C 142.265625 176.535156 131.75 180.125 125.066406 174.867188 L 120.863281 152.464844 C 120.425781 150.117188 118.070312 148.652344 115.777344 149.296875 L 105.46875 152.164062 C 105.46875 152.164062 123.386719 103.1875 128.402344 97.691406 C 133.421875 92.195312 135.808594 87.898438 142.503906 88.617188 C 149.179688 89.328125 169.257812 97.449219 172.835938 110.824219 Z M 256.691406 299.804688 C 253.582031 302.914062 249.285156 305.542969 249.285156 305.542969 L 237.582031 318.683594 L 235.914062 323.21875 L 239.738281 323.21875 L 257.417969 306.730469 L 262.433594 298.609375 C 262.425781 298.609375 259.796875 296.699219 256.691406 299.804688 Z M 264.335938 290.484375 L 269.589844 291.683594 L 275.804688 285.707031 L 271.507812 283.078125 Z M 288.46875 166.015625 C 277.234375 158.128906 265.054688 157.652344 261.234375 159.328125 C 257.410156 161 258.367188 163.625 257.175781 166.015625 C 255.980469 168.402344 254.789062 166.015625 251.921875 169.84375 C 249.054688 173.667969 253.351562 179.15625 253.351562 179.15625 L 256.9375 175.570312 C 256.9375 175.570312 278.203125 176.046875 282.742188 177.957031 C 287.277344 179.867188 284.890625 184.171875 284.890625 184.171875 L 280.59375 204 C 286.808594 198.503906 291.105469 200.414062 291.105469 200.414062 C 291.105469 200.414062 293.253906 198.023438 297.320312 191.808594 C 301.386719 185.59375 299.699219 173.898438 288.46875 166.015625 Z M 288.46875 166.015625 " fill-opacity="1" fill-rule="evenodd"/><g clip-path="url(#f9ea332e5e)"><path fill="#011e31" d="M 373.683594 334.914062 L 335.152344 334.914062 C 340.570312 333.964844 344.542969 331.765625 346.992188 328.347656 C 350.210938 323.863281 350.800781 317.476562 348.804688 308.828125 C 345.605469 294.960938 333.925781 252.902344 322.644531 241.941406 C 315.109375 234.621094 302.996094 233.433594 294.984375 232.644531 C 291.574219 232.3125 287.707031 231.933594 287.03125 231.171875 C 284.949219 228.863281 281.132812 215.890625 283.082031 212.425781 C 283.304688 212.023438 283.570312 211.816406 284.246094 211.945312 C 287.664062 212.585938 290.632812 210.984375 292.003906 207.742188 C 292.988281 205.414062 292.894531 202.886719 291.902344 201.15625 C 294.519531 199.421875 299.546875 194.632812 299.546875 183.4375 C 299.546875 178.121094 296.832031 172.761719 291.703125 167.941406 C 284.488281 161.160156 273.640625 156.589844 265.925781 157.078125 C 263.382812 157.242188 258.09375 157.566406 256.707031 162.015625 C 256.414062 162.949219 256.371094 163.804688 256.332031 164.558594 C 256.253906 166.109375 256.234375 166.476562 254.601562 166.835938 C 251.902344 167.4375 250.757812 168.953125 250.269531 170.125 C 248.804688 173.609375 251.117188 178.300781 252.460938 180.570312 C 250.449219 184.679688 248.214844 190.398438 247.53125 196.527344 C 246.886719 202.332031 248.007812 207.039062 250.867188 210.523438 C 253.683594 213.949219 258.015625 216.011719 263.761719 216.660156 C 265.644531 222.878906 266.792969 230.078125 265.421875 231.445312 C 264.285156 232.585938 262.777344 232.492188 259.496094 232.164062 C 256.945312 231.910156 253.777344 231.601562 249.636719 232.027344 C 240.449219 232.980469 230.203125 235.367188 215.03125 252.847656 C 202.40625 267.394531 192.046875 277.777344 189.554688 280.246094 L 188.714844 278.179688 C 187.730469 275.742188 185.394531 274.175781 182.765625 274.175781 C 182.757812 274.175781 182.738281 274.175781 182.730469 274.175781 L 107.6875 274.59375 C 105.570312 274.601562 103.59375 275.65625 102.402344 277.410156 C 101.214844 279.164062 100.964844 281.382812 101.734375 283.351562 L 117.804688 324.480469 C 118.617188 326.550781 120.390625 327.996094 122.503906 328.425781 L 122.503906 329.914062 C 122.503906 331.859375 123.277344 333.621094 124.527344 334.921875 L 80.265625 334.921875 C 83.183594 332.765625 85.09375 329.316406 85.09375 325.410156 C 85.09375 321.320312 83.003906 317.707031 79.835938 315.582031 L 82.5 315.582031 C 89.023438 315.582031 94.332031 310.277344 94.332031 303.753906 C 94.332031 297.230469 89.023438 291.921875 82.5 291.921875 L 81.753906 291.921875 C 82.644531 290.835938 83.183594 289.4375 83.183594 287.921875 C 83.183594 287.214844 82.609375 286.640625 81.902344 286.640625 L 79.878906 286.640625 C 79.445312 285.65625 78.878906 284.199219 78.613281 282.820312 C 78.339844 281.367188 79.179688 279.140625 79.769531 277.855469 L 81.566406 277.855469 C 82.277344 277.855469 82.851562 277.28125 82.851562 276.570312 C 82.851562 273.265625 80.164062 270.578125 76.859375 270.578125 L 49.257812 270.578125 C 53.582031 268.242188 56.5 263.910156 56.5 258.960938 C 56.5 251.539062 49.960938 245.496094 41.914062 245.496094 C 41.5 245.496094 41.097656 245.519531 40.695312 245.554688 C 39.746094 243.722656 37.222656 241.027344 36.390625 240.160156 C 35.894531 239.648438 35.089844 239.632812 34.574219 240.128906 C 34.0625 240.617188 34.042969 241.429688 34.542969 241.941406 C 35.808594 243.261719 37.210938 244.90625 37.984375 246.015625 C 31.851562 247.609375 27.339844 252.804688 27.339844 258.96875 C 27.339844 263.925781 30.261719 268.25 34.585938 270.585938 L 23.632812 270.585938 C 17.109375 270.585938 11.804688 275.894531 11.804688 282.417969 C 11.804688 288.941406 17.109375 294.25 23.632812 294.25 L 24.542969 294.25 C 23.753906 295.269531 23.273438 296.535156 23.273438 297.921875 C 23.273438 298.632812 23.847656 299.207031 24.558594 299.207031 L 26.355469 299.207031 C 26.957031 300.492188 27.785156 302.726562 27.511719 304.171875 C 27.253906 305.550781 26.683594 307.015625 26.246094 307.992188 L 24.242188 307.992188 C 23.53125 307.992188 22.957031 308.5625 22.957031 309.273438 C 22.957031 310.945312 23.617188 312.460938 24.671875 313.589844 L 20.03125 313.589844 C 16.726562 313.589844 14.039062 316.277344 14.039062 319.582031 C 14.039062 320.292969 14.609375 320.867188 15.320312 320.867188 L 17.121094 320.867188 C 17.71875 322.148438 18.550781 324.382812 18.273438 325.832031 C 18.019531 327.210938 17.445312 328.671875 17.007812 329.648438 L 14.988281 329.648438 C 14.277344 329.648438 13.703125 330.222656 13.703125 330.933594 C 13.703125 332.449219 14.242188 333.835938 15.132812 334.933594 L 1.300781 334.933594 C 0.589844 334.933594 0.015625 335.503906 0.015625 336.214844 C 0.015625 336.925781 0.589844 337.5 1.300781 337.5 L 373.683594 337.5 C 374.394531 337.5 374.96875 336.925781 374.96875 336.214844 C 374.96875 335.503906 374.386719 334.914062 373.683594 334.914062 Z M 29.902344 258.953125 C 29.902344 252.945312 35.292969 248.054688 41.914062 248.054688 C 48.539062 248.054688 53.933594 252.945312 53.933594 258.953125 C 53.933594 264.964844 48.539062 269.851562 41.914062 269.851562 C 35.285156 269.851562 29.902344 264.964844 29.902344 258.953125 Z M 91.753906 303.746094 C 91.753906 308.855469 87.601562 313.007812 82.492188 313.007812 L 29.269531 313.007812 C 27.648438 313.007812 26.269531 311.980469 25.75 310.542969 L 25.84375 310.542969 C 26.082031 310.839844 26.441406 311.03125 26.835938 311.03125 L 66.019531 311.03125 C 69.992188 311.03125 73.226562 307.792969 73.226562 303.820312 C 73.226562 299.847656 69.992188 296.613281 66.019531 296.613281 L 26.101562 296.613281 C 26.605469 295.363281 27.839844 294.472656 29.269531 294.472656 L 71.011719 294.472656 C 71.054688 294.5 71.089844 294.523438 71.128906 294.542969 C 71.386719 294.644531 77.347656 297.28125 74.753906 307.648438 C 74.582031 308.332031 75 309.035156 75.683594 309.207031 C 75.789062 309.230469 75.898438 309.242188 76.003906 309.242188 C 76.574219 309.242188 77.097656 308.847656 77.242188 308.265625 C 79.066406 300.980469 77.097656 296.75 75.085938 294.472656 L 82.484375 294.472656 C 87.59375 294.480469 91.753906 298.632812 91.753906 303.746094 Z M 29.15625 299.191406 L 66.019531 299.191406 C 68.578125 299.191406 70.660156 301.269531 70.660156 303.828125 C 70.660156 306.390625 68.578125 308.46875 66.019531 308.46875 L 28.847656 308.46875 C 29.292969 307.398438 29.789062 306.003906 30.046875 304.632812 C 30.378906 302.84375 29.753906 300.703125 29.15625 299.191406 Z M 14.371094 282.402344 C 14.371094 277.289062 18.523438 273.140625 23.632812 273.140625 L 30.996094 273.140625 C 30.707031 273.464844 30.421875 273.816406 30.148438 274.226562 C 28.675781 276.441406 27.253906 280.441406 28.875 286.929688 C 29.019531 287.511719 29.542969 287.90625 30.113281 287.90625 C 30.21875 287.90625 30.320312 287.898438 30.433594 287.871094 C 31.117188 287.699219 31.535156 287 31.363281 286.3125 C 28.78125 275.972656 34.710938 273.328125 34.988281 273.214844 C 35.027344 273.199219 35.070312 273.171875 35.113281 273.148438 L 76.847656 273.148438 C 78.277344 273.148438 79.511719 274.027344 80.015625 275.289062 L 40.105469 275.289062 C 36.132812 275.289062 32.898438 278.523438 32.898438 282.496094 C 32.898438 286.46875 36.132812 289.703125 40.105469 289.703125 L 79.289062 289.703125 C 79.683594 289.703125 80.042969 289.515625 80.28125 289.214844 L 80.375 289.214844 C 79.855469 290.65625 78.476562 291.683594 76.859375 291.683594 L 23.632812 291.683594 C 18.53125 291.664062 14.371094 287.503906 14.371094 282.402344 Z M 76.078125 283.285156 C 76.335938 284.652344 76.832031 286.046875 77.277344 287.117188 L 40.105469 287.117188 C 37.546875 287.117188 35.464844 285.039062 35.464844 282.480469 C 35.464844 279.917969 37.546875 277.839844 40.105469 277.839844 L 76.960938 277.839844 C 76.371094 279.363281 75.746094 281.503906 76.078125 283.285156 Z M 20.03125 316.140625 L 61.773438 316.140625 C 61.816406 316.167969 61.851562 316.191406 61.894531 316.207031 C 62.148438 316.3125 68.109375 318.949219 65.515625 329.308594 C 65.34375 329.992188 65.761719 330.695312 66.449219 330.867188 C 66.550781 330.890625 66.660156 330.898438 66.765625 330.898438 C 67.339844 330.898438 67.859375 330.503906 68.007812 329.921875 C 69.828125 322.636719 67.859375 318.410156 65.847656 316.132812 L 73.246094 316.132812 C 78.347656 316.132812 82.507812 320.285156 82.507812 325.394531 C 82.507812 330.496094 78.355469 334.65625 73.246094 334.65625 L 20.03125 334.65625 C 18.414062 334.65625 17.035156 333.628906 16.511719 332.191406 L 16.605469 332.191406 C 16.84375 332.492188 17.207031 332.679688 17.597656 332.679688 L 56.78125 332.679688 C 60.753906 332.679688 63.992188 329.445312 63.992188 325.472656 C 63.992188 321.5 60.753906 318.261719 56.78125 318.261719 L 16.863281 318.261719 C 17.367188 317.023438 18.601562 316.140625 20.03125 316.140625 Z M 19.917969 320.847656 L 56.773438 320.847656 C 59.332031 320.847656 61.414062 322.929688 61.414062 325.488281 C 61.414062 328.046875 59.332031 330.128906 56.773438 330.128906 L 19.601562 330.128906 C 20.046875 329.058594 20.542969 327.664062 20.800781 326.292969 C 21.144531 324.503906 20.519531 322.363281 19.917969 320.847656 Z M 244.617188 334.914062 L 243.171875 321.269531 L 256.722656 308.074219 C 256.707031 308.804688 256.722656 309.546875 256.765625 310.320312 C 257.082031 315.816406 263.675781 319.316406 267.578125 320.917969 C 268.09375 321.132812 268.496094 321.578125 268.699219 322.183594 C 271.167969 329.503906 278.941406 330.164062 281.257812 330.1875 C 281.980469 330.199219 282.628906 330.257812 283.261719 330.378906 C 287.148438 331.097656 301.882812 333.742188 315.445312 334.921875 L 244.617188 334.921875 Z M 249.6875 307.246094 C 251.835938 307.527344 254.292969 304.453125 255.601562 302.519531 C 257.066406 300.363281 258.847656 299.558594 260.25 299.285156 C 258.753906 300.730469 257.835938 302.339844 257.304688 304.105469 C 257.136719 304.164062 256.972656 304.25 256.828125 304.386719 L 239.046875 321.703125 L 237.847656 321.703125 L 238.632812 319.351562 Z M 344.902344 326.859375 C 342.546875 330.136719 338.363281 332.105469 332.453125 332.699219 C 318.429688 334.09375 289.402344 328.90625 283.726562 327.851562 C 282.945312 327.707031 282.148438 327.628906 281.285156 327.621094 C 278.855469 327.59375 273.007812 326.925781 271.132812 321.363281 C 271.046875 321.105469 270.933594 320.867188 270.808594 320.625 C 272.578125 320.085938 275.214844 319 276.34375 317.109375 C 276.714844 316.5 276.515625 315.710938 275.910156 315.34375 C 275.300781 314.976562 274.511719 315.171875 274.144531 315.78125 C 273.324219 317.160156 270.328125 318.195312 268.632812 318.527344 C 268.613281 318.527344 268.597656 318.539062 268.582031 318.546875 C 268.574219 318.546875 268.5625 318.539062 268.554688 318.527344 C 267.714844 318.1875 266.125 317.476562 264.496094 316.472656 C 264.976562 315.207031 266.972656 310.679688 271.707031 308.179688 C 272.332031 307.84375 272.570312 307.074219 272.246094 306.441406 C 271.910156 305.816406 271.140625 305.566406 270.507812 305.902344 C 265.574219 308.496094 263.214844 312.894531 262.339844 314.941406 C 261.464844 314.222656 260.695312 313.417969 260.148438 312.542969 C 260.492188 311.328125 262.699219 304.394531 269.199219 302.699219 C 269.882812 302.519531 270.292969 301.816406 270.113281 301.132812 C 269.933594 300.449219 269.230469 300.039062 268.546875 300.21875 C 263.691406 301.484375 260.859375 304.984375 259.292969 307.878906 C 259.445312 303.546875 261.105469 300.542969 266.988281 298.027344 C 267.640625 297.742188 267.9375 296.988281 267.664062 296.339844 C 267.382812 295.6875 266.628906 295.390625 265.976562 295.664062 C 265.070312 296.046875 264.257812 296.457031 263.511719 296.878906 C 263.394531 296.800781 263.257812 296.734375 263.101562 296.699219 C 262.863281 296.648438 257.261719 295.457031 253.472656 301.054688 C 252.117188 303.058594 250.894531 304.171875 250.269531 304.539062 C 250.242188 304.359375 250.226562 304.105469 250.242188 303.734375 C 250.390625 299.773438 254.695312 293.503906 262.417969 292.050781 C 265.679688 291.433594 267.417969 291.726562 268.675781 292.847656 C 268.71875 292.898438 268.734375 292.957031 268.785156 293 C 268.828125 293.035156 268.871094 293.050781 268.921875 293.085938 C 269.820312 294.011719 270.5 295.378906 271.390625 297.210938 C 271.894531 298.25 272.460938 299.414062 273.160156 300.652344 C 276.929688 307.367188 287.132812 314.480469 287.570312 314.78125 C 287.792969 314.933594 288.046875 315.011719 288.296875 315.011719 C 288.699219 315.011719 289.101562 314.8125 289.351562 314.453125 C 289.753906 313.871094 289.605469 313.066406 289.023438 312.664062 C 288.992188 312.640625 287.792969 311.808594 286.097656 310.472656 L 319.636719 311.335938 C 319.648438 311.335938 319.664062 311.335938 319.671875 311.335938 C 320.367188 311.335938 320.941406 310.78125 320.957031 310.089844 C 320.972656 309.378906 320.417969 308.785156 319.707031 308.769531 L 315.296875 308.660156 C 315.296875 308.648438 315.296875 308.640625 315.289062 308.632812 L 308.285156 290.75 C 308.339844 290.699219 308.390625 290.65625 308.433594 290.59375 C 308.902344 289.96875 320.210938 275.355469 338.15625 280.671875 C 342.121094 292.855469 345.140625 304.394531 346.289062 309.386719 C 348.128906 317.296875 347.667969 323.007812 344.902344 326.859375 Z M 269.574219 290.292969 C 269.007812 289.925781 268.367188 289.644531 267.621094 289.457031 L 272.175781 284.472656 L 273.726562 285.816406 Z M 252.640625 171.125 C 253.015625 170.226562 253.847656 169.644531 255.164062 169.355469 C 258.703125 168.566406 258.820312 166.332031 258.898438 164.695312 C 258.933594 164.0625 258.96875 163.414062 259.15625 162.796875 C 259.875 160.503906 262.441406 159.886719 266.089844 159.65625 C 273.042969 159.21875 283.304688 163.59375 289.949219 169.832031 C 293.160156 172.847656 296.976562 177.660156 296.976562 183.460938 C 296.976562 194.625 291.601562 198.460938 289.921875 199.386719 C 287.570312 198.394531 284.460938 199.789062 282.097656 201.285156 C 284.648438 192.820312 287.492188 181.605469 285.453125 179.277344 C 285.410156 179.226562 285.359375 179.171875 285.300781 179.128906 C 279.710938 174.523438 259.421875 173.804688 257.125 173.738281 C 256.679688 173.710938 256.277344 173.933594 256.03125 174.292969 C 255.929688 174.4375 255.054688 175.730469 253.890625 177.828125 C 252.734375 175.492188 251.929688 172.8125 252.640625 171.125 Z M 267.238281 233.261719 C 270.414062 230.085938 267.058594 218.546875 265.960938 215.078125 C 265.808594 214.582031 265.363281 214.230469 264.847656 214.1875 C 259.386719 213.71875 255.355469 211.9375 252.855469 208.898438 C 250.449219 205.96875 249.523438 201.902344 250.089844 196.816406 C 251.140625 187.332031 256.320312 178.609375 257.777344 176.324219 C 264.199219 176.5625 279.316406 177.777344 283.527344 180.988281 C 284.382812 182.921875 281.601562 194.480469 278.484375 204.25 C 278.316406 204.796875 278.519531 205.394531 279 205.710938 C 279.480469 206.027344 280.113281 205.988281 280.550781 205.609375 C 283.074219 203.433594 287.5625 200.738281 289.171875 201.867188 C 290.230469 202.613281 290.445312 204.847656 289.640625 206.757812 C 289.222656 207.757812 287.886719 210.035156 284.726562 209.429688 C 283.039062 209.109375 281.660156 209.726562 280.847656 211.164062 C 278.09375 216.054688 282.65625 230.144531 285.128906 232.894531 C 286.089844 233.957031 288.046875 234.425781 290.890625 234.785156 C 288.382812 236.953125 282.261719 241.078125 271.507812 241.746094 C 260.21875 242.429688 257.167969 236.847656 256.390625 234.476562 C 257.425781 234.546875 258.375 234.640625 259.25 234.726562 C 262.5625 235.050781 265.191406 235.308594 267.238281 233.261719 Z M 249.902344 234.589844 C 251.277344 234.441406 252.539062 234.390625 253.710938 234.390625 C 253.949219 235.402344 254.636719 237.515625 256.484375 239.546875 C 258.539062 241.804688 262.460938 244.367188 269.660156 244.367188 C 270.300781 244.367188 270.976562 244.347656 271.671875 244.304688 C 286.867188 243.363281 293.441406 236.035156 294.1875 235.144531 C 294.375 235.164062 294.546875 235.179688 294.734375 235.195312 C 296.320312 235.351562 298.011719 235.523438 299.769531 235.734375 C 298.765625 236.96875 296.679688 239.28125 293.425781 241.582031 C 289.066406 244.65625 281.652344 248.347656 271.097656 248.421875 C 270.996094 248.421875 270.890625 248.421875 270.789062 248.421875 C 254.199219 248.421875 249.328125 238.226562 248.15625 234.777344 C 248.746094 234.707031 249.320312 234.648438 249.902344 234.589844 Z M 216.96875 254.535156 C 229.175781 240.46875 237.957031 236.601562 245.59375 235.1875 C 246.074219 236.695312 247.28125 239.714844 249.933594 242.738281 C 253.257812 246.523438 259.566406 251 270.796875 251 C 270.902344 251 271.011719 251 271.125 251 C 292.738281 250.835938 302.21875 236.839844 302.609375 236.25 C 302.628906 236.214844 302.644531 236.179688 302.664062 236.148438 C 309.152344 237.164062 316.050781 239.101562 320.871094 243.78125 C 326.5625 249.3125 332.472656 263.660156 337.214844 277.777344 C 321.316406 274.003906 310.28125 284.679688 307.25 288.070312 L 304.640625 281.417969 C 304.382812 280.757812 303.636719 280.433594 302.980469 280.6875 C 302.320312 280.945312 301.996094 281.691406 302.25 282.351562 L 312.542969 308.605469 L 282.921875 307.84375 C 280.113281 305.386719 277.046875 302.316406 275.421875 299.421875 C 274.761719 298.238281 274.207031 297.109375 273.71875 296.109375 C 272.972656 294.582031 272.289062 293.195312 271.441406 292.074219 L 276.515625 286.589844 C 276.757812 286.332031 276.875 285.988281 276.859375 285.644531 C 276.84375 285.296875 276.679688 284.96875 276.414062 284.746094 L 272.914062 281.714844 C 272.382812 281.261719 271.59375 281.304688 271.125 281.820312 L 264.4375 289.148438 C 264.410156 289.171875 264.402344 289.207031 264.386719 289.234375 C 263.648438 289.285156 262.855469 289.378906 261.964844 289.550781 C 252.511719 291.332031 247.863281 299.027344 247.699219 303.667969 C 247.675781 304.359375 247.734375 304.953125 247.863281 305.449219 L 242.203125 311.636719 L 237.992188 270.125 C 237.976562 269.960938 237.933594 269.800781 237.855469 269.664062 L 234.355469 262.976562 C 234.027344 262.351562 233.25 262.105469 232.617188 262.4375 C 231.992188 262.761719 231.742188 263.542969 232.078125 264.175781 L 235.46875 270.648438 L 236.316406 279.027344 L 231 283.632812 C 225.289062 269.003906 214.011719 264.519531 209.269531 263.25 C 211.683594 260.546875 214.277344 257.636719 216.96875 254.535156 Z M 190.769531 282.648438 C 190.855469 282.5625 197.617188 275.972656 207.277344 265.417969 C 210.09375 265.964844 223.054688 269.320312 228.910156 285.421875 L 201.335938 309.316406 L 190.574219 282.785156 C 190.640625 282.726562 190.71875 282.703125 190.769531 282.648438 Z M 120.195312 323.546875 L 104.125 282.417969 C 103.652344 281.21875 103.800781 279.917969 104.527344 278.847656 C 105.253906 277.777344 106.410156 277.164062 107.695312 277.164062 L 182.738281 276.742188 C 182.75 276.742188 182.757812 276.742188 182.765625 276.742188 C 184.339844 276.742188 185.746094 277.683594 186.335938 279.148438 L 203.183594 320.695312 C 203.558594 321.628906 203.558594 322.628906 203.199219 323.535156 C 203.03125 323.71875 202.917969 323.941406 202.867188 324.1875 C 202.839844 324.222656 202.824219 324.265625 202.796875 324.300781 C 202.070312 325.378906 200.90625 326.003906 199.597656 326.003906 L 123.773438 326.003906 C 122.1875 325.992188 120.777344 325.035156 120.195312 323.546875 Z M 125.074219 328.5625 L 199.613281 328.5625 C 201.753906 328.5625 203.75 327.5 204.9375 325.730469 C 204.945312 325.71875 204.945312 325.703125 204.957031 325.695312 L 226.699219 325.695312 C 227.25 325.695312 227.703125 326.140625 227.703125 326.6875 L 227.703125 330.695312 C 227.703125 332.84375 225.957031 334.597656 223.796875 334.597656 L 129.757812 334.597656 C 127.171875 334.597656 125.066406 332.492188 125.066406 329.90625 L 125.066406 328.5625 Z M 226.699219 323.125 L 205.949219 323.125 C 206.128906 321.996094 206.007812 320.824219 205.5625 319.726562 L 202.363281 311.824219 L 236.621094 282.144531 L 239.875 314.1875 L 236.5625 317.820312 C 236.441406 317.957031 236.347656 318.109375 236.289062 318.28125 L 234.859375 322.578125 C 234.730469 322.972656 234.789062 323.398438 235.039062 323.734375 C 235.289062 324.066406 235.664062 324.265625 236.082031 324.265625 L 239.585938 324.265625 C 239.917969 324.265625 240.242188 324.136719 240.484375 323.90625 L 240.84375 323.554688 L 242.050781 334.921875 L 228.703125 334.921875 C 229.679688 333.792969 230.277344 332.320312 230.277344 330.703125 L 230.277344 326.695312 C 230.261719 324.726562 228.660156 323.125 226.699219 323.125 Z M 61.980469 219.625 L 203.414062 219.625 C 204.125 219.625 204.699219 219.050781 204.699219 218.339844 L 204.699219 183.34375 C 206.15625 182.933594 207.59375 182.570312 208.902344 182.332031 C 217.515625 180.738281 221.785156 175.9375 220.9375 168.824219 C 220.9375 168.816406 220.9375 168.816406 220.9375 168.804688 C 220.9375 168.78125 220.9375 168.753906 220.929688 168.71875 C 220.269531 163.457031 215.152344 161.511719 211.085938 160.808594 C 214.03125 159.269531 217.164062 157.171875 217.472656 155.089844 C 217.617188 154.140625 217.230469 153.25 216.402344 152.582031 C 214.304688 150.90625 209.433594 152.1875 204.699219 154.117188 L 204.699219 73.558594 C 204.699219 72.847656 204.125 72.273438 203.414062 72.273438 L 61.738281 72.273438 C 61.398438 72.273438 61.070312 72.410156 60.832031 72.648438 C 60.59375 72.890625 60.457031 73.214844 60.457031 73.558594 C 60.457031 75.003906 60.695312 217.972656 60.695312 218.332031 C 60.695312 219.042969 61.277344 219.625 61.980469 219.625 Z M 63.058594 93.957031 L 129.140625 93.957031 C 127.957031 95.507812 126.855469 97.355469 125.808594 99.523438 C 125.59375 99.96875 125.375 100.445312 125.132812 100.945312 L 74.171875 100.945312 C 73.460938 100.945312 72.886719 101.515625 72.886719 102.226562 L 72.886719 146.667969 C 72.886719 147.378906 73.460938 147.953125 74.171875 147.953125 L 106.273438 147.953125 C 105.621094 149.671875 105.238281 150.699219 105.21875 150.757812 C 105.144531 150.972656 105.125 151.1875 105.160156 151.402344 C 101.359375 152.960938 97.300781 155.289062 93.558594 158.765625 L 73.210938 158.765625 C 72.5 158.765625 71.925781 159.335938 71.925781 160.046875 C 71.925781 160.757812 72.5 161.332031 73.210938 161.332031 L 91.050781 161.332031 C 89.597656 162.96875 88.21875 164.816406 86.941406 166.886719 L 72.730469 166.886719 C 72.019531 166.886719 71.449219 167.460938 71.449219 168.171875 C 71.449219 168.882812 72.019531 169.457031 72.730469 169.457031 L 85.488281 169.457031 C 84.390625 171.5625 83.40625 173.890625 82.566406 176.441406 L 75.597656 176.441406 C 74.890625 176.441406 74.316406 177.015625 74.316406 177.726562 C 74.316406 178.4375 74.890625 179.011719 75.597656 179.011719 L 81.746094 179.011719 C 74.828125 201.433594 71.851562 215.15625 71.449219 217.054688 L 63.273438 217.054688 C 63.246094 206.320312 63.125 131.0625 63.058594 93.957031 Z M 159.28125 96.644531 C 174.964844 105.882812 173.964844 122.484375 171.335938 135.90625 C 169.394531 145.835938 167.109375 174.867188 166.628906 181.21875 L 154.507812 181.21875 L 148.761719 156.648438 C 148.660156 156.230469 148.359375 155.886719 147.957031 155.734375 C 146.785156 155.296875 143.496094 153.925781 142.253906 152.730469 C 141.902344 151.804688 143.070312 147.804688 144.832031 143.765625 C 151.894531 146.109375 161.644531 142.054688 165.59375 134.851562 C 169.855469 127.078125 166.789062 115.738281 166.664062 115.257812 C 166.484375 114.605469 165.824219 114.203125 165.15625 114.339844 L 136.484375 120.402344 C 135.449219 119.339844 133.113281 117.292969 130.628906 117.492188 C 129.621094 117.570312 128.179688 118.066406 127.050781 119.957031 C 126.273438 121.25 126.082031 122.636719 126.484375 124.074219 C 127.402344 127.34375 131.167969 129.84375 132.703125 130.742188 C 133.367188 135.777344 137.53125 166.785156 140.484375 176.347656 C 137.316406 176.554688 130.21875 176.664062 125.75 174.070312 L 120.828125 143.355469 C 120.714844 142.652344 120.046875 142.171875 119.355469 142.292969 C 118.652344 142.402344 118.171875 143.0625 118.292969 143.765625 L 119.011719 148.269531 C 117.015625 148.355469 112.941406 148.738281 108.132812 150.296875 C 110.707031 143.441406 122.460938 112.378906 128.121094 100.625 C 130.859375 94.941406 133.933594 91.75 137.777344 90.585938 C 142.835938 89.050781 149.667969 90.976562 159.28125 96.644531 Z M 165.34375 217.054688 L 154.230469 217.054688 L 156.160156 210.394531 C 158.828125 209.855469 166.738281 207.511719 169.28125 198.375 C 170.746094 193.128906 167.722656 186.929688 165.859375 183.789062 L 167.800781 183.789062 C 168.476562 183.789062 169.035156 183.265625 169.085938 182.597656 C 169.09375 182.445312 169.597656 175.671875 170.34375 167.1875 C 172.191406 168.839844 175.050781 171.769531 176.535156 175.210938 C 172.054688 188.90625 166.199219 213.316406 165.363281 216.851562 C 165.363281 216.910156 165.351562 216.988281 165.34375 217.054688 Z M 120.160156 217.054688 L 122.359375 215.164062 C 124.027344 215.421875 125.605469 215.523438 127.042969 215.523438 C 130.3125 215.523438 132.882812 215.007812 134.292969 214.640625 C 136.9375 213.949219 137.976562 213.21875 139.171875 212.371094 C 139.765625 211.953125 140.371094 211.527344 141.289062 211.019531 C 143.25 209.933594 144.773438 209.136719 145.515625 208.75 C 149.472656 210.191406 150.917969 208.828125 151.441406 207.871094 C 152.777344 205.363281 150.207031 201.320312 146.964844 199.121094 C 144.875 197.707031 141.347656 195.925781 137.921875 194.328125 C 140.988281 193.453125 142.273438 191.578125 142.734375 190.601562 C 143.617188 188.761719 143.488281 186.65625 142.417969 185.472656 C 140.878906 183.761719 139.183594 184.550781 137.828125 185.183594 C 137.074219 185.535156 136.21875 185.9375 135.117188 186.203125 C 133.421875 186.605469 132.539062 186.511719 130.585938 186.296875 C 129.105469 186.132812 127.078125 185.917969 123.804688 185.84375 C 123.617188 185.84375 123.429688 185.832031 123.242188 185.832031 C 117.058594 185.832031 114.535156 188.121094 109.835938 192.539062 L 112.882812 183.890625 C 113.121094 183.222656 112.769531 182.488281 112.09375 182.253906 C 111.425781 182.023438 110.691406 182.367188 110.460938 183.042969 L 105.792969 196.269531 C 98.011719 203.28125 84.316406 216.816406 84.167969 216.953125 C 84.136719 216.988281 84.125 217.03125 84.101562 217.054688 L 74.066406 217.054688 C 74.777344 213.792969 77.917969 199.917969 84.707031 178.101562 C 88.023438 167.453125 94.160156 159.765625 102.960938 155.175781 C 104.679688 156.445312 111.238281 160.964844 121.625 164.570312 L 123.308594 175.0625 C 123.371094 175.421875 123.574219 175.742188 123.875 175.9375 C 130.40625 180.210938 141.929688 178.832031 142.417969 178.761719 C 142.820312 178.710938 143.171875 178.480469 143.375 178.128906 C 143.582031 177.777344 143.597656 177.351562 143.4375 176.980469 C 142.804688 175.519531 142.066406 172.574219 141.304688 168.847656 C 143.882812 169.089844 146.476562 169.21875 149.0625 169.226562 L 152.238281 182.804688 C 152.375 183.386719 152.886719 183.796875 153.488281 183.796875 L 162.84375 183.796875 C 164.113281 185.707031 168.261719 192.546875 166.824219 197.699219 C 164.238281 206.960938 155.414062 207.957031 155.035156 208 C 154.515625 208.050781 154.070312 208.410156 153.925781 208.921875 L 151.5625 217.074219 L 120.160156 217.074219 Z M 107.753906 197.949219 C 109.132812 196.714844 110.3125 195.601562 111.375 194.601562 C 116.273438 189.996094 118.105469 188.273438 123.753906 188.394531 C 126.90625 188.460938 128.875 188.675781 130.3125 188.832031 C 132.351562 189.054688 133.582031 189.179688 135.707031 188.675781 C 137.066406 188.351562 138.085938 187.871094 138.917969 187.484375 C 140.234375 186.871094 140.269531 186.902344 140.507812 187.167969 C 140.75 187.433594 140.917969 188.429688 140.414062 189.472656 C 139.5 191.398438 136.921875 192.382812 133.367188 192.195312 C 133.335938 192.195312 133.292969 192.195312 133.257812 192.195312 C 130.527344 190.996094 128.464844 190.140625 128.257812 190.054688 C 127.597656 189.78125 126.855469 190.097656 126.582031 190.757812 C 126.304688 191.414062 126.621094 192.160156 127.28125 192.433594 C 127.417969 192.484375 140.757812 198 145.527344 201.226562 C 148.460938 203.222656 149.515625 205.996094 149.171875 206.636719 C 149.078125 206.808594 148.171875 207.003906 146.082031 206.191406 C 140.335938 201.542969 129.859375 198.273438 129.414062 198.136719 C 128.738281 197.929688 128.019531 198.308594 127.804688 198.984375 C 127.589844 199.660156 127.976562 200.378906 128.652344 200.59375 C 128.746094 200.617188 137.253906 203.28125 142.835938 207.003906 C 142.828125 207.003906 142.820312 207.003906 142.8125 206.996094 C 136.101562 206.542969 128.789062 203.613281 128.710938 203.582031 C 128.050781 203.316406 127.308594 203.632812 127.042969 204.292969 C 126.777344 204.949219 127.09375 205.695312 127.753906 205.960938 C 128.019531 206.0625 133.367188 208.203125 139.320312 209.164062 C 138.984375 209.367188 138.695312 209.554688 138.421875 209.734375 C 138.292969 209.703125 138.164062 209.683594 138.027344 209.695312 C 133.1875 209.992188 126.382812 208.316406 126.316406 208.296875 C 125.621094 208.125 124.929688 208.546875 124.757812 209.230469 C 124.585938 209.914062 125.003906 210.617188 125.691406 210.789062 C 125.902344 210.839844 129.59375 211.757812 133.601562 212.132812 C 130.945312 212.816406 124.019531 214.035156 116.136719 210.746094 C 115.484375 210.472656 114.730469 210.78125 114.457031 211.441406 C 114.183594 212.089844 114.492188 212.84375 115.152344 213.117188 C 116.53125 213.691406 117.875 214.128906 119.183594 214.46875 L 116.410156 216.851562 C 116.351562 216.902344 116.296875 216.960938 116.246094 217.023438 L 87.722656 217.023438 C 91.726562 213.125 101.683594 203.402344 107.753906 197.949219 Z M 106.898438 145.382812 L 75.453125 145.382812 L 75.453125 114.503906 L 119.328125 114.503906 C 114.84375 125.488281 109.910156 138.355469 107.230469 145.433594 C 107.121094 145.402344 107.011719 145.382812 106.898438 145.382812 Z M 120.382812 111.9375 L 75.453125 111.9375 L 75.453125 103.511719 L 123.976562 103.511719 C 122.875 105.984375 121.65625 108.855469 120.382812 111.9375 Z M 105.699219 153.875 C 111.871094 151.257812 117.421875 150.871094 119.421875 150.820312 L 121.160156 161.683594 C 113.480469 158.875 108.097656 155.578125 105.632812 153.910156 C 105.65625 153.894531 105.675781 153.882812 105.699219 153.875 Z M 153.339844 119.46875 C 153.382812 119.519531 153.425781 119.570312 153.480469 119.613281 C 153.617188 119.726562 153.753906 119.828125 153.925781 119.929688 C 154.09375 120.027344 154.285156 120.144531 154.523438 120.207031 L 154.753906 120.265625 C 154.769531 120.273438 154.789062 120.273438 154.804688 120.273438 C 155.105469 120.316406 155.378906 120.113281 155.429688 119.8125 C 155.472656 119.511719 155.449219 119.273438 155.386719 119.03125 L 164.460938 117.113281 C 165.097656 120.09375 166.371094 128.089844 163.339844 133.621094 C 160.183594 139.382812 151.160156 143.9375 144.695312 140.957031 C 144.042969 140.65625 143.292969 140.941406 142.992188 141.582031 C 140.75 146.417969 138.480469 152.589844 140.378906 154.5 C 141.851562 155.972656 145.003906 157.335938 146.40625 157.890625 L 148.453125 166.632812 C 145.894531 166.605469 143.316406 166.460938 140.773438 166.203125 C 138.070312 152.027344 135.199219 130.078125 135.160156 129.777344 C 135.105469 129.367188 134.851562 128.996094 134.480469 128.808594 C 133.171875 128.117188 129.628906 125.796875 128.953125 123.390625 C 128.738281 122.636719 128.839844 121.96875 129.242188 121.285156 C 129.9375 120.128906 130.605469 120.078125 130.816406 120.058594 C 132.339844 119.941406 134.4375 121.933594 135.039062 122.644531 C 135.347656 123.003906 135.816406 123.175781 136.289062 123.074219 Z M 202.128906 217.054688 L 191.804688 217.054688 L 194.117188 186.980469 C 195.503906 186.433594 198.679688 185.21875 202.128906 184.121094 Z M 214.800781 154.59375 C 214.894531 154.671875 214.929688 154.722656 214.9375 154.722656 C 214.894531 155.792969 210.347656 158.609375 205.570312 160.527344 L 200.554688 162.558594 C 199.894531 162.820312 199.578125 163.574219 199.84375 164.226562 C 200.050781 164.722656 200.53125 165.03125 201.035156 165.03125 C 201.199219 165.03125 201.359375 164.996094 201.515625 164.9375 L 206.308594 162.992188 C 207.6875 162.984375 215.46875 163.105469 217.78125 167.207031 C 212.457031 166.625 202.933594 167.8125 201.695312 167.96875 C 200.992188 168.0625 200.496094 168.703125 200.589844 169.40625 C 200.675781 170.054688 201.222656 170.527344 201.867188 170.527344 C 201.917969 170.527344 201.976562 170.527344 202.027344 170.519531 C 205.53125 170.066406 214.757812 169.148438 218.457031 169.894531 C 218.535156 171.28125 218.363281 172.53125 217.933594 173.652344 C 214.457031 173.335938 203.527344 174.300781 202.226562 174.414062 C 201.515625 174.472656 201 175.097656 201.0625 175.808594 C 201.121094 176.476562 201.675781 176.980469 202.335938 176.980469 C 202.371094 176.980469 202.414062 176.980469 202.457031 176.972656 C 206.738281 176.589844 213.15625 176.125 216.367188 176.144531 C 214.699219 177.90625 212.054688 179.128906 208.441406 179.808594 C 201.933594 181.015625 192.808594 184.738281 192.421875 184.902344 C 191.976562 185.082031 191.667969 185.507812 191.625 185.988281 L 189.238281 217.046875 C 189.238281 217.046875 189.238281 217.054688 189.238281 217.054688 L 167.972656 217.054688 C 172.277344 199.007812 179.554688 171.332031 182.210938 168.019531 C 183.605469 166.273438 185.015625 164.910156 186.378906 163.59375 C 188.691406 161.367188 190.675781 159.441406 191.515625 156.589844 C 191.789062 155.648438 192.054688 154.613281 192.320312 153.585938 C 192.746094 151.933594 193.40625 149.339844 193.980469 148.285156 C 194.734375 149.859375 195.332031 154.851562 193.828125 159.929688 C 193.828125 159.929688 193.828125 159.9375 193.828125 159.9375 C 193.792969 160.058594 193.785156 160.175781 193.785156 160.304688 C 193.785156 160.332031 193.785156 160.347656 193.785156 160.375 C 193.792969 160.492188 193.808594 160.613281 193.851562 160.726562 C 193.851562 160.734375 193.851562 160.742188 193.859375 160.75 C 193.894531 160.828125 196.8125 168.832031 191.832031 173.1875 C 191.300781 173.660156 191.242188 174.464844 191.710938 175.003906 C 192.183594 175.535156 192.988281 175.59375 193.527344 175.125 C 198.6875 170.613281 197.363281 163.585938 196.609375 160.921875 C 204.238281 156.710938 213.132812 153.25 214.800781 154.59375 Z M 196.933594 157.789062 C 197.722656 153.113281 197.183594 148.515625 195.949219 146.597656 C 195.382812 145.71875 194.726562 145.453125 194.273438 145.390625 C 191.824219 145.050781 190.949219 148.523438 189.820312 152.941406 C 189.5625 153.945312 189.304688 154.945312 189.03125 155.863281 C 188.390625 158.0625 186.703125 159.679688 184.570312 161.742188 C 183.21875 163.054688 181.679688 164.535156 180.179688 166.410156 C 179.503906 167.257812 178.640625 169.199219 177.679688 171.863281 C 175.328125 167.976562 171.902344 165.066406 170.617188 164.054688 C 171.550781 153.738281 172.757812 141.90625 173.835938 136.402344 C 174.28125 134.117188 174.933594 130.785156 175.25 126.925781 L 193.363281 126.925781 C 194.074219 126.925781 194.648438 126.351562 194.648438 125.640625 C 194.648438 124.929688 194.074219 124.359375 193.363281 124.359375 L 175.402344 124.359375 C 175.472656 122.527344 175.4375 120.609375 175.273438 118.648438 L 182.054688 118.648438 C 182.765625 118.648438 183.339844 118.074219 183.339844 117.363281 C 183.339844 116.652344 182.765625 116.078125 182.054688 116.078125 L 174.964844 116.078125 C 174.5625 113.425781 173.871094 110.746094 172.765625 108.132812 L 195.109375 108.132812 C 195.820312 108.132812 196.394531 107.5625 196.394531 106.851562 C 196.394531 106.140625 195.820312 105.566406 195.109375 105.566406 L 171.535156 105.566406 C 171.535156 105.566406 171.523438 105.566406 171.523438 105.566406 C 169.246094 101.386719 165.773438 97.511719 160.558594 94.4375 C 160.277344 94.273438 160.003906 94.121094 159.726562 93.957031 L 202.105469 93.957031 L 202.105469 155.226562 C 200.214844 156.101562 198.414062 157.007812 196.933594 157.789062 Z M 202.128906 74.839844 L 202.128906 91.390625 L 155.15625 91.390625 C 155.097656 91.390625 155.046875 91.398438 154.992188 91.40625 C 147.511719 87.75 141.714844 86.714844 137.03125 88.136719 C 134.988281 88.761719 133.136719 89.832031 131.453125 91.390625 L 63.058594 91.390625 C 63.039062 83.375 63.03125 77.453125 63.03125 74.839844 Z M 77.269531 87.742188 C 79.734375 87.742188 81.738281 85.738281 81.738281 83.273438 C 81.738281 80.808594 79.734375 78.804688 77.269531 78.804688 C 74.804688 78.804688 72.800781 80.808594 72.800781 83.273438 C 72.800781 85.738281 74.8125 87.742188 77.269531 87.742188 Z M 77.269531 81.371094 C 78.3125 81.371094 79.167969 82.230469 79.167969 83.273438 C 79.167969 84.316406 78.3125 85.175781 77.269531 85.175781 C 76.222656 85.175781 75.367188 84.316406 75.367188 83.273438 C 75.367188 82.230469 76.222656 81.371094 77.269531 81.371094 Z M 88.742188 87.742188 C 91.207031 87.742188 93.210938 85.738281 93.210938 83.273438 C 93.210938 80.808594 91.207031 78.804688 88.742188 78.804688 C 86.273438 78.804688 84.273438 80.808594 84.273438 83.273438 C 84.273438 85.738281 86.273438 87.742188 88.742188 87.742188 Z M 88.742188 81.371094 C 89.785156 81.371094 90.640625 82.230469 90.640625 83.273438 C 90.640625 84.316406 89.785156 85.175781 88.742188 85.175781 C 87.695312 85.175781 86.839844 84.316406 86.839844 83.273438 C 86.839844 82.230469 87.695312 81.371094 88.742188 81.371094 Z M 100.367188 87.664062 C 102.832031 87.664062 104.835938 85.660156 104.835938 83.195312 C 104.835938 80.730469 102.832031 78.726562 100.367188 78.726562 C 97.902344 78.726562 95.898438 80.730469 95.898438 83.195312 C 95.898438 85.660156 97.902344 87.664062 100.367188 87.664062 Z M 100.367188 81.289062 C 101.410156 81.289062 102.265625 82.144531 102.265625 83.1875 C 102.265625 84.230469 101.410156 85.089844 100.367188 85.089844 C 99.320312 85.089844 98.464844 84.230469 98.464844 83.1875 C 98.464844 82.144531 99.320312 81.289062 100.367188 81.289062 Z M 200.476562 117.355469 C 200.476562 118.066406 199.90625 118.640625 199.195312 118.640625 L 191.234375 118.640625 C 190.523438 118.640625 189.949219 118.066406 189.949219 117.355469 C 189.949219 116.644531 190.523438 116.070312 191.234375 116.070312 L 199.195312 116.070312 C 199.90625 116.070312 200.476562 116.644531 200.476562 117.355469 Z M 82.082031 107.484375 C 82.082031 108.289062 81.421875 108.949219 80.617188 108.949219 C 79.8125 108.949219 79.152344 108.289062 79.152344 107.484375 C 79.152344 106.679688 79.8125 106.019531 80.617188 106.019531 C 81.421875 106.019531 82.082031 106.671875 82.082031 107.484375 Z M 87.9375 107.484375 C 87.9375 108.289062 87.277344 108.949219 86.472656 108.949219 C 85.667969 108.949219 85.007812 108.289062 85.007812 107.484375 C 85.007812 106.679688 85.667969 106.019531 86.472656 106.019531 C 87.277344 106.019531 87.9375 106.671875 87.9375 107.484375 Z M 233.207031 106.480469 C 235.648438 106.480469 237.625 104.496094 237.625 102.066406 C 237.625 99.632812 235.636719 97.648438 233.207031 97.648438 C 230.777344 97.648438 228.789062 99.632812 228.789062 102.066406 C 228.789062 104.496094 230.777344 106.480469 233.207031 106.480469 Z M 233.207031 100.214844 C 234.226562 100.214844 235.054688 101.046875 235.054688 102.066406 C 235.054688 103.082031 234.226562 103.914062 233.207031 103.914062 C 232.1875 103.914062 231.359375 103.082031 231.359375 102.066406 C 231.359375 101.046875 232.1875 100.214844 233.207031 100.214844 Z M 248.308594 106.480469 C 250.75 106.480469 252.726562 104.496094 252.726562 102.066406 C 252.726562 99.632812 250.738281 97.648438 248.308594 97.648438 C 245.878906 97.648438 243.890625 99.632812 243.890625 102.066406 C 243.890625 104.496094 245.878906 106.480469 248.308594 106.480469 Z M 248.308594 100.214844 C 249.328125 100.214844 250.15625 101.046875 250.15625 102.066406 C 250.15625 103.082031 249.328125 103.914062 248.308594 103.914062 C 247.289062 103.914062 246.460938 103.082031 246.460938 102.066406 C 246.460938 101.046875 247.289062 100.214844 248.308594 100.214844 Z M 263.410156 106.480469 C 265.851562 106.480469 267.828125 104.496094 267.828125 102.066406 C 267.828125 99.632812 265.839844 97.648438 263.410156 97.648438 C 260.980469 97.648438 258.992188 99.632812 258.992188 102.066406 C 258.992188 104.496094 260.980469 106.480469 263.410156 106.480469 Z M 263.410156 100.214844 C 264.429688 100.214844 265.257812 101.046875 265.257812 102.066406 C 265.257812 103.082031 264.429688 103.914062 263.410156 103.914062 C 262.390625 103.914062 261.5625 103.082031 261.5625 102.066406 C 261.5625 101.046875 262.390625 100.214844 263.410156 100.214844 Z M 25.0625 248.378906 C 28.824219 248.378906 32.042969 246.839844 33.875 245.382812 C 34.148438 245.171875 34.320312 244.84375 34.351562 244.503906 C 34.386719 244.152344 34.277344 243.808594 34.054688 243.542969 C 24.765625 232.707031 13.925781 240.890625 13.816406 240.976562 C 13.53125 241.199219 13.351562 241.523438 13.320312 241.882812 C 13.285156 242.242188 13.414062 242.59375 13.652344 242.859375 C 17.460938 247.003906 21.503906 248.378906 25.0625 248.378906 Z M 31.109375 244.144531 C 28.660156 245.554688 22.726562 247.882812 16.625 242.207031 C 19.199219 240.769531 25.320312 238.40625 31.109375 244.144531 Z M 226.691406 118.785156 L 221.445312 127.105469 C 221.128906 127.601562 221.195312 128.253906 221.597656 128.671875 C 221.847656 128.9375 222.1875 129.074219 222.53125 129.074219 C 222.746094 129.074219 222.960938 129.023438 223.15625 128.910156 L 239.902344 119.519531 L 264.574219 119.519531 C 273.972656 119.519531 281.628906 111.867188 281.628906 102.46875 C 281.628906 93.066406 273.972656 85.414062 264.574219 85.414062 L 231.605469 85.414062 C 222.207031 85.414062 214.550781 93.066406 214.550781 102.46875 C 214.550781 110.050781 219.5625 116.644531 226.691406 118.785156 Z M 231.605469 87.980469 L 264.574219 87.980469 C 272.5625 87.980469 279.058594 94.480469 279.058594 102.46875 C 279.058594 110.453125 272.5625 116.953125 264.574219 116.953125 L 239.566406 116.953125 C 239.34375 116.953125 239.132812 117.011719 238.941406 117.113281 L 226.316406 124.195312 L 229.816406 118.648438 C 230.046875 118.289062 230.074219 117.835938 229.910156 117.449219 C 229.738281 117.054688 229.390625 116.78125 228.96875 116.703125 C 222.113281 115.4375 217.128906 109.453125 217.128906 102.476562 C 217.121094 94.480469 223.617188 87.980469 231.605469 87.980469 Z M 268.488281 191.792969 C 268.863281 190.566406 269.847656 189.78125 270.679688 190.039062 C 271.507812 190.292969 271.875 191.492188 271.492188 192.726562 C 271.113281 193.949219 270.128906 194.738281 269.300781 194.480469 C 268.476562 194.222656 268.109375 193.023438 268.488281 191.792969 Z M 257.359375 188.257812 C 257.734375 187.03125 258.71875 186.246094 259.550781 186.5 C 260.378906 186.757812 260.746094 187.957031 260.363281 189.191406 C 259.984375 190.414062 259 191.203125 258.171875 190.945312 C 257.339844 190.679688 256.980469 189.480469 257.359375 188.257812 Z M 263.914062 194.371094 L 264.0625 194.394531 C 264.546875 194.480469 264.875 194.953125 264.789062 195.4375 C 264.726562 195.746094 264.515625 195.996094 264.242188 196.117188 C 263.839844 196.277344 263.410156 196.398438 262.949219 196.449219 C 262.476562 196.476562 261.980469 196.464844 261.449219 196.296875 C 260.9375 196.125 260.378906 195.808594 260.027344 195.300781 C 259.675781 194.789062 259.523438 194.25 259.652344 193.589844 C 259.667969 193.496094 259.753906 193.425781 259.855469 193.4375 L 261.277344 193.511719 C 261.382812 193.523438 261.476562 193.648438 261.5625 193.703125 C 261.648438 193.761719 261.714844 193.8125 261.785156 193.855469 C 261.910156 193.933594 262.023438 194.027344 262.230469 194.09375 C 262.410156 194.179688 262.683594 194.222656 262.964844 194.273438 C 263.117188 194.292969 263.265625 194.308594 263.425781 194.335938 C 263.574219 194.335938 263.742188 194.34375 263.914062 194.371094 Z M 266.011719 203.46875 C 266.03125 203.804688 265.839844 204.09375 265.558594 204.230469 C 265.148438 204.417969 264.726562 204.597656 264.292969 204.746094 C 263.839844 204.847656 263.394531 205.011719 262.914062 205.027344 C 261.972656 205.164062 260.96875 205.027344 260.035156 204.753906 C 259.09375 204.460938 258.230469 203.957031 257.519531 203.316406 C 256.792969 202.664062 256.253906 201.9375 255.832031 200.988281 C 255.636719 200.53125 255.84375 200.003906 256.289062 199.804688 C 256.648438 199.644531 257.066406 199.746094 257.316406 200.027344 L 257.417969 200.140625 C 257.84375 200.617188 258.417969 201.167969 258.96875 201.570312 C 259.53125 201.988281 260.132812 202.324219 260.773438 202.546875 C 261.414062 202.757812 262.089844 202.921875 262.800781 202.914062 C 263.152344 202.957031 263.519531 202.886719 263.898438 202.886719 C 264.273438 202.863281 264.644531 202.777344 265.035156 202.75 L 265.171875 202.742188 C 265.617188 202.707031 265.988281 203.03125 266.011719 203.46875 Z M 257.390625 182.871094 C 257.417969 182.71875 257.511719 182.589844 257.632812 182.503906 C 258.203125 182.109375 258.789062 181.921875 259.445312 181.84375 C 260.097656 181.765625 260.789062 181.84375 261.441406 182.09375 C 262.089844 182.324219 262.699219 182.734375 263.128906 183.257812 C 263.574219 183.769531 263.847656 184.386719 263.957031 185.011719 C 264.027344 185.441406 263.742188 185.84375 263.316406 185.910156 C 263.101562 185.945312 262.894531 185.894531 262.734375 185.78125 L 262.632812 185.707031 C 262.195312 185.398438 261.886719 185.089844 261.542969 184.847656 C 261.226562 184.585938 260.894531 184.402344 260.550781 184.222656 C 260.199219 184.054688 259.816406 183.917969 259.386719 183.804688 C 258.957031 183.695312 258.460938 183.632812 257.992188 183.558594 L 257.855469 183.53125 C 257.546875 183.480469 257.339844 183.179688 257.390625 182.871094 Z M 269.035156 186.441406 C 269.058594 186.289062 269.15625 186.160156 269.273438 186.074219 C 269.847656 185.679688 270.429688 185.492188 271.089844 185.414062 C 271.738281 185.335938 272.433594 185.414062 273.082031 185.664062 C 273.734375 185.894531 274.34375 186.304688 274.769531 186.828125 C 275.214844 187.339844 275.488281 187.957031 275.601562 188.582031 C 275.667969 189.011719 275.386719 189.414062 274.957031 189.480469 C 274.746094 189.515625 274.539062 189.464844 274.375 189.351562 L 274.273438 189.277344 C 273.835938 188.96875 273.527344 188.660156 273.1875 188.417969 C 272.871094 188.152344 272.535156 187.972656 272.195312 187.792969 C 271.84375 187.625 271.457031 187.484375 271.03125 187.375 C 270.601562 187.261719 270.105469 187.203125 269.632812 187.125 L 269.496094 187.101562 C 269.1875 187.042969 268.984375 186.75 269.035156 186.441406 Z M 149.71875 122.335938 C 150.300781 121.351562 151.3125 120.875 151.980469 121.265625 C 152.648438 121.660156 152.714844 122.773438 152.132812 123.765625 C 151.550781 124.761719 150.542969 125.230469 149.875 124.835938 C 149.207031 124.441406 149.136719 123.332031 149.71875 122.335938 Z M 158.726562 127.550781 C 159.308594 126.566406 160.320312 126.085938 160.988281 126.480469 C 161.65625 126.875 161.722656 127.988281 161.140625 128.980469 C 160.558594 129.972656 159.546875 130.445312 158.878906 130.050781 C 158.214844 129.65625 158.144531 128.535156 158.726562 127.550781 Z M 152.3125 128.125 C 152.597656 128.023438 152.90625 128.089844 153.121094 128.269531 L 153.179688 128.320312 C 153.417969 128.527344 153.625 128.722656 153.828125 128.894531 C 154.035156 129.050781 154.222656 129.203125 154.386719 129.273438 C 154.550781 129.355469 154.675781 129.382812 154.8125 129.417969 C 154.933594 129.460938 155.15625 129.46875 155.335938 129.546875 L 156.039062 129.84375 C 156.3125 129.957031 156.441406 130.273438 156.320312 130.546875 C 156.304688 130.589844 156.277344 130.632812 156.253906 130.667969 C 155.882812 131.148438 155.449219 131.378906 154.898438 131.445312 C 154.351562 131.515625 153.8125 131.34375 153.394531 131.105469 C 152.957031 130.863281 152.65625 130.539062 152.390625 130.214844 C 152.152344 129.878906 151.972656 129.527344 151.835938 129.160156 C 151.679688 128.730469 151.894531 128.269531 152.3125 128.125 Z M 145.695312 133.140625 C 145.578125 132.773438 145.78125 132.378906 146.152344 132.269531 C 146.449219 132.171875 146.757812 132.292969 146.929688 132.535156 L 146.972656 132.59375 C 147.375 133.167969 147.75 133.707031 148.207031 134.160156 C 148.632812 134.628906 149.148438 134.980469 149.667969 135.273438 C 150.199219 135.5625 150.78125 135.761719 151.398438 135.878906 C 151.996094 136 152.699219 136.042969 153.273438 136.042969 L 153.402344 136.042969 C 153.839844 136.042969 154.199219 136.394531 154.207031 136.839844 C 154.207031 137.191406 153.976562 137.5 153.660156 137.601562 C 152.785156 137.890625 151.980469 137.96875 151.117188 137.882812 C 150.269531 137.796875 149.414062 137.53125 148.660156 137.085938 C 147.914062 136.644531 147.230469 136.070312 146.75 135.359375 C 146.476562 135.03125 146.3125 134.648438 146.109375 134.289062 C 145.953125 133.910156 145.824219 133.527344 145.695312 133.140625 Z M 159.019531 123.125 C 159.058594 122.9375 159.171875 122.78125 159.316406 122.6875 C 159.796875 122.378906 160.363281 122.191406 160.96875 122.183594 C 161.570312 122.15625 162.203125 122.304688 162.75 122.59375 C 163.296875 122.875 163.769531 123.277344 164.101562 123.757812 C 164.445312 124.238281 164.667969 124.742188 164.753906 125.351562 C 164.789062 125.625 164.597656 125.882812 164.316406 125.914062 C 164.179688 125.933594 164.042969 125.898438 163.941406 125.8125 L 163.847656 125.734375 C 163.511719 125.480469 163.167969 125.179688 162.84375 124.964844 C 162.511719 124.742188 162.195312 124.570312 161.867188 124.453125 C 161.542969 124.339844 161.226562 124.230469 160.859375 124.179688 C 160.5 124.09375 160.105469 124.074219 159.652344 123.972656 L 159.539062 123.945312 C 159.179688 123.871094 158.941406 123.5 159.019531 123.125 Z M 159.019531 123.125 " fill-opacity="1" fill-rule="nonzero"/></g></svg>