<svg xmlns="http://www.w3.org/2000/svg" xmlns:xlink="http://www.w3.org/1999/xlink" width="500" zoomAndPan="magnify" viewBox="0 0 375 374.999991" height="500" preserveAspectRatio="xMidYMid meet" version="1.0"><defs><filter x="0%" y="0%" width="100%" height="100%" id="1dc1875b5e"><feColorMatrix values="0 0 0 0 1 0 0 0 0 1 0 0 0 0 1 0 0 0 1 0" color-interpolation-filters="sRGB"/></filter><mask id="78f584a38a"><g filter="url(#1dc1875b5e)"><rect x="-37.5" width="450" fill="#000000" y="-37.499999" height="449.999989" fill-opacity="0.2"/></g></mask><clipPath id="b8ae901086"><rect x="0" width="30" y="0" height="69"/></clipPath><clipPath id="523aa2aec9"><path d="M 0 345 L 361 345 L 361 349.355469 L 0 349.355469 Z M 0 345 " clip-rule="nonzero"/></clipPath></defs><path fill="#d0c3f1" d="M 239.78125 278.523438 C 225.828125 281.4375 211.410156 282.839844 196.75 283.453125 C 159.546875 285 120.445312 281.722656 84.789062 270.820312 C 37.324219 256.308594 17.535156 198.554688 48.28125 158.785156 C 57.242188 147.203125 69.105469 140.425781 80.601562 131.847656 C 94.132812 121.753906 106.53125 110.128906 116.066406 96.109375 C 124.394531 83.871094 129.882812 69.863281 138.980469 58.144531 C 149.03125 45.199219 164.054688 37.128906 180.125 34.5625 C 237.804688 25.355469 301.675781 58.640625 336.589844 103.605469 C 375.050781 153.140625 342.242188 220.566406 297.820312 253.429688 C 279.984375 266.621094 260.386719 274.226562 239.78125 278.523438 Z M 239.78125 278.523438 " fill-opacity="1" fill-rule="nonzero"/><path fill="#d0c3f1" d="M 21.476562 201.886719 C 20.027344 201.886719 18.800781 200.78125 18.679688 199.3125 C 16.28125 170.078125 30.472656 146.261719 60.859375 128.53125 C 88.410156 112.464844 107.21875 81.882812 107.410156 81.570312 C 108.214844 80.253906 109.9375 79.820312 111.265625 80.628906 C 112.585938 81.433594 113.007812 83.15625 112.210938 84.484375 C 111.421875 85.785156 92.496094 116.578125 63.699219 133.378906 C 35.335938 149.925781 22.070312 171.949219 24.289062 198.855469 C 24.417969 200.402344 23.261719 201.75 21.722656 201.878906 C 21.632812 201.886719 21.558594 201.886719 21.476562 201.886719 Z M 21.476562 201.886719 " fill-opacity="1" fill-rule="nonzero"/><path fill="#8c52ff" d="M 107.015625 334.96875 C 107.015625 334.96875 108.125 343.210938 109.214844 344.457031 C 112.871094 348.664062 121.105469 347.242188 125.191406 344.707031 C 127.773438 343.101562 125.375 337.558594 125.375 337.558594 Z M 107.015625 334.96875 " fill-opacity="1" fill-rule="nonzero"/><path fill="#192351" d="M 120.007812 326.5 C 120.007812 326.5 122.554688 332.125 122.957031 332.722656 C 123.367188 333.316406 130.304688 341.828125 121.085938 343.707031 C 111.871094 345.585938 109.792969 344.265625 107.609375 338.035156 C 106.355469 334.433594 107.722656 327.445312 107.722656 327.445312 C 107.722656 327.445312 108.226562 329.523438 111.394531 329.570312 C 116.957031 329.644531 119.394531 328.515625 120.007812 326.5 Z M 120.007812 326.5 " fill-opacity="1" fill-rule="nonzero"/><path fill="#ffffff" d="M 118.972656 330.671875 L 111.933594 331.660156 C 111.667969 331.695312 111.429688 331.511719 111.394531 331.246094 C 111.359375 330.980469 111.542969 330.742188 111.808594 330.707031 L 118.84375 329.71875 C 119.109375 329.679688 119.347656 329.863281 119.382812 330.128906 C 119.421875 330.394531 119.238281 330.632812 118.972656 330.671875 Z M 118.972656 330.671875 " fill-opacity="1" fill-rule="nonzero"/><path fill="#ffffff" d="M 119.410156 332.574219 L 112.375 333.566406 C 112.109375 333.601562 111.871094 333.417969 111.835938 333.152344 C 111.796875 332.886719 111.980469 332.648438 112.246094 332.613281 L 119.28125 331.621094 C 119.546875 331.585938 119.785156 331.769531 119.824219 332.035156 C 119.859375 332.292969 119.675781 332.539062 119.410156 332.574219 Z M 119.410156 332.574219 " fill-opacity="1" fill-rule="nonzero"/><path fill="#ffffff" d="M 119.894531 334.8125 L 112.859375 335.800781 C 112.59375 335.835938 112.355469 335.652344 112.320312 335.386719 C 112.285156 335.121094 112.464844 334.882812 112.730469 334.847656 L 119.769531 333.859375 C 120.035156 333.820312 120.273438 334.003906 120.308594 334.269531 C 120.34375 334.535156 120.164062 334.773438 119.894531 334.8125 Z M 119.894531 334.8125 " fill-opacity="1" fill-rule="nonzero"/><path fill="#192351" d="M 106.566406 239.203125 C 102.71875 222.976562 101.546875 206.449219 101.546875 206.449219 L 86.449219 194.652344 L 53.496094 206.6875 C 52.394531 221.394531 53.230469 287.28125 53.183594 296.34375 C 53.136719 305.402344 53.082031 326.859375 53.082031 326.859375 C 53.082031 326.859375 63.957031 329.277344 68.300781 325.613281 C 68.300781 325.613281 70.488281 309.800781 71.019531 302.40625 C 72.816406 277.195312 77.460938 234.675781 77.460938 234.675781 C 77.460938 234.675781 84.542969 254.851562 90.609375 270.808594 L 104.890625 324.835938 C 118.3125 326.136719 122.121094 322.679688 122.121094 322.679688 C 122.121094 322.679688 109.160156 250.121094 106.566406 239.203125 Z M 106.566406 239.203125 " fill-opacity="1" fill-rule="nonzero"/><path fill="#d0c3f1" d="M 77.460938 234.898438 C 77.359375 234.898438 77.269531 234.824219 77.25 234.722656 L 75.28125 224.644531 C 75.261719 224.527344 75.335938 224.417969 75.445312 224.398438 C 75.5625 224.378906 75.675781 224.453125 75.691406 224.5625 L 77.664062 234.640625 C 77.679688 234.757812 77.605469 234.871094 77.496094 234.886719 C 77.488281 234.898438 77.480469 234.898438 77.460938 234.898438 Z M 77.460938 234.898438 " fill-opacity="1" fill-rule="nonzero"/><path fill="#d0c3f1" d="M 76.480469 229.859375 C 76.453125 229.859375 76.425781 229.847656 76.398438 229.839844 C 76.242188 229.777344 72.660156 228.292969 71.140625 227.035156 C 71.046875 226.964844 71.039062 226.824219 71.113281 226.734375 C 71.183594 226.640625 71.324219 226.632812 71.414062 226.707031 C 72.890625 227.914062 76.527344 229.425781 76.5625 229.445312 C 76.671875 229.492188 76.71875 229.609375 76.683594 229.71875 C 76.644531 229.8125 76.5625 229.859375 76.480469 229.859375 Z M 76.480469 229.859375 " fill-opacity="1" fill-rule="nonzero"/><path fill="#8c52ff" d="M 35.417969 341.9375 C 35.417969 341.9375 34.558594 346.894531 40.394531 347.492188 C 46.230469 348.085938 50.324219 347.765625 53.339844 347.113281 C 56.351562 346.457031 58.046875 345.511719 61.21875 345.777344 C 64.386719 346.042969 67.628906 347.363281 69.226562 345.75 C 70.535156 344.429688 69.335938 340.820312 69.335938 340.820312 L 51.863281 340.902344 Z M 35.417969 341.9375 " fill-opacity="1" fill-rule="nonzero"/><path fill="#192351" d="M 53.898438 331.285156 C 53.898438 331.285156 46.972656 336.222656 43.5625 337.90625 C 40.15625 339.585938 35.730469 338.421875 35.429688 341.9375 C 35.125 345.457031 44.746094 344.6875 50.378906 344.164062 C 56.015625 343.644531 59.960938 341.445312 62.914062 342.324219 C 65.863281 343.195312 69.140625 341.792969 69.351562 340.820312 C 69.5625 339.851562 68.144531 331.292969 67.390625 330.476562 C 67.390625 330.476562 66.980469 332.164062 61.429688 332.308594 C 55.875 332.449219 53.898438 331.285156 53.898438 331.285156 Z M 53.898438 331.285156 " fill-opacity="1" fill-rule="nonzero"/><path fill="#ffffff" d="M 47.4375 338.429688 L 47.355469 338.484375 C 47.191406 338.585938 46.988281 338.53125 46.890625 338.367188 L 45.835938 336.578125 C 45.742188 336.414062 45.789062 336.203125 45.953125 336.113281 L 46.039062 336.058594 C 46.203125 335.957031 46.402344 336.011719 46.503906 336.175781 L 47.558594 337.960938 C 47.660156 338.117188 47.605469 338.328125 47.4375 338.429688 Z M 47.4375 338.429688 " fill-opacity="1" fill-rule="nonzero"/><path fill="#ffffff" d="M 49.015625 337.3125 L 48.933594 337.367188 C 48.765625 337.46875 48.566406 337.414062 48.464844 337.25 L 47.410156 335.460938 C 47.320312 335.296875 47.367188 335.085938 47.53125 334.996094 L 47.613281 334.9375 C 47.777344 334.839844 47.980469 334.894531 48.082031 335.058594 L 49.132812 336.84375 C 49.226562 337.011719 49.171875 337.21875 49.015625 337.3125 Z M 49.015625 337.3125 " fill-opacity="1" fill-rule="nonzero"/><path fill="#ffffff" d="M 50.847656 336.128906 L 50.765625 336.183594 C 50.597656 336.285156 50.398438 336.230469 50.296875 336.066406 L 49.242188 334.28125 C 49.152344 334.113281 49.199219 333.902344 49.363281 333.8125 L 49.445312 333.757812 C 49.609375 333.65625 49.8125 333.710938 49.914062 333.875 L 50.964844 335.664062 C 51.058594 335.828125 51.011719 336.039062 50.847656 336.128906 Z M 50.847656 336.128906 " fill-opacity="1" fill-rule="nonzero"/><path fill="#ffffff" d="M 52.660156 334.96875 L 52.578125 335.023438 C 52.414062 335.121094 52.210938 335.066406 52.109375 334.902344 L 51.058594 333.117188 C 50.964844 332.953125 51.011719 332.742188 51.175781 332.648438 L 51.257812 332.59375 C 51.425781 332.492188 51.625 332.546875 51.726562 332.714844 L 52.78125 334.5 C 52.871094 334.65625 52.816406 334.867188 52.660156 334.96875 Z M 52.660156 334.96875 " fill-opacity="1" fill-rule="nonzero"/><path fill="#c47249" d="M 68.511719 171.171875 C 57.882812 172.835938 39.671875 177.289062 39.671875 177.289062 C 40.382812 166.414062 41.695312 157.804688 43.308594 150.996094 C 49.042969 126.753906 60.265625 125.253906 60.265625 125.253906 L 68.574219 129.46875 L 78.203125 133.554688 C 78.203125 133.554688 79.136719 169.503906 68.511719 171.171875 Z M 68.511719 171.171875 " fill-opacity="1" fill-rule="nonzero"/><path fill="#c47249" d="M 56.582031 173.359375 C 56.582031 173.359375 61.273438 186.515625 52.09375 187.90625 C 48.738281 188.421875 32.789062 175.53125 32.789062 175.53125 L 43.335938 168.871094 Z M 56.582031 173.359375 " fill-opacity="1" fill-rule="nonzero"/><path fill="#8c52ff" d="M 68.574219 129.46875 C 67.878906 138.554688 66.0625 150.171875 61.355469 151.179688 C 55.511719 152.425781 47.136719 151.527344 43.296875 150.996094 C 49.03125 126.753906 59.101562 125.0625 59.101562 125.0625 Z M 68.574219 129.46875 " fill-opacity="1" fill-rule="nonzero"/><path fill="#192351" d="M 54.894531 151.902344 C 54.894531 151.902344 54.886719 151.902344 54.894531 151.902344 C 54.824219 151.902344 54.777344 151.847656 54.777344 151.785156 C 54.777344 151.710938 55.226562 144.867188 56.152344 141.167969 C 56.167969 141.101562 56.234375 141.066406 56.289062 141.082031 C 56.351562 141.101562 56.390625 141.167969 56.371094 141.222656 C 55.445312 144.914062 55.007812 151.730469 55.007812 151.804688 C 55.007812 151.847656 54.960938 151.902344 54.894531 151.902344 Z M 54.894531 151.902344 " fill-opacity="1" fill-rule="nonzero"/><path fill="#c47249" d="M 63.417969 132.097656 C 63.453125 131.996094 72.496094 141.578125 78.394531 139.644531 C 84.992188 137.472656 87.941406 124.035156 87.941406 124.035156 L 86.898438 110.539062 L 86.886719 110.320312 L 86.871094 109.515625 L 85.570312 109.988281 L 80.390625 111.878906 L 78.3125 112.636719 L 73 114.570312 C 73 114.570312 72.90625 118.0625 72.246094 120.890625 C 72.175781 121.195312 72.109375 121.46875 72.039062 121.746094 C 71.890625 122.210938 71.671875 122.652344 71.421875 123.019531 C 70.855469 123.90625 70.148438 124.472656 70.148438 124.484375 C 68.8125 127.296875 63.460938 132.097656 63.417969 132.097656 Z M 63.417969 132.097656 " fill-opacity="1" fill-rule="nonzero"/><path fill="#c47249" d="M 65.421875 106.5625 C 67.089844 113.894531 70.039062 121.230469 77.140625 120.140625 C 82.105469 119.371094 86.886719 112.492188 87.960938 106.179688 C 88.507812 102.917969 89.023438 100.078125 89.011719 97.933594 C 89.003906 96.238281 88.921875 95.175781 88.921875 95.175781 L 87.703125 91.492188 L 86.980469 89.339844 C 86.980469 89.339844 85.386719 88.046875 83.597656 86.59375 C 81.371094 84.769531 77.945312 87.40625 77.890625 87.277344 C 77.800781 87.085938 67.824219 85.695312 64.691406 89.6875 C 64.679688 89.699219 64.671875 89.707031 64.671875 89.714844 C 64.386719 90.082031 64.167969 90.449219 64.03125 90.824219 C 63.910156 91.136719 63.855469 91.457031 63.855469 91.777344 C 63.855469 92.390625 63.882812 93.316406 63.921875 94.480469 C 63.949219 94.964844 63.964844 95.496094 64.003906 96.066406 C 64.058594 97.015625 64.140625 98.0625 64.25 99.160156 C 64.46875 101.460938 64.835938 104.027344 65.421875 106.5625 Z M 65.421875 106.5625 " fill-opacity="1" fill-rule="nonzero"/><path fill="#192351" d="M 66.285156 109.925781 C 67.8125 116.621094 70.664062 120.792969 77.214844 120.140625 C 83.480469 119.527344 86.777344 112.832031 87.757812 107.058594 C 87.226562 105.695312 86.675781 102.3125 86.675781 102.3125 C 86.675781 102.3125 85.074219 99.820312 85.09375 99.914062 C 85.304688 100.949219 85.230469 108.019531 82.1875 108.898438 C 78.878906 109.863281 77.699219 110.714844 76.433594 110.695312 C 75.171875 110.675781 74.792969 110.238281 73.6875 110.511719 C 72.570312 110.789062 71.808594 111.375 70.304688 111.117188 C 68.894531 110.886719 67.335938 111.886719 66.285156 109.925781 Z M 66.285156 109.925781 " fill-opacity="1" fill-rule="nonzero"/><path fill="#192351" d="M 89.34375 97.851562 C 89.34375 97.851562 90.535156 81.800781 81.179688 81.800781 C 81.179688 81.800781 73.898438 78.390625 65.84375 83.039062 C 60.550781 86.089844 62.464844 92.492188 62.996094 94.707031 C 63.324219 96.101562 63.894531 97.253906 64.074219 97.183594 C 64.589844 96.972656 64.644531 95.578125 66.523438 96.011719 C 74.136719 97.75 78.910156 92.042969 81.042969 93.289062 C 83.175781 94.535156 87.765625 107.058594 87.765625 107.058594 C 87.765625 107.058594 88.152344 101.140625 89.34375 97.851562 Z M 89.34375 97.851562 " fill-opacity="1" fill-rule="nonzero"/><path fill="#c47249" d="M 87.492188 99.242188 C 87.492188 99.242188 91.707031 96.21875 91.761719 100.601562 C 91.816406 104.980469 87.75 107.066406 87.75 107.066406 Z M 87.492188 99.242188 " fill-opacity="1" fill-rule="nonzero"/><path fill="#192351" d="M 88.621094 100.601562 C 88.621094 100.601562 91.972656 99.417969 88.757812 104.273438 Z M 88.621094 100.601562 " fill-opacity="1" fill-rule="nonzero"/><path fill="#192351" d="M 69.972656 104.410156 C 70.0625 104.726562 70.074219 105.015625 70.007812 105.277344 C 69.941406 105.539062 69.816406 105.695312 69.632812 105.75 C 69.449219 105.800781 69.257812 105.734375 69.0625 105.550781 C 68.867188 105.363281 68.726562 105.113281 68.632812 104.796875 C 68.542969 104.480469 68.53125 104.191406 68.597656 103.929688 C 68.664062 103.667969 68.789062 103.511719 68.976562 103.457031 C 69.160156 103.40625 69.351562 103.472656 69.542969 103.660156 C 69.738281 103.84375 69.882812 104.09375 69.972656 104.410156 Z M 69.972656 104.410156 " fill-opacity="1" fill-rule="nonzero"/><path fill="#192351" d="M 78.0625 103.082031 C 78.152344 103.398438 78.164062 103.6875 78.097656 103.949219 C 78.03125 104.207031 77.90625 104.367188 77.722656 104.417969 C 77.535156 104.472656 77.347656 104.40625 77.152344 104.21875 C 76.957031 104.035156 76.8125 103.78125 76.722656 103.464844 C 76.632812 103.148438 76.621094 102.863281 76.6875 102.601562 C 76.753906 102.339844 76.878906 102.183594 77.066406 102.128906 C 77.25 102.078125 77.4375 102.144531 77.632812 102.328125 C 77.828125 102.515625 77.972656 102.765625 78.0625 103.082031 Z M 78.0625 103.082031 " fill-opacity="1" fill-rule="nonzero"/><path fill="#192351" d="M 70.304688 102.320312 C 70.304688 102.320312 68.207031 100.957031 66.550781 101.984375 Z M 70.304688 102.320312 " fill-opacity="1" fill-rule="nonzero"/><path fill="#192351" d="M 79.972656 99.976562 C 79.804688 99.96875 77.214844 99.683594 75.792969 101.433594 Z M 79.972656 99.976562 " fill-opacity="1" fill-rule="nonzero"/><path fill="#192351" d="M 73.347656 107.9375 C 72.835938 107.9375 72.605469 107.699219 72.503906 107.515625 C 72.203125 106.976562 72.53125 106.132812 73.007812 105.765625 C 73.0625 105.722656 73.136719 105.738281 73.183594 105.792969 C 73.21875 105.847656 73.210938 105.921875 73.15625 105.96875 C 72.722656 106.296875 72.503906 107.011719 72.714844 107.398438 C 72.917969 107.765625 73.476562 107.792969 74.28125 107.480469 C 74.347656 107.453125 74.417969 107.488281 74.4375 107.554688 C 74.464844 107.617188 74.429688 107.691406 74.363281 107.707031 C 73.941406 107.875 73.613281 107.9375 73.347656 107.9375 Z M 73.347656 107.9375 " fill-opacity="1" fill-rule="nonzero"/><path fill="#ffffff" d="M 72.292969 114.257812 C 72.292969 114.257812 72.394531 114.433594 72.625 114.644531 C 73.015625 115.027344 73.785156 115.550781 74.949219 115.414062 C 76.097656 115.277344 76.820312 114.535156 77.195312 114.019531 C 77.398438 113.726562 77.496094 113.515625 77.496094 113.515625 Z M 72.292969 114.257812 " fill-opacity="1" fill-rule="nonzero"/><path fill="#8c52ff" d="M 108.664062 130.375 C 101.859375 143.320312 100.695312 186.011719 102.351562 208.59375 C 87.410156 212.121094 65.9375 213.871094 53.210938 210.351562 C 55.050781 186.230469 52.09375 146.425781 59.101562 125.0625 C 59.101562 125.0625 67.082031 122.761719 72.320312 122.550781 C 67.90625 128.53125 84.460938 130.15625 87.960938 122.550781 C 87.960938 122.550781 104.835938 126.058594 108.664062 130.375 Z M 108.664062 130.375 " fill-opacity="1" fill-rule="nonzero"/><path fill="#192351" d="M 54.894531 151.902344 C 54.894531 151.902344 54.886719 151.902344 54.894531 151.902344 C 54.824219 151.902344 54.777344 151.847656 54.777344 151.785156 C 54.777344 151.710938 55.226562 144.867188 56.152344 141.167969 C 56.167969 141.101562 56.234375 141.066406 56.289062 141.082031 C 56.351562 141.101562 56.390625 141.167969 56.371094 141.222656 C 55.445312 144.914062 55.007812 151.730469 55.007812 151.804688 C 55.007812 151.847656 54.960938 151.902344 54.894531 151.902344 Z M 54.894531 151.902344 " fill-opacity="1" fill-rule="nonzero"/><path fill="#c47249" d="M 130.339844 176.683594 C 132.429688 185.011719 125.171875 188.464844 109.507812 182.621094 C 102.105469 179.863281 96.765625 178.894531 95.023438 177.328125 L 95.984375 168.734375 C 97.285156 169.128906 105.457031 169.328125 112.804688 170.289062 L 106.457031 156.246094 C 108.1875 156.109375 114.847656 154.542969 120.636719 149.171875 C 125.960938 160.789062 128.542969 169.539062 130.339844 176.683594 Z M 130.339844 176.683594 " fill-opacity="1" fill-rule="nonzero"/><path fill="#8c52ff" d="M 107.757812 129.566406 C 107.757812 129.566406 112.578125 131.976562 116.828125 139.195312 C 120.675781 145.738281 124.550781 153.816406 123.753906 154.742188 C 118.851562 160.496094 107.539062 161.175781 107.539062 161.175781 L 102.398438 151.492188 Z M 107.757812 129.566406 " fill-opacity="1" fill-rule="nonzero"/><path fill="#192351" d="M 127.105469 174.78125 C 127.070312 174.78125 127.03125 174.761719 127.015625 174.734375 C 123.625 170.050781 112.90625 170.390625 112.804688 170.402344 C 112.742188 170.402344 112.695312 170.355469 112.6875 170.289062 C 112.6875 170.226562 112.730469 170.171875 112.796875 170.171875 C 112.824219 170.171875 115.554688 170.078125 118.679688 170.566406 C 121.574219 171.023438 125.394531 172.09375 127.207031 174.597656 C 127.242188 174.652344 127.234375 174.726562 127.179688 174.761719 C 127.160156 174.769531 127.132812 174.78125 127.105469 174.78125 Z M 127.105469 174.78125 " fill-opacity="1" fill-rule="nonzero"/><path fill="#c47249" d="M 85.265625 177.792969 C 86.226562 177.160156 87.402344 176.914062 91.386719 177.492188 C 93.785156 177.839844 97.625 176.960938 98.667969 176.730469 L 98.285156 169.335938 C 96.738281 168.933594 94.21875 167.277344 92.339844 166.386719 C 89.984375 165.277344 87.402344 163.382812 85.421875 164.0625 C 82.058594 165.195312 78.066406 167.183594 78.558594 168.441406 C 79.074219 169.695312 83.03125 168.457031 83.03125 168.457031 C 83.03125 168.457031 80.996094 169.574219 81.253906 170.933594 C 81.511719 172.289062 83.296875 172.738281 83.296875 172.738281 C 82.335938 174.148438 84.066406 175.457031 84.066406 175.457031 C 83.277344 176.730469 84.496094 178.289062 85.265625 177.792969 Z M 85.265625 177.792969 " fill-opacity="1" fill-rule="nonzero"/><path fill="#192351" d="M 84.074219 175.578125 C 84.039062 175.578125 84.011719 175.558594 83.984375 175.53125 C 83.945312 175.484375 83.945312 175.410156 84.003906 175.367188 C 84.066406 175.320312 85.503906 174.128906 87.765625 173.992188 C 87.765625 173.992188 87.765625 173.992188 87.777344 173.992188 C 87.839844 173.992188 87.886719 174.039062 87.894531 174.101562 C 87.894531 174.164062 87.851562 174.222656 87.785156 174.222656 C 85.605469 174.359375 84.167969 175.53125 84.15625 175.539062 C 84.128906 175.566406 84.101562 175.578125 84.074219 175.578125 Z M 84.074219 175.578125 " fill-opacity="1" fill-rule="nonzero"/><path fill="#192351" d="M 83.304688 172.855469 C 83.269531 172.855469 83.242188 172.847656 83.222656 172.820312 C 83.175781 172.773438 83.1875 172.699219 83.234375 172.652344 C 83.304688 172.589844 85.109375 171.015625 87.246094 170.667969 C 87.308594 170.648438 87.363281 170.695312 87.382812 170.757812 C 87.390625 170.820312 87.347656 170.875 87.289062 170.894531 C 85.21875 171.234375 83.40625 172.820312 83.386719 172.828125 C 83.359375 172.847656 83.332031 172.855469 83.304688 172.855469 Z M 83.304688 172.855469 " fill-opacity="1" fill-rule="nonzero"/><path fill="#192351" d="M 83.039062 168.578125 C 83.003906 168.578125 82.957031 168.558594 82.9375 168.523438 C 82.910156 168.46875 82.929688 168.394531 82.984375 168.367188 C 83.003906 168.359375 84.863281 167.320312 87.089844 167.320312 C 87.164062 167.320312 87.246094 167.359375 87.234375 167.441406 C 87.234375 167.503906 87.179688 167.558594 87.117188 167.558594 C 87.109375 167.558594 87.089844 167.558594 87.082031 167.558594 C 84.917969 167.558594 83.113281 168.558594 83.09375 168.566406 C 83.078125 168.566406 83.058594 168.578125 83.039062 168.578125 Z M 83.039062 168.578125 " fill-opacity="1" fill-rule="nonzero"/><path fill="#192351" d="M 92.457031 178.5625 L 60.210938 178.5625 L 60.210938 175.941406 L 90.160156 175.941406 C 91.421875 175.941406 92.449219 176.96875 92.449219 178.234375 L 92.449219 178.5625 Z M 92.457031 178.5625 " fill-opacity="1" fill-rule="nonzero"/><path fill="#192351" d="M 26.742188 178.5625 L 80.714844 178.5625 L 75.28125 143.714844 L 21.308594 143.714844 Z M 26.742188 178.5625 " fill-opacity="1" fill-rule="nonzero"/><path fill="#ffffff" d="M 53.914062 161.84375 C 54.011719 162.378906 54.011719 162.910156 53.914062 163.4375 C 53.816406 163.96875 53.625 164.453125 53.347656 164.894531 C 53.070312 165.335938 52.71875 165.699219 52.304688 165.988281 C 51.886719 166.273438 51.429688 166.464844 50.9375 166.554688 C 50.445312 166.644531 49.953125 166.628906 49.460938 166.507812 C 48.96875 166.386719 48.515625 166.167969 48.097656 165.855469 C 47.679688 165.539062 47.332031 165.152344 47.054688 164.695312 C 46.773438 164.234375 46.585938 163.738281 46.488281 163.207031 C 46.390625 162.671875 46.390625 162.140625 46.488281 161.613281 C 46.585938 161.082031 46.773438 160.597656 47.054688 160.15625 C 47.332031 159.714844 47.679688 159.351562 48.097656 159.0625 C 48.515625 158.777344 48.972656 158.585938 49.464844 158.496094 C 49.957031 158.40625 50.449219 158.421875 50.941406 158.542969 C 51.433594 158.664062 51.886719 158.882812 52.304688 159.195312 C 52.722656 159.511719 53.070312 159.898438 53.347656 160.355469 C 53.628906 160.816406 53.816406 161.3125 53.914062 161.84375 Z M 53.914062 161.84375 " fill-opacity="1" fill-rule="nonzero"/><path fill="#c47249" d="M 36.070312 178.535156 C 36.070312 178.535156 36.519531 178.324219 36.308594 176.300781 C 36.097656 174.285156 36.71875 172.304688 38.664062 172.527344 C 38.664062 172.527344 40.320312 170.519531 42.050781 172.507812 C 42.050781 172.507812 44.058594 171.601562 45.378906 173.269531 C 45.378906 173.269531 47.035156 172.34375 47.871094 173.570312 C 48.703125 174.796875 49.117188 178.351562 47.878906 179.230469 C 46.632812 180.113281 43.453125 180.597656 40.539062 180.550781 C 37.628906 180.503906 36.070312 178.535156 36.070312 178.535156 Z M 36.070312 178.535156 " fill-opacity="1" fill-rule="nonzero"/><path fill="#192351" d="M 38.664062 178.125 C 38.644531 178.125 38.625 178.113281 38.605469 178.105469 C 38.550781 178.070312 38.535156 178.003906 38.5625 177.949219 C 39.714844 175.96875 38.5625 172.589844 38.550781 172.5625 C 38.535156 172.5 38.5625 172.433594 38.625 172.414062 C 38.691406 172.398438 38.753906 172.425781 38.773438 172.488281 C 38.816406 172.636719 39.972656 176.007812 38.773438 178.070312 C 38.746094 178.105469 38.699219 178.125 38.664062 178.125 Z M 38.664062 178.125 " fill-opacity="1" fill-rule="nonzero"/><path fill="#192351" d="M 42.050781 178.296875 C 42.035156 178.296875 42.023438 178.296875 42.007812 178.289062 C 41.949219 178.261719 41.921875 178.195312 41.941406 178.132812 C 42.949219 175.824219 41.941406 172.570312 41.933594 172.535156 C 41.914062 172.472656 41.949219 172.40625 42.007812 172.386719 C 42.070312 172.371094 42.132812 172.40625 42.152344 172.460938 C 42.199219 172.597656 43.195312 175.84375 42.152344 178.222656 C 42.144531 178.269531 42.097656 178.296875 42.050781 178.296875 Z M 42.050781 178.296875 " fill-opacity="1" fill-rule="nonzero"/><path fill="#192351" d="M 44.964844 178.601562 C 44.945312 178.601562 44.917969 178.589844 44.902344 178.582031 C 44.847656 178.546875 44.835938 178.472656 44.863281 178.425781 C 46.074219 176.585938 45.269531 173.324219 45.257812 173.296875 C 45.238281 173.230469 45.277344 173.167969 45.339844 173.15625 C 45.40625 173.140625 45.46875 173.175781 45.476562 173.242188 C 45.515625 173.378906 46.320312 176.628906 45.058594 178.554688 C 45.039062 178.582031 45 178.601562 44.964844 178.601562 Z M 44.964844 178.601562 " fill-opacity="1" fill-rule="nonzero"/><path fill="#192351" d="M 307.871094 250.554688 L 144.707031 250.554688 C 141.644531 250.554688 139.621094 247.898438 140.1875 244.617188 L 168.003906 82.128906 C 168.507812 79.1875 171.292969 76.578125 174.234375 76.277344 L 330.207031 60.628906 C 333.714844 60.28125 336.269531 62.578125 335.894531 65.785156 L 315.320312 244.003906 C 314.898438 247.621094 311.554688 250.554688 307.871094 250.554688 Z M 307.871094 250.554688 " fill-opacity="1" fill-rule="nonzero"/><path fill="#ffffff" d="M 303.554688 246.246094 L 140.390625 246.246094 C 137.332031 246.246094 135.304688 243.589844 135.875 240.3125 L 163.6875 77.824219 C 164.191406 74.882812 166.976562 72.273438 169.917969 71.96875 L 325.890625 56.324219 C 329.398438 55.972656 331.957031 58.273438 331.578125 61.480469 L 311.003906 239.699219 C 310.589844 243.316406 307.246094 246.246094 303.554688 246.246094 Z M 303.554688 246.246094 " fill-opacity="1" fill-rule="nonzero"/><path fill="#d0c3f1" d="M 302.035156 237.207031 L 143.953125 237.976562 L 168.058594 95.113281 L 320.429688 81.835938 Z M 302.035156 237.207031 " fill-opacity="1" fill-rule="nonzero"/><path fill="#8c52ff" d="M 175.910156 82.488281 C 175.679688 83.863281 174.378906 85.070312 173.003906 85.199219 C 171.632812 85.328125 170.714844 84.320312 170.945312 82.953125 C 171.171875 81.589844 172.464844 80.378906 173.839844 80.242188 C 175.203125 80.113281 176.128906 81.113281 175.910156 82.488281 Z M 175.910156 82.488281 " fill-opacity="1" fill-rule="nonzero"/><path fill="#8c52ff" d="M 193.296875 80.847656 C 193.078125 82.230469 191.757812 83.457031 190.355469 83.585938 C 188.957031 83.714844 188.011719 82.699219 188.230469 81.324219 C 188.453125 79.949219 189.769531 78.722656 191.164062 78.585938 C 192.566406 78.457031 193.515625 79.464844 193.296875 80.847656 Z M 193.296875 80.847656 " fill-opacity="1" fill-rule="nonzero"/><path fill="#8c52ff" d="M 184.558594 81.671875 C 184.328125 83.046875 183.027344 84.273438 181.636719 84.402344 C 180.25 84.53125 179.316406 83.523438 179.546875 82.148438 C 179.777344 80.773438 181.078125 79.554688 182.460938 79.425781 C 183.84375 79.289062 184.785156 80.296875 184.558594 81.671875 Z M 184.558594 81.671875 " fill-opacity="1" fill-rule="nonzero"/><path fill="#8c52ff" d="M 274.496094 208.925781 L 175.269531 210.929688 L 177.824219 194.953125 L 276.65625 192.050781 Z M 274.496094 208.925781 " fill-opacity="1" fill-rule="nonzero"/><path fill="#ffffff" d="M 213.921875 197.242188 L 213.234375 203.757812 L 215.714844 203.757812 L 215.53125 205.515625 L 210.832031 205.515625 L 211.703125 197.242188 Z M 213.921875 197.242188 " fill-opacity="1" fill-rule="nonzero"/><path fill="#ffffff" d="M 220.214844 205.597656 C 217.949219 205.597656 216.300781 203.839844 216.558594 201.347656 C 216.824219 198.855469 218.839844 197.113281 221.101562 197.113281 C 223.375 197.113281 225.003906 198.863281 224.75 201.347656 C 224.484375 203.839844 222.476562 205.597656 220.214844 205.597656 Z M 220.441406 203.464844 C 221.589844 203.464844 222.367188 202.628906 222.496094 201.355469 C 222.632812 200.054688 222.027344 199.230469 220.882812 199.230469 C 219.726562 199.230469 218.957031 200.054688 218.820312 201.355469 C 218.691406 202.628906 219.28125 203.464844 220.441406 203.464844 Z M 220.441406 203.464844 " fill-opacity="1" fill-rule="nonzero"/><path fill="#ffffff" d="M 233.378906 199.964844 L 230.988281 199.964844 C 230.785156 199.535156 230.355469 199.285156 229.742188 199.285156 C 228.625 199.285156 227.855469 200.09375 227.726562 201.367188 C 227.578125 202.785156 228.203125 203.546875 229.511719 203.546875 C 230.28125 203.546875 230.886719 203.171875 231.289062 202.457031 L 229.0625 202.457031 L 229.238281 200.796875 L 233.378906 200.796875 L 233.140625 203.023438 C 232.535156 204.234375 231.160156 205.570312 229.082031 205.570312 C 226.636719 205.570312 225.207031 203.832031 225.472656 201.355469 C 225.730469 198.890625 227.507812 197.152344 229.953125 197.152344 C 231.976562 197.160156 233.242188 198.242188 233.378906 199.964844 Z M 233.378906 199.964844 " fill-opacity="1" fill-rule="nonzero"/><path fill="#ffffff" d="M 234.753906 197.242188 L 236.96875 197.242188 L 236.101562 205.515625 L 233.882812 205.515625 Z M 234.753906 197.242188 " fill-opacity="1" fill-rule="nonzero"/><path fill="#ffffff" d="M 245.636719 197.242188 L 244.765625 205.515625 L 242.550781 205.515625 L 240.074219 200.890625 L 239.589844 205.515625 L 237.375 205.515625 L 238.242188 197.242188 L 240.460938 197.242188 L 242.925781 201.925781 L 243.417969 197.242188 Z M 245.636719 197.242188 " fill-opacity="1" fill-rule="nonzero"/><path fill="#ffffff" d="M 255.648438 118.335938 C 254.25 128.644531 244.484375 137.566406 233.945312 138.199219 C 223.53125 138.820312 216.402344 131.089844 217.894531 120.984375 C 219.378906 110.953125 228.851562 102.203125 239.167969 101.371094 C 249.605469 100.535156 257.035156 108.101562 255.648438 118.335938 Z M 255.648438 118.335938 " fill-opacity="1" fill-rule="nonzero"/><path fill="#192351" d="M 232.765625 138.574219 C 228.09375 138.574219 223.996094 136.898438 221.140625 133.773438 C 218.097656 130.457031 216.824219 125.894531 217.558594 120.9375 C 219.058594 110.804688 228.734375 101.882812 239.132812 101.046875 C 244.390625 100.628906 249.015625 102.25 252.214844 105.621094 C 255.3125 108.890625 256.640625 113.417969 255.972656 118.382812 C 254.550781 128.851562 244.675781 137.886719 233.957031 138.535156 C 233.5625 138.554688 233.160156 138.574219 232.765625 138.574219 Z M 240.746094 101.644531 C 240.230469 101.644531 239.71875 101.664062 239.1875 101.707031 C 229.082031 102.523438 219.664062 111.191406 218.207031 121.039062 C 217.503906 125.792969 218.71875 130.15625 221.625 133.332031 C 224.582031 136.566406 228.964844 138.179688 233.917969 137.878906 C 244.335938 137.253906 253.9375 128.46875 255.3125 118.300781 C 255.953125 113.542969 254.6875 109.203125 251.730469 106.078125 C 249.007812 103.191406 245.140625 101.644531 240.746094 101.644531 Z M 240.746094 101.644531 " fill-opacity="1" fill-rule="nonzero"/><path fill="#192351" d="M 243.417969 114.609375 C 242.945312 117.933594 239.78125 120.835938 236.367188 121.066406 C 232.964844 121.304688 230.613281 118.804688 231.097656 115.496094 C 231.582031 112.199219 234.714844 109.320312 238.105469 109.066406 C 241.503906 108.808594 243.894531 111.289062 243.417969 114.609375 Z M 243.417969 114.609375 " fill-opacity="1" fill-rule="nonzero"/><path fill="#192351" d="M 245.234375 129.707031 L 224.921875 131.015625 L 225.675781 125.921875 C 225.921875 124.253906 227.488281 122.816406 229.183594 122.695312 L 243.253906 121.726562 C 244.976562 121.605469 246.1875 122.871094 245.949219 124.558594 Z M 245.234375 129.707031 " fill-opacity="1" fill-rule="nonzero"/><path fill="#ffffff" d="M 277.691406 177.949219 L 180.671875 181.539062 L 182.78125 168.320312 L 279.488281 164.015625 Z M 277.691406 177.949219 " fill-opacity="1" fill-rule="nonzero"/><path fill="#192351" d="M 216.75 173.203125 L 215.878906 174.542969 L 213.910156 174.542969 L 215.90625 171.785156 L 214.394531 169.226562 L 216.410156 169.226562 L 217.191406 170.566406 L 218.070312 169.226562 L 220.039062 169.226562 L 218.007812 171.941406 L 219.546875 174.550781 L 217.53125 174.550781 Z M 216.75 173.203125 " fill-opacity="1" fill-rule="nonzero"/><path fill="#192351" d="M 222.496094 173.203125 L 221.625 174.542969 L 219.65625 174.542969 L 221.652344 171.785156 L 220.140625 169.226562 L 222.15625 169.226562 L 222.933594 170.566406 L 223.8125 169.226562 L 225.785156 169.226562 L 223.75 171.941406 L 225.289062 174.550781 L 223.273438 174.550781 Z M 222.496094 173.203125 " fill-opacity="1" fill-rule="nonzero"/><path fill="#192351" d="M 228.238281 173.203125 L 227.367188 174.542969 L 225.398438 174.542969 L 227.394531 171.785156 L 225.886719 169.226562 L 227.898438 169.226562 L 228.679688 170.566406 L 229.558594 169.226562 L 231.527344 169.226562 L 229.496094 171.941406 L 231.035156 174.550781 L 229.019531 174.550781 Z M 228.238281 173.203125 " fill-opacity="1" fill-rule="nonzero"/><path fill="#192351" d="M 233.984375 173.203125 L 233.113281 174.542969 L 231.144531 174.542969 L 233.140625 171.785156 L 231.628906 169.226562 L 233.644531 169.226562 L 234.421875 170.566406 L 235.304688 169.226562 L 237.273438 169.226562 L 235.238281 171.941406 L 236.777344 174.550781 L 234.761719 174.550781 Z M 233.984375 173.203125 " fill-opacity="1" fill-rule="nonzero"/><path fill="#192351" d="M 239.726562 173.203125 L 238.855469 174.542969 L 236.886719 174.542969 L 238.886719 171.785156 L 237.375 169.226562 L 239.390625 169.226562 L 240.167969 170.566406 L 241.046875 169.226562 L 243.015625 169.226562 L 240.984375 171.941406 L 242.523438 174.550781 L 240.507812 174.550781 Z M 239.726562 173.203125 " fill-opacity="1" fill-rule="nonzero"/><path fill="#192351" d="M 245.472656 173.203125 L 244.601562 174.542969 L 242.632812 174.542969 L 244.628906 171.785156 L 243.117188 169.226562 L 245.132812 169.226562 L 245.910156 170.566406 L 246.792969 169.226562 L 248.761719 169.226562 L 246.726562 171.941406 L 248.265625 174.550781 L 246.25 174.550781 Z M 245.472656 173.203125 " fill-opacity="1" fill-rule="nonzero"/><path fill="#ffffff" d="M 280.332031 157.402344 L 183.789062 162.046875 L 185.875 149 L 282.097656 143.660156 Z M 280.332031 157.402344 " fill-opacity="1" fill-rule="nonzero"/><path fill="#d0c3f1" d="M 255.410156 152.792969 L 208.40625 155.203125 L 208.6875 153.359375 L 255.667969 150.90625 Z M 255.410156 152.792969 " fill-opacity="1" fill-rule="nonzero"/><path fill="#192351" d="M 328.226562 220.765625 C 328.925781 221.480469 329.582031 222.234375 330.203125 223.019531 C 330.824219 223.808594 331.402344 224.625 331.9375 225.472656 C 332.476562 226.320312 332.96875 227.195312 333.414062 228.09375 C 333.863281 228.996094 334.261719 229.917969 334.617188 230.863281 C 334.972656 231.808594 335.277344 232.773438 335.535156 233.753906 C 335.792969 234.734375 336.003906 235.726562 336.160156 236.734375 C 336.320312 237.738281 336.429688 238.753906 336.488281 239.777344 C 336.546875 240.800781 336.554688 241.824219 336.511719 242.855469 C 336.46875 243.882812 336.375 244.910156 336.230469 245.933594 C 336.085938 246.960938 335.894531 247.980469 335.652344 248.992188 C 335.40625 250.003906 335.117188 251.003906 334.777344 251.992188 C 334.4375 252.980469 334.050781 253.953125 333.617188 254.910156 C 333.183594 255.867188 332.703125 256.800781 332.179688 257.714844 C 331.65625 258.628906 331.09375 259.519531 330.484375 260.382812 C 329.875 261.246094 329.230469 262.078125 328.542969 262.882812 C 327.855469 263.6875 327.132812 264.457031 326.375 265.195312 C 325.617188 265.933594 324.828125 266.632812 324.003906 267.296875 C 323.179688 267.960938 322.328125 268.585938 321.449219 269.167969 C 320.570312 269.75 319.664062 270.292969 318.734375 270.789062 C 317.808594 271.289062 316.859375 271.738281 315.890625 272.144531 C 314.925781 272.554688 313.941406 272.914062 312.941406 273.226562 C 311.945312 273.539062 310.9375 273.800781 309.917969 274.015625 C 308.902344 274.230469 307.878906 274.394531 306.847656 274.507812 C 305.820312 274.625 304.789062 274.6875 303.761719 274.703125 C 302.730469 274.71875 301.703125 274.679688 300.683594 274.59375 C 299.664062 274.507812 298.652344 274.371094 297.652344 274.183594 C 296.648438 273.996094 295.660156 273.761719 294.6875 273.476562 C 293.714844 273.191406 292.761719 272.859375 291.828125 272.476562 C 290.890625 272.097656 289.980469 271.667969 289.09375 271.195312 C 288.203125 270.722656 287.34375 270.207031 286.511719 269.648438 C 285.679688 269.089844 284.878906 268.488281 284.109375 267.84375 C 283.339844 267.203125 282.609375 266.523438 281.910156 265.804688 C 281.210938 265.089844 280.554688 264.335938 279.933594 263.550781 C 279.3125 262.765625 278.734375 261.945312 278.199219 261.097656 C 277.660156 260.25 277.167969 259.378906 276.722656 258.476562 C 276.273438 257.574219 275.875 256.652344 275.519531 255.707031 C 275.164062 254.761719 274.859375 253.800781 274.601562 252.820312 C 274.34375 251.839844 274.132812 250.84375 273.976562 249.839844 C 273.816406 248.832031 273.707031 247.816406 273.648438 246.792969 C 273.589844 245.773438 273.582031 244.746094 273.625 243.71875 C 273.667969 242.6875 273.761719 241.660156 273.90625 240.636719 C 274.050781 239.609375 274.242188 238.59375 274.484375 237.578125 C 274.730469 236.566406 275.019531 235.566406 275.359375 234.578125 C 275.699219 233.589844 276.085938 232.617188 276.519531 231.660156 C 276.953125 230.707031 277.433594 229.769531 277.957031 228.855469 C 278.480469 227.941406 279.042969 227.054688 279.652344 226.191406 C 280.261719 225.328125 280.90625 224.492188 281.59375 223.6875 C 282.28125 222.882812 283.003906 222.113281 283.761719 221.375 C 284.519531 220.636719 285.308594 219.9375 286.132812 219.273438 C 286.957031 218.609375 287.808594 217.984375 288.6875 217.402344 C 289.566406 216.820312 290.472656 216.277344 291.402344 215.78125 C 292.328125 215.285156 293.277344 214.832031 294.246094 214.425781 C 295.210938 214.019531 296.195312 213.660156 297.195312 213.347656 C 298.191406 213.035156 299.199219 212.769531 300.21875 212.554688 C 301.234375 212.339844 302.261719 212.175781 303.289062 212.0625 C 304.316406 211.945312 305.347656 211.882812 306.375 211.867188 C 307.40625 211.855469 308.433594 211.890625 309.453125 211.976562 C 310.472656 212.0625 311.484375 212.199219 312.484375 212.386719 C 313.488281 212.574219 314.476562 212.808594 315.449219 213.09375 C 316.421875 213.378906 317.375 213.714844 318.308594 214.09375 C 319.246094 214.476562 320.15625 214.902344 321.042969 215.375 C 321.933594 215.847656 322.792969 216.363281 323.625 216.921875 C 324.457031 217.484375 325.257812 218.082031 326.027344 218.726562 C 326.796875 219.367188 327.527344 220.046875 328.226562 220.765625 Z M 328.226562 220.765625 " fill-opacity="1" fill-rule="nonzero"/><path fill="#ffffff" d="M 324.039062 218.410156 C 324.738281 219.125 325.394531 219.878906 326.015625 220.664062 C 326.636719 221.453125 327.214844 222.269531 327.75 223.117188 C 328.285156 223.964844 328.777344 224.839844 329.226562 225.738281 C 329.675781 226.640625 330.074219 227.5625 330.429688 228.507812 C 330.785156 229.453125 331.089844 230.417969 331.347656 231.398438 C 331.605469 232.378906 331.816406 233.371094 331.972656 234.378906 C 332.132812 235.382812 332.242188 236.398438 332.300781 237.421875 C 332.359375 238.445312 332.363281 239.46875 332.324219 240.5 C 332.28125 241.527344 332.1875 242.554688 332.042969 243.578125 C 331.898438 244.605469 331.707031 245.625 331.460938 246.636719 C 331.21875 247.648438 330.929688 248.648438 330.589844 249.636719 C 330.25 250.625 329.863281 251.597656 329.429688 252.554688 C 328.996094 253.511719 328.515625 254.445312 327.992188 255.359375 C 327.46875 256.273438 326.902344 257.164062 326.296875 258.027344 C 325.6875 258.890625 325.042969 259.722656 324.355469 260.527344 C 323.667969 261.332031 322.945312 262.101562 322.1875 262.839844 C 321.429688 263.578125 320.640625 264.277344 319.816406 264.941406 C 318.992188 265.605469 318.140625 266.230469 317.261719 266.8125 C 316.378906 267.394531 315.476562 267.9375 314.546875 268.433594 C 313.621094 268.933594 312.671875 269.382812 311.703125 269.789062 C 310.734375 270.199219 309.753906 270.558594 308.753906 270.871094 C 307.757812 271.183594 306.75 271.445312 305.730469 271.660156 C 304.710938 271.875 303.6875 272.039062 302.660156 272.152344 C 301.632812 272.269531 300.601562 272.332031 299.570312 272.347656 C 298.542969 272.363281 297.515625 272.324219 296.496094 272.238281 C 295.476562 272.152344 294.464844 272.015625 293.464844 271.828125 C 292.460938 271.640625 291.472656 271.40625 290.5 271.121094 C 289.527344 270.835938 288.574219 270.503906 287.640625 270.121094 C 286.703125 269.742188 285.792969 269.3125 284.90625 268.839844 C 284.015625 268.367188 283.15625 267.851562 282.324219 267.292969 C 281.492188 266.734375 280.691406 266.132812 279.921875 265.488281 C 279.152344 264.847656 278.421875 264.167969 277.722656 263.449219 C 277.023438 262.734375 276.367188 261.980469 275.746094 261.195312 C 275.125 260.410156 274.546875 259.589844 274.011719 258.742188 C 273.472656 257.894531 272.980469 257.023438 272.535156 256.121094 C 272.085938 255.21875 271.6875 254.296875 271.332031 253.351562 C 270.976562 252.40625 270.671875 251.445312 270.414062 250.464844 C 270.15625 249.484375 269.945312 248.488281 269.789062 247.484375 C 269.628906 246.476562 269.519531 245.460938 269.460938 244.4375 C 269.402344 243.417969 269.394531 242.390625 269.4375 241.363281 C 269.480469 240.332031 269.574219 239.304688 269.71875 238.28125 C 269.863281 237.253906 270.054688 236.238281 270.296875 235.222656 C 270.539062 234.210938 270.832031 233.210938 271.171875 232.222656 C 271.511719 231.234375 271.898438 230.261719 272.332031 229.304688 C 272.765625 228.351562 273.246094 227.414062 273.769531 226.5 C 274.292969 225.585938 274.855469 224.699219 275.464844 223.835938 C 276.074219 222.972656 276.71875 222.136719 277.40625 221.332031 C 278.09375 220.527344 278.816406 219.757812 279.574219 219.019531 C 280.332031 218.28125 281.121094 217.582031 281.945312 216.917969 C 282.769531 216.253906 283.621094 215.628906 284.5 215.046875 C 285.378906 214.464844 286.285156 213.921875 287.214844 213.425781 C 288.140625 212.929688 289.089844 212.476562 290.058594 212.070312 C 291.023438 211.664062 292.007812 211.304688 293.003906 210.992188 C 294.003906 210.679688 295.011719 210.414062 296.03125 210.199219 C 297.046875 209.984375 298.070312 209.820312 299.101562 209.707031 C 300.128906 209.589844 301.160156 209.527344 302.1875 209.511719 C 303.21875 209.5 304.242188 209.535156 305.265625 209.621094 C 306.285156 209.707031 307.296875 209.84375 308.296875 210.03125 C 309.300781 210.21875 310.285156 210.453125 311.257812 210.738281 C 312.234375 211.023438 313.1875 211.359375 314.121094 211.738281 C 315.054688 212.121094 315.96875 212.546875 316.855469 213.019531 C 317.742188 213.492188 318.605469 214.007812 319.4375 214.566406 C 320.269531 215.128906 321.070312 215.726562 321.839844 216.371094 C 322.605469 217.011719 323.339844 217.691406 324.039062 218.410156 Z M 324.039062 218.410156 " fill-opacity="1" fill-rule="nonzero"/><path fill="#192351" d="M 299.121094 272.871094 C 290.59375 272.871094 282.75 269.554688 277.050781 263.515625 C 271.335938 257.46875 268.449219 249.4375 268.925781 240.886719 C 269.90625 223.289062 285.023438 208.96875 302.621094 208.96875 C 311.148438 208.96875 318.992188 212.285156 324.691406 218.324219 C 330.40625 224.371094 333.292969 232.40625 332.816406 240.953125 C 331.835938 258.550781 316.71875 272.871094 299.121094 272.871094 Z M 302.621094 210.023438 C 285.570312 210.023438 270.921875 223.894531 269.980469 240.953125 C 269.519531 249.207031 272.304688 256.964844 277.820312 262.792969 C 283.328125 268.609375 290.894531 271.816406 299.128906 271.816406 C 316.179688 271.816406 330.828125 257.945312 331.773438 240.898438 C 332.230469 232.644531 329.445312 224.882812 323.929688 219.058594 C 318.425781 213.230469 310.855469 210.023438 302.621094 210.023438 Z M 302.621094 210.023438 " fill-opacity="1" fill-rule="nonzero"/><path fill="#8c52ff" d="M 285.460938 234.980469 L 285.09375 234.21875 L 301.722656 225.597656 L 301.914062 225.707031 L 317.390625 234.21875 L 316.941406 234.980469 L 301.667969 226.585938 Z M 285.460938 234.980469 " fill-opacity="1" fill-rule="nonzero"/><path fill="#8c52ff" d="M 312.964844 234.59375 L 311.765625 256.214844 L 315.5 256.214844 L 316.703125 234.59375 Z M 316.105469 236.628906 L 315.125 254.210938 L 314.613281 254.210938 L 315.59375 236.628906 Z M 314.980469 236.628906 L 314 254.210938 L 313.484375 254.210938 L 314.464844 236.628906 Z M 313.851562 236.628906 L 312.871094 254.210938 L 312.359375 254.210938 L 313.339844 236.628906 Z M 313.851562 236.628906 " fill-opacity="1" fill-rule="nonzero"/><path fill="#8c52ff" d="M 317.105469 235.667969 L 312.449219 235.667969 L 312.515625 234.59375 L 317.160156 234.59375 Z M 317.105469 235.667969 " fill-opacity="1" fill-rule="nonzero"/><path fill="#8c52ff" d="M 315.960938 256.242188 L 311.304688 256.242188 L 311.371094 255.179688 L 316.015625 255.179688 Z M 315.960938 256.242188 " fill-opacity="1" fill-rule="nonzero"/><path fill="#8c52ff" d="M 306.910156 234.59375 L 305.707031 256.214844 L 309.445312 256.214844 L 310.644531 234.59375 Z M 310.058594 236.628906 L 309.078125 254.210938 L 308.566406 254.210938 L 309.546875 236.628906 Z M 308.925781 236.628906 L 307.945312 254.210938 L 307.429688 254.210938 L 308.410156 236.628906 Z M 307.796875 236.628906 L 306.816406 254.210938 L 306.304688 254.210938 L 307.285156 236.628906 Z M 307.796875 236.628906 " fill-opacity="1" fill-rule="nonzero"/><path fill="#8c52ff" d="M 311.050781 235.667969 L 306.394531 235.667969 L 306.460938 234.59375 L 311.105469 234.59375 Z M 311.050781 235.667969 " fill-opacity="1" fill-rule="nonzero"/><path fill="#8c52ff" d="M 309.902344 256.242188 L 305.25 256.242188 L 305.3125 255.179688 L 309.960938 255.179688 Z M 309.902344 256.242188 " fill-opacity="1" fill-rule="nonzero"/><path fill="#8c52ff" d="M 292.636719 234.59375 L 291.433594 256.214844 L 295.171875 256.214844 L 296.371094 234.59375 Z M 295.777344 236.628906 L 294.796875 254.210938 L 294.285156 254.210938 L 295.265625 236.628906 Z M 294.652344 236.628906 L 293.671875 254.210938 L 293.15625 254.210938 L 294.136719 236.628906 Z M 293.523438 236.628906 L 292.542969 254.210938 L 292.03125 254.210938 L 293.011719 236.628906 Z M 293.523438 236.628906 " fill-opacity="1" fill-rule="nonzero"/><path fill="#8c52ff" d="M 296.765625 235.667969 L 292.121094 235.667969 L 292.175781 234.59375 L 296.832031 234.59375 Z M 296.765625 235.667969 " fill-opacity="1" fill-rule="nonzero"/><path fill="#8c52ff" d="M 295.621094 256.242188 L 290.976562 256.242188 L 291.03125 255.179688 L 295.6875 255.179688 Z M 295.621094 256.242188 " fill-opacity="1" fill-rule="nonzero"/><path fill="#8c52ff" d="M 286.578125 234.59375 L 285.378906 256.214844 L 289.117188 256.214844 L 290.316406 234.59375 Z M 288.59375 236.628906 L 287.613281 254.210938 L 287.101562 254.210938 L 288.082031 236.628906 Z M 287.46875 236.628906 L 286.488281 254.210938 L 285.972656 254.210938 L 286.953125 236.628906 Z M 287.46875 236.628906 " fill-opacity="1" fill-rule="nonzero"/><path fill="#8c52ff" d="M 290.710938 235.667969 L 286.066406 235.667969 L 286.121094 234.59375 L 290.773438 234.59375 Z M 290.710938 235.667969 " fill-opacity="1" fill-rule="nonzero"/><path fill="#8c52ff" d="M 289.566406 256.242188 L 284.921875 256.242188 L 284.976562 255.179688 L 289.628906 255.179688 Z M 289.566406 256.242188 " fill-opacity="1" fill-rule="nonzero"/><path fill="#8c52ff" d="M 303.566406 245.835938 L 302.996094 256.070312 C 302.996094 256.152344 302.921875 256.214844 302.839844 256.214844 L 302.300781 256.214844 C 302.363281 256.214844 302.417969 256.160156 302.417969 256.097656 L 302.988281 245.898438 C 303.050781 244.691406 302.125 243.710938 300.917969 243.710938 C 299.707031 243.710938 298.671875 244.691406 298.597656 245.898438 L 298.03125 256.097656 C 298.03125 256.160156 298.078125 256.214844 298.140625 256.214844 L 297.601562 256.214844 C 297.519531 256.214844 297.464844 256.152344 297.464844 256.070312 L 298.03125 245.835938 C 298.113281 244.316406 299.421875 243.078125 300.945312 243.078125 C 302.464844 243.078125 303.648438 244.316406 303.566406 245.835938 Z M 303.566406 245.835938 " fill-opacity="1" fill-rule="nonzero"/><path fill="#8c52ff" d="M 301.339844 236.171875 C 299.816406 236.171875 298.507812 237.40625 298.425781 238.929688 L 298.332031 240.59375 C 298.332031 240.675781 298.386719 240.742188 298.46875 240.742188 L 303.703125 240.742188 C 303.785156 240.742188 303.847656 240.675781 303.859375 240.59375 L 303.949219 238.929688 C 304.03125 237.40625 302.859375 236.171875 301.339844 236.171875 Z M 301.339844 236.171875 " fill-opacity="1" fill-rule="nonzero"/><path fill="#8c52ff" d="M 306.488281 242.234375 L 295.953125 242.234375 L 295.96875 241.8125 L 306.515625 241.8125 Z M 306.488281 242.234375 " fill-opacity="1" fill-rule="nonzero"/><path fill="#8c52ff" d="M 317.335938 235.089844 L 285.050781 235.089844 C 284.792969 235.089844 284.601562 234.886719 284.617188 234.632812 L 284.617188 234.605469 C 284.636719 234.347656 284.847656 234.144531 285.105469 234.144531 L 317.390625 234.144531 C 317.644531 234.144531 317.839844 234.347656 317.820312 234.605469 L 317.820312 234.632812 C 317.800781 234.886719 317.589844 235.089844 317.335938 235.089844 Z M 317.335938 235.089844 " fill-opacity="1" fill-rule="nonzero"/><path fill="#8c52ff" d="M 301.292969 232.414062 C 300.742188 232.359375 300.347656 232.046875 300.367188 231.507812 L 301.109375 231.515625 C 301.117188 231.691406 301.191406 231.800781 301.328125 231.847656 L 301.375 231.175781 C 300.945312 231.058594 300.402344 230.921875 300.449219 230.25 C 300.484375 229.71875 300.933594 229.410156 301.492188 229.382812 L 301.511719 229.035156 L 301.777344 229.035156 L 301.757812 229.382812 C 302.320312 229.4375 302.65625 229.738281 302.65625 230.269531 L 301.90625 230.261719 C 301.898438 230.105469 301.832031 230.003906 301.714844 229.957031 L 301.667969 230.617188 C 302.097656 230.746094 302.648438 230.875 302.613281 231.535156 C 302.585938 231.992188 302.199219 232.394531 301.550781 232.414062 L 301.53125 232.761719 L 301.265625 232.761719 Z M 301.410156 230.527344 L 301.449219 229.941406 C 301.292969 229.96875 301.191406 230.058594 301.183594 230.222656 C 301.183594 230.371094 301.273438 230.460938 301.410156 230.527344 Z M 301.632812 231.257812 L 301.59375 231.863281 C 301.757812 231.835938 301.871094 231.726562 301.878906 231.5625 C 301.886719 231.40625 301.789062 231.324219 301.632812 231.257812 Z M 301.632812 231.257812 " fill-opacity="1" fill-rule="nonzero"/><path fill="#192351" d="M 163.515625 49.433594 C 163.515625 49.433594 153.132812 57.890625 133.445312 57.359375 L 133.445312 90.449219 C 133.445312 90.449219 146.886719 121.589844 163.53125 121.589844 C 180.179688 121.589844 193.582031 90.449219 193.582031 90.449219 L 193.582031 57.359375 C 173.894531 57.890625 163.515625 49.433594 163.515625 49.433594 Z M 163.515625 49.433594 " fill-opacity="1" fill-rule="nonzero"/><path fill="#8c52ff" d="M 190.804688 60.179688 L 190.804688 89.808594 C 189.863281 91.859375 186.773438 98.300781 182.351562 104.628906 C 177.761719 111.191406 170.769531 119.003906 163.523438 119.003906 L 163.503906 119.003906 C 156.265625 118.996094 149.269531 111.179688 144.679688 104.621094 C 140.242188 98.300781 137.148438 91.859375 136.214844 89.796875 L 136.214844 60.171875 C 150.230469 59.792969 159.464844 55.261719 163.503906 52.777344 C 167.554688 55.269531 176.789062 59.804688 190.804688 60.179688 Z M 190.804688 60.179688 " fill-opacity="1" fill-rule="nonzero"/><g mask="url(#78f584a38a)"><g transform="matrix(1, 0, 0, 1, 162, 51)"><g clip-path="url(#b8ae901086)"><path fill="#192351" d="M 28.804688 9.179688 L 28.804688 38.808594 C 27.863281 40.859375 24.773438 47.300781 20.351562 53.628906 C 15.761719 60.191406 8.769531 68.003906 1.523438 68.003906 L 1.503906 68.003906 L 1.503906 1.777344 C 5.554688 4.269531 14.789062 8.804688 28.804688 9.179688 Z M 28.804688 9.179688 " fill-opacity="1" fill-rule="nonzero"/></g></g></g><path fill="#ffffff" d="M 154.433594 92.976562 L 149.5625 82.175781 C 149.066406 81.085938 149.550781 79.804688 150.640625 79.316406 C 151.730469 78.832031 153.015625 79.308594 153.5 80.398438 L 156.449219 86.949219 L 177.496094 75.480469 C 178.539062 74.902344 179.859375 75.296875 180.425781 76.339844 C 180.992188 77.394531 180.609375 78.703125 179.566406 79.273438 Z M 154.433594 92.976562 " fill-opacity="1" fill-rule="nonzero"/><g clip-path="url(#523aa2aec9)"><path fill="#192351" d="M -0.953125 345.988281 L 360.300781 345.988281 L 360.300781 349.578125 L -0.953125 349.578125 Z M -0.953125 345.988281 " fill-opacity="1" fill-rule="nonzero"/></g><path fill="#8c52ff" d="M 203.859375 294.472656 L 203.859375 304.476562 C 203.859375 305.382812 203.117188 306.117188 202.203125 306.117188 L 152.0625 306.117188 C 151.15625 306.117188 150.414062 305.375 150.414062 304.476562 L 150.414062 294.472656 C 150.414062 293.566406 151.15625 292.832031 152.0625 292.832031 L 202.203125 292.832031 C 203.117188 292.832031 203.859375 293.574219 203.859375 294.472656 Z M 203.859375 294.472656 " fill-opacity="1" fill-rule="nonzero"/><path fill="#192351" d="M 203.859375 303.589844 L 203.859375 304.476562 C 203.859375 305.382812 203.117188 306.117188 202.203125 306.117188 L 152.0625 306.117188 C 151.15625 306.117188 150.414062 305.375 150.414062 304.476562 L 150.414062 303.589844 Z M 203.859375 303.589844 " fill-opacity="1" fill-rule="nonzero"/><path fill="#192351" d="M 156.121094 302.453125 C 155.929688 302.453125 155.78125 302.296875 155.78125 302.113281 L 155.78125 296.25 C 155.78125 296.058594 155.9375 295.910156 156.121094 295.910156 C 156.304688 295.910156 156.460938 296.066406 156.460938 296.25 L 156.460938 302.113281 C 156.46875 302.296875 156.3125 302.453125 156.121094 302.453125 Z M 156.121094 302.453125 " fill-opacity="1" fill-rule="nonzero"/><path fill="#192351" d="M 163.128906 302.453125 C 162.9375 302.453125 162.789062 302.296875 162.789062 302.113281 L 162.789062 296.25 C 162.789062 296.058594 162.945312 295.910156 163.128906 295.910156 C 163.3125 295.910156 163.46875 296.066406 163.46875 296.25 L 163.46875 302.113281 C 163.46875 302.296875 163.320312 302.453125 163.128906 302.453125 Z M 163.128906 302.453125 " fill-opacity="1" fill-rule="nonzero"/><path fill="#192351" d="M 170.136719 302.453125 C 169.945312 302.453125 169.796875 302.296875 169.796875 302.113281 L 169.796875 296.25 C 169.796875 296.058594 169.953125 295.910156 170.136719 295.910156 C 170.320312 295.910156 170.476562 296.066406 170.476562 296.25 L 170.476562 302.113281 C 170.476562 302.296875 170.320312 302.453125 170.136719 302.453125 Z M 170.136719 302.453125 " fill-opacity="1" fill-rule="nonzero"/><path fill="#192351" d="M 177.136719 302.453125 C 176.945312 302.453125 176.796875 302.296875 176.796875 302.113281 L 176.796875 296.25 C 176.796875 296.058594 176.953125 295.910156 177.136719 295.910156 C 177.320312 295.910156 177.476562 296.066406 177.476562 296.25 L 177.476562 302.113281 C 177.484375 302.296875 177.328125 302.453125 177.136719 302.453125 Z M 177.136719 302.453125 " fill-opacity="1" fill-rule="nonzero"/><path fill="#192351" d="M 184.144531 302.453125 C 183.953125 302.453125 183.804688 302.296875 183.804688 302.113281 L 183.804688 296.25 C 183.804688 296.058594 183.960938 295.910156 184.144531 295.910156 C 184.328125 295.910156 184.484375 296.066406 184.484375 296.25 L 184.484375 302.113281 C 184.484375 302.296875 184.335938 302.453125 184.144531 302.453125 Z M 184.144531 302.453125 " fill-opacity="1" fill-rule="nonzero"/><path fill="#192351" d="M 191.152344 302.453125 C 190.960938 302.453125 190.816406 302.296875 190.816406 302.113281 L 190.816406 296.25 C 190.816406 296.058594 190.972656 295.910156 191.152344 295.910156 C 191.335938 295.910156 191.492188 296.066406 191.492188 296.25 L 191.492188 302.113281 C 191.492188 302.296875 191.335938 302.453125 191.152344 302.453125 Z M 191.152344 302.453125 " fill-opacity="1" fill-rule="nonzero"/><path fill="#192351" d="M 198.152344 302.453125 C 197.960938 302.453125 197.8125 302.296875 197.8125 302.113281 L 197.8125 296.25 C 197.8125 296.058594 197.96875 295.910156 198.152344 295.910156 C 198.335938 295.910156 198.492188 296.066406 198.492188 296.25 L 198.492188 302.113281 C 198.5 302.296875 198.34375 302.453125 198.152344 302.453125 Z M 198.152344 302.453125 " fill-opacity="1" fill-rule="nonzero"/><path fill="#8c52ff" d="M 197.457031 307.765625 L 197.457031 317.769531 C 197.457031 318.679688 196.714844 319.410156 195.796875 319.410156 L 145.660156 319.410156 C 144.75 319.410156 144.007812 318.667969 144.007812 317.769531 L 144.007812 307.765625 C 144.007812 306.859375 144.75 306.125 145.660156 306.125 L 195.796875 306.125 C 196.722656 306.125 197.457031 306.859375 197.457031 307.765625 Z M 197.457031 307.765625 " fill-opacity="1" fill-rule="nonzero"/><path fill="#192351" d="M 197.457031 316.882812 L 197.457031 317.769531 C 197.457031 318.679688 196.714844 319.410156 195.796875 319.410156 L 145.660156 319.410156 C 144.75 319.410156 144.007812 318.667969 144.007812 317.769531 L 144.007812 316.882812 Z M 197.457031 316.882812 " fill-opacity="1" fill-rule="nonzero"/><path fill="#192351" d="M 149.726562 315.746094 C 149.535156 315.746094 149.386719 315.589844 149.386719 315.40625 L 149.386719 309.542969 C 149.386719 309.351562 149.542969 309.203125 149.726562 309.203125 C 149.910156 309.203125 150.066406 309.359375 150.066406 309.542969 L 150.066406 315.40625 C 150.066406 315.589844 149.910156 315.746094 149.726562 315.746094 Z M 149.726562 315.746094 " fill-opacity="1" fill-rule="nonzero"/><path fill="#192351" d="M 156.734375 315.746094 C 156.542969 315.746094 156.394531 315.589844 156.394531 315.40625 L 156.394531 309.542969 C 156.394531 309.351562 156.550781 309.203125 156.734375 309.203125 C 156.917969 309.203125 157.074219 309.359375 157.074219 309.542969 L 157.074219 315.40625 C 157.074219 315.589844 156.917969 315.746094 156.734375 315.746094 Z M 156.734375 315.746094 " fill-opacity="1" fill-rule="nonzero"/><path fill="#192351" d="M 163.734375 315.746094 C 163.542969 315.746094 163.394531 315.589844 163.394531 315.40625 L 163.394531 309.542969 C 163.394531 309.351562 163.550781 309.203125 163.734375 309.203125 C 163.917969 309.203125 164.074219 309.359375 164.074219 309.542969 L 164.074219 315.40625 C 164.082031 315.589844 163.925781 315.746094 163.734375 315.746094 Z M 163.734375 315.746094 " fill-opacity="1" fill-rule="nonzero"/><path fill="#192351" d="M 170.742188 315.746094 C 170.550781 315.746094 170.402344 315.589844 170.402344 315.40625 L 170.402344 309.542969 C 170.402344 309.351562 170.558594 309.203125 170.742188 309.203125 C 170.925781 309.203125 171.082031 309.359375 171.082031 309.542969 L 171.082031 315.40625 C 171.082031 315.589844 170.933594 315.746094 170.742188 315.746094 Z M 170.742188 315.746094 " fill-opacity="1" fill-rule="nonzero"/><path fill="#192351" d="M 177.75 315.746094 C 177.558594 315.746094 177.410156 315.589844 177.410156 315.40625 L 177.410156 309.542969 C 177.410156 309.351562 177.566406 309.203125 177.75 309.203125 C 177.933594 309.203125 178.089844 309.359375 178.089844 309.542969 L 178.089844 315.40625 C 178.089844 315.589844 177.933594 315.746094 177.75 315.746094 Z M 177.75 315.746094 " fill-opacity="1" fill-rule="nonzero"/><path fill="#192351" d="M 184.75 315.746094 C 184.558594 315.746094 184.410156 315.589844 184.410156 315.40625 L 184.410156 309.542969 C 184.410156 309.351562 184.566406 309.203125 184.75 309.203125 C 184.933594 309.203125 185.089844 309.359375 185.089844 309.542969 L 185.089844 315.40625 C 185.097656 315.589844 184.941406 315.746094 184.75 315.746094 Z M 184.75 315.746094 " fill-opacity="1" fill-rule="nonzero"/><path fill="#192351" d="M 191.757812 315.746094 C 191.566406 315.746094 191.417969 315.589844 191.417969 315.40625 L 191.417969 309.542969 C 191.417969 309.351562 191.574219 309.203125 191.757812 309.203125 C 191.941406 309.203125 192.097656 309.359375 192.097656 309.542969 L 192.097656 315.40625 C 192.097656 315.589844 191.949219 315.746094 191.757812 315.746094 Z M 191.757812 315.746094 " fill-opacity="1" fill-rule="nonzero"/><path fill="#8c52ff" d="M 201.929688 321.058594 L 201.929688 331.0625 C 201.929688 331.972656 201.1875 332.703125 200.269531 332.703125 L 150.128906 332.703125 C 149.222656 332.703125 148.480469 331.960938 148.480469 331.0625 L 148.480469 321.058594 C 148.480469 320.152344 149.222656 319.421875 150.128906 319.421875 L 200.269531 319.421875 C 201.1875 319.410156 201.929688 320.152344 201.929688 321.058594 Z M 201.929688 321.058594 " fill-opacity="1" fill-rule="nonzero"/><path fill="#192351" d="M 201.929688 330.175781 L 201.929688 331.0625 C 201.929688 331.972656 201.1875 332.703125 200.269531 332.703125 L 150.128906 332.703125 C 149.222656 332.703125 148.480469 331.960938 148.480469 331.0625 L 148.480469 330.175781 Z M 201.929688 330.175781 " fill-opacity="1" fill-rule="nonzero"/><path fill="#192351" d="M 154.1875 329.03125 C 153.996094 329.03125 153.847656 328.875 153.847656 328.691406 L 153.847656 322.828125 C 153.847656 322.636719 154.003906 322.488281 154.1875 322.488281 C 154.371094 322.488281 154.527344 322.644531 154.527344 322.828125 L 154.527344 328.691406 C 154.535156 328.882812 154.378906 329.03125 154.1875 329.03125 Z M 154.1875 329.03125 " fill-opacity="1" fill-rule="nonzero"/><path fill="#192351" d="M 161.195312 329.03125 C 161.003906 329.03125 160.855469 328.875 160.855469 328.691406 L 160.855469 322.828125 C 160.855469 322.636719 161.011719 322.488281 161.195312 322.488281 C 161.378906 322.488281 161.535156 322.644531 161.535156 322.828125 L 161.535156 328.691406 C 161.542969 328.882812 161.386719 329.03125 161.195312 329.03125 Z M 161.195312 329.03125 " fill-opacity="1" fill-rule="nonzero"/><path fill="#192351" d="M 168.203125 329.03125 C 168.011719 329.03125 167.867188 328.875 167.867188 328.691406 L 167.867188 322.828125 C 167.867188 322.636719 168.019531 322.488281 168.203125 322.488281 C 168.386719 322.488281 168.542969 322.644531 168.542969 322.828125 L 168.542969 328.691406 C 168.542969 328.882812 168.386719 329.03125 168.203125 329.03125 Z M 168.203125 329.03125 " fill-opacity="1" fill-rule="nonzero"/><path fill="#192351" d="M 175.203125 329.03125 C 175.011719 329.03125 174.863281 328.875 174.863281 328.691406 L 174.863281 322.828125 C 174.863281 322.636719 175.019531 322.488281 175.203125 322.488281 C 175.386719 322.488281 175.542969 322.644531 175.542969 322.828125 L 175.542969 328.691406 C 175.550781 328.882812 175.394531 329.03125 175.203125 329.03125 Z M 175.203125 329.03125 " fill-opacity="1" fill-rule="nonzero"/><path fill="#192351" d="M 182.210938 329.03125 C 182.019531 329.03125 181.875 328.875 181.875 328.691406 L 181.875 322.828125 C 181.875 322.636719 182.027344 322.488281 182.210938 322.488281 C 182.394531 322.488281 182.550781 322.644531 182.550781 322.828125 L 182.550781 328.691406 C 182.558594 328.882812 182.40625 329.03125 182.210938 329.03125 Z M 182.210938 329.03125 " fill-opacity="1" fill-rule="nonzero"/><path fill="#192351" d="M 189.222656 329.03125 C 189.027344 329.03125 188.882812 328.875 188.882812 328.691406 L 188.882812 322.828125 C 188.882812 322.636719 189.039062 322.488281 189.222656 322.488281 C 189.402344 322.488281 189.558594 322.644531 189.558594 322.828125 L 189.558594 328.691406 C 189.558594 328.882812 189.402344 329.03125 189.222656 329.03125 Z M 189.222656 329.03125 " fill-opacity="1" fill-rule="nonzero"/><path fill="#192351" d="M 196.230469 329.03125 C 196.035156 329.03125 195.890625 328.875 195.890625 328.691406 L 195.890625 322.828125 C 195.890625 322.636719 196.046875 322.488281 196.230469 322.488281 C 196.414062 322.488281 196.566406 322.644531 196.566406 322.828125 L 196.566406 328.691406 C 196.566406 328.882812 196.414062 329.03125 196.230469 329.03125 Z M 196.230469 329.03125 " fill-opacity="1" fill-rule="nonzero"/><path fill="#8c52ff" d="M 203.859375 334.351562 L 203.859375 344.355469 C 203.859375 345.265625 203.117188 345.996094 202.203125 345.996094 L 152.0625 345.996094 C 151.15625 345.996094 150.414062 345.253906 150.414062 344.355469 L 150.414062 334.351562 C 150.414062 333.445312 151.15625 332.714844 152.0625 332.714844 L 202.203125 332.714844 C 203.117188 332.703125 203.859375 333.445312 203.859375 334.351562 Z M 203.859375 334.351562 " fill-opacity="1" fill-rule="nonzero"/><path fill="#192351" d="M 203.859375 343.460938 L 203.859375 344.347656 C 203.859375 345.253906 203.117188 345.988281 202.203125 345.988281 L 152.0625 345.988281 C 151.15625 345.988281 150.414062 345.246094 150.414062 344.347656 L 150.414062 343.460938 Z M 203.859375 343.460938 " fill-opacity="1" fill-rule="nonzero"/><path fill="#192351" d="M 156.121094 342.324219 C 155.929688 342.324219 155.78125 342.167969 155.78125 341.984375 L 155.78125 336.121094 C 155.78125 335.929688 155.9375 335.78125 156.121094 335.78125 C 156.304688 335.78125 156.460938 335.9375 156.460938 336.121094 L 156.460938 341.984375 C 156.46875 342.167969 156.3125 342.324219 156.121094 342.324219 Z M 156.121094 342.324219 " fill-opacity="1" fill-rule="nonzero"/><path fill="#192351" d="M 163.128906 342.324219 C 162.9375 342.324219 162.789062 342.167969 162.789062 341.984375 L 162.789062 336.121094 C 162.789062 335.929688 162.945312 335.78125 163.128906 335.78125 C 163.3125 335.78125 163.46875 335.9375 163.46875 336.121094 L 163.46875 341.984375 C 163.46875 342.167969 163.320312 342.324219 163.128906 342.324219 Z M 163.128906 342.324219 " fill-opacity="1" fill-rule="nonzero"/><path fill="#192351" d="M 170.136719 342.324219 C 169.945312 342.324219 169.796875 342.167969 169.796875 341.984375 L 169.796875 336.121094 C 169.796875 335.929688 169.953125 335.78125 170.136719 335.78125 C 170.320312 335.78125 170.476562 335.9375 170.476562 336.121094 L 170.476562 341.984375 C 170.476562 342.167969 170.320312 342.324219 170.136719 342.324219 Z M 170.136719 342.324219 " fill-opacity="1" fill-rule="nonzero"/><path fill="#192351" d="M 177.136719 342.324219 C 176.945312 342.324219 176.796875 342.167969 176.796875 341.984375 L 176.796875 336.121094 C 176.796875 335.929688 176.953125 335.78125 177.136719 335.78125 C 177.320312 335.78125 177.476562 335.9375 177.476562 336.121094 L 177.476562 341.984375 C 177.484375 342.167969 177.328125 342.324219 177.136719 342.324219 Z M 177.136719 342.324219 " fill-opacity="1" fill-rule="nonzero"/><path fill="#192351" d="M 184.144531 342.324219 C 183.953125 342.324219 183.804688 342.167969 183.804688 341.984375 L 183.804688 336.121094 C 183.804688 335.929688 183.960938 335.78125 184.144531 335.78125 C 184.328125 335.78125 184.484375 335.9375 184.484375 336.121094 L 184.484375 341.984375 C 184.484375 342.167969 184.335938 342.324219 184.144531 342.324219 Z M 184.144531 342.324219 " fill-opacity="1" fill-rule="nonzero"/><path fill="#192351" d="M 191.152344 342.324219 C 190.960938 342.324219 190.816406 342.167969 190.816406 341.984375 L 190.816406 336.121094 C 190.816406 335.929688 190.972656 335.78125 191.152344 335.78125 C 191.335938 335.78125 191.492188 335.9375 191.492188 336.121094 L 191.492188 341.984375 C 191.492188 342.167969 191.335938 342.324219 191.152344 342.324219 Z M 191.152344 342.324219 " fill-opacity="1" fill-rule="nonzero"/><path fill="#192351" d="M 198.152344 342.324219 C 197.960938 342.324219 197.8125 342.167969 197.8125 341.984375 L 197.8125 336.121094 C 197.8125 335.929688 197.96875 335.78125 198.152344 335.78125 C 198.335938 335.78125 198.492188 335.9375 198.492188 336.121094 L 198.492188 341.984375 C 198.5 342.167969 198.34375 342.324219 198.152344 342.324219 Z M 198.152344 342.324219 " fill-opacity="1" fill-rule="nonzero"/><path fill="#8c52ff" d="M 212.097656 307.765625 L 212.097656 317.769531 C 212.097656 318.679688 212.839844 319.410156 213.753906 319.410156 L 263.894531 319.410156 C 264.800781 319.410156 265.542969 318.667969 265.542969 317.769531 L 265.542969 307.765625 C 265.542969 306.859375 264.800781 306.125 263.894531 306.125 L 213.753906 306.125 C 212.828125 306.125 212.097656 306.859375 212.097656 307.765625 Z M 212.097656 307.765625 " fill-opacity="1" fill-rule="nonzero"/><path fill="#192351" d="M 212.097656 316.882812 L 212.097656 317.769531 C 212.097656 318.679688 212.839844 319.410156 213.753906 319.410156 L 263.894531 319.410156 C 264.800781 319.410156 265.542969 318.667969 265.542969 317.769531 L 265.542969 316.882812 Z M 212.097656 316.882812 " fill-opacity="1" fill-rule="nonzero"/><path fill="#192351" d="M 259.828125 315.746094 C 259.636719 315.746094 259.488281 315.589844 259.488281 315.40625 L 259.488281 309.542969 C 259.488281 309.351562 259.644531 309.203125 259.828125 309.203125 C 260.011719 309.203125 260.167969 309.359375 260.167969 309.542969 L 260.167969 315.40625 C 260.175781 315.589844 260.019531 315.746094 259.828125 315.746094 Z M 259.828125 315.746094 " fill-opacity="1" fill-rule="nonzero"/><path fill="#192351" d="M 252.828125 315.746094 C 252.636719 315.746094 252.488281 315.589844 252.488281 315.40625 L 252.488281 309.542969 C 252.488281 309.351562 252.644531 309.203125 252.828125 309.203125 C 253.011719 309.203125 253.167969 309.359375 253.167969 309.542969 L 253.167969 315.40625 C 253.167969 315.589844 253.011719 315.746094 252.828125 315.746094 Z M 252.828125 315.746094 " fill-opacity="1" fill-rule="nonzero"/><path fill="#192351" d="M 245.820312 315.746094 C 245.628906 315.746094 245.480469 315.589844 245.480469 315.40625 L 245.480469 309.542969 C 245.480469 309.351562 245.636719 309.203125 245.820312 309.203125 C 246.003906 309.203125 246.160156 309.359375 246.160156 309.542969 L 246.160156 315.40625 C 246.160156 315.589844 246.003906 315.746094 245.820312 315.746094 Z M 245.820312 315.746094 " fill-opacity="1" fill-rule="nonzero"/><path fill="#192351" d="M 238.8125 315.746094 C 238.621094 315.746094 238.472656 315.589844 238.472656 315.40625 L 238.472656 309.542969 C 238.472656 309.351562 238.628906 309.203125 238.8125 309.203125 C 238.996094 309.203125 239.152344 309.359375 239.152344 309.542969 L 239.152344 315.40625 C 239.152344 315.589844 239.003906 315.746094 238.8125 315.746094 Z M 238.8125 315.746094 " fill-opacity="1" fill-rule="nonzero"/><path fill="#192351" d="M 231.804688 315.746094 C 231.609375 315.746094 231.464844 315.589844 231.464844 315.40625 L 231.464844 309.542969 C 231.464844 309.351562 231.621094 309.203125 231.804688 309.203125 C 231.988281 309.203125 232.140625 309.359375 232.140625 309.542969 L 232.140625 315.40625 C 232.152344 315.589844 231.996094 315.746094 231.804688 315.746094 Z M 231.804688 315.746094 " fill-opacity="1" fill-rule="nonzero"/><path fill="#192351" d="M 224.804688 315.746094 C 224.613281 315.746094 224.464844 315.589844 224.464844 315.40625 L 224.464844 309.542969 C 224.464844 309.351562 224.621094 309.203125 224.804688 309.203125 C 224.988281 309.203125 225.144531 309.359375 225.144531 309.542969 L 225.144531 315.40625 C 225.144531 315.589844 224.988281 315.746094 224.804688 315.746094 Z M 224.804688 315.746094 " fill-opacity="1" fill-rule="nonzero"/><path fill="#192351" d="M 217.796875 315.746094 C 217.601562 315.746094 217.457031 315.589844 217.457031 315.40625 L 217.457031 309.542969 C 217.457031 309.351562 217.613281 309.203125 217.796875 309.203125 C 217.980469 309.203125 218.132812 309.359375 218.132812 309.542969 L 218.132812 315.40625 C 218.132812 315.589844 217.988281 315.746094 217.796875 315.746094 Z M 217.796875 315.746094 " fill-opacity="1" fill-rule="nonzero"/><path fill="#8c52ff" d="M 204 321.058594 L 204 331.0625 C 204 331.972656 204.742188 332.703125 205.65625 332.703125 L 255.796875 332.703125 C 256.703125 332.703125 257.445312 331.960938 257.445312 331.0625 L 257.445312 321.058594 C 257.445312 320.152344 256.703125 319.421875 255.796875 319.421875 L 205.65625 319.421875 C 204.742188 319.410156 204 320.152344 204 321.058594 Z M 204 321.058594 " fill-opacity="1" fill-rule="nonzero"/><path fill="#192351" d="M 204 330.175781 L 204 331.0625 C 204 331.972656 204.742188 332.703125 205.65625 332.703125 L 255.796875 332.703125 C 256.703125 332.703125 257.445312 331.960938 257.445312 331.0625 L 257.445312 330.175781 Z M 204 330.175781 " fill-opacity="1" fill-rule="nonzero"/><path fill="#192351" d="M 251.738281 329.03125 C 251.546875 329.03125 251.398438 328.875 251.398438 328.691406 L 251.398438 322.828125 C 251.398438 322.636719 251.554688 322.488281 251.738281 322.488281 C 251.921875 322.488281 252.078125 322.644531 252.078125 322.828125 L 252.078125 328.691406 C 252.078125 328.882812 251.929688 329.03125 251.738281 329.03125 Z M 251.738281 329.03125 " fill-opacity="1" fill-rule="nonzero"/><path fill="#192351" d="M 244.730469 329.03125 C 244.539062 329.03125 244.390625 328.875 244.390625 328.691406 L 244.390625 322.828125 C 244.390625 322.636719 244.546875 322.488281 244.730469 322.488281 C 244.914062 322.488281 245.070312 322.644531 245.070312 322.828125 L 245.070312 328.691406 C 245.078125 328.882812 244.921875 329.03125 244.730469 329.03125 Z M 244.730469 329.03125 " fill-opacity="1" fill-rule="nonzero"/><path fill="#192351" d="M 237.730469 329.03125 C 237.539062 329.03125 237.390625 328.875 237.390625 328.691406 L 237.390625 322.828125 C 237.390625 322.636719 237.546875 322.488281 237.730469 322.488281 C 237.914062 322.488281 238.070312 322.644531 238.070312 322.828125 L 238.070312 328.691406 C 238.070312 328.882812 237.914062 329.03125 237.730469 329.03125 Z M 237.730469 329.03125 " fill-opacity="1" fill-rule="nonzero"/><path fill="#192351" d="M 230.722656 329.03125 C 230.53125 329.03125 230.382812 328.875 230.382812 328.691406 L 230.382812 322.828125 C 230.382812 322.636719 230.539062 322.488281 230.722656 322.488281 C 230.90625 322.488281 231.0625 322.644531 231.0625 322.828125 L 231.0625 328.691406 C 231.0625 328.882812 230.90625 329.03125 230.722656 329.03125 Z M 230.722656 329.03125 " fill-opacity="1" fill-rule="nonzero"/><path fill="#192351" d="M 223.714844 329.03125 C 223.519531 329.03125 223.375 328.875 223.375 328.691406 L 223.375 322.828125 C 223.375 322.636719 223.53125 322.488281 223.714844 322.488281 C 223.898438 322.488281 224.050781 322.644531 224.050781 322.828125 L 224.050781 328.691406 C 224.0625 328.882812 223.90625 329.03125 223.714844 329.03125 Z M 223.714844 329.03125 " fill-opacity="1" fill-rule="nonzero"/><path fill="#192351" d="M 216.707031 329.03125 C 216.511719 329.03125 216.367188 328.875 216.367188 328.691406 L 216.367188 322.828125 C 216.367188 322.636719 216.523438 322.488281 216.707031 322.488281 C 216.886719 322.488281 217.042969 322.644531 217.042969 322.828125 L 217.042969 328.691406 C 217.054688 328.882812 216.898438 329.03125 216.707031 329.03125 Z M 216.707031 329.03125 " fill-opacity="1" fill-rule="nonzero"/><path fill="#192351" d="M 209.707031 329.03125 C 209.511719 329.03125 209.367188 328.875 209.367188 328.691406 L 209.367188 322.828125 C 209.367188 322.636719 209.523438 322.488281 209.707031 322.488281 C 209.890625 322.488281 210.042969 322.644531 210.042969 322.828125 L 210.042969 328.691406 C 210.042969 328.882812 209.890625 329.03125 209.707031 329.03125 Z M 209.707031 329.03125 " fill-opacity="1" fill-rule="nonzero"/><path fill="#8c52ff" d="M 205.691406 334.351562 L 205.691406 344.355469 C 205.691406 345.265625 206.433594 345.996094 207.351562 345.996094 L 257.492188 345.996094 C 258.398438 345.996094 259.140625 345.253906 259.140625 344.355469 L 259.140625 334.351562 C 259.140625 333.445312 258.398438 332.714844 257.492188 332.714844 L 207.351562 332.714844 C 206.433594 332.703125 205.691406 333.445312 205.691406 334.351562 Z M 205.691406 334.351562 " fill-opacity="1" fill-rule="nonzero"/><path fill="#192351" d="M 205.691406 343.460938 L 205.691406 344.347656 C 205.691406 345.253906 206.433594 345.988281 207.351562 345.988281 L 257.492188 345.988281 C 258.398438 345.988281 259.140625 345.246094 259.140625 344.347656 L 259.140625 343.460938 Z M 205.691406 343.460938 " fill-opacity="1" fill-rule="nonzero"/><path fill="#192351" d="M 253.433594 342.324219 C 253.242188 342.324219 253.09375 342.167969 253.09375 341.984375 L 253.09375 336.121094 C 253.09375 335.929688 253.25 335.78125 253.433594 335.78125 C 253.617188 335.78125 253.773438 335.9375 253.773438 336.121094 L 253.773438 341.984375 C 253.773438 342.167969 253.617188 342.324219 253.433594 342.324219 Z M 253.433594 342.324219 " fill-opacity="1" fill-rule="nonzero"/><path fill="#192351" d="M 246.425781 342.324219 C 246.230469 342.324219 246.085938 342.167969 246.085938 341.984375 L 246.085938 336.121094 C 246.085938 335.929688 246.242188 335.78125 246.425781 335.78125 C 246.609375 335.78125 246.765625 335.9375 246.765625 336.121094 L 246.765625 341.984375 C 246.765625 342.167969 246.617188 342.324219 246.425781 342.324219 Z M 246.425781 342.324219 " fill-opacity="1" fill-rule="nonzero"/><path fill="#192351" d="M 239.417969 342.324219 C 239.222656 342.324219 239.078125 342.167969 239.078125 341.984375 L 239.078125 336.121094 C 239.078125 335.929688 239.234375 335.78125 239.417969 335.78125 C 239.597656 335.78125 239.753906 335.9375 239.753906 336.121094 L 239.753906 341.984375 C 239.765625 342.167969 239.609375 342.324219 239.417969 342.324219 Z M 239.417969 342.324219 " fill-opacity="1" fill-rule="nonzero"/><path fill="#192351" d="M 232.417969 342.324219 C 232.222656 342.324219 232.078125 342.167969 232.078125 341.984375 L 232.078125 336.121094 C 232.078125 335.929688 232.234375 335.78125 232.417969 335.78125 C 232.601562 335.78125 232.757812 335.9375 232.757812 336.121094 L 232.757812 341.984375 C 232.757812 342.167969 232.601562 342.324219 232.417969 342.324219 Z M 232.417969 342.324219 " fill-opacity="1" fill-rule="nonzero"/><path fill="#192351" d="M 225.410156 342.324219 C 225.214844 342.324219 225.070312 342.167969 225.070312 341.984375 L 225.070312 336.121094 C 225.070312 335.929688 225.226562 335.78125 225.410156 335.78125 C 225.589844 335.78125 225.746094 335.9375 225.746094 336.121094 L 225.746094 341.984375 C 225.746094 342.167969 225.589844 342.324219 225.410156 342.324219 Z M 225.410156 342.324219 " fill-opacity="1" fill-rule="nonzero"/><path fill="#192351" d="M 218.398438 342.324219 C 218.207031 342.324219 218.0625 342.167969 218.0625 341.984375 L 218.0625 336.121094 C 218.0625 335.929688 218.214844 335.78125 218.398438 335.78125 C 218.582031 335.78125 218.738281 335.9375 218.738281 336.121094 L 218.738281 341.984375 C 218.75 342.167969 218.59375 342.324219 218.398438 342.324219 Z M 218.398438 342.324219 " fill-opacity="1" fill-rule="nonzero"/><path fill="#192351" d="M 211.390625 342.324219 C 211.199219 342.324219 211.050781 342.167969 211.050781 341.984375 L 211.050781 336.121094 C 211.050781 335.929688 211.207031 335.78125 211.390625 335.78125 C 211.574219 335.78125 211.730469 335.9375 211.730469 336.121094 L 211.730469 341.984375 C 211.738281 342.167969 211.582031 342.324219 211.390625 342.324219 Z M 211.390625 342.324219 " fill-opacity="1" fill-rule="nonzero"/><path fill="#8c52ff" d="M 341.4375 138.195312 L 343.648438 140.40625 L 333.605469 150.445312 L 331.398438 148.238281 Z M 341.4375 138.195312 " fill-opacity="1" fill-rule="nonzero"/><path fill="#8c52ff" d="M 343.65625 148.246094 L 341.445312 150.453125 L 331.40625 140.414062 L 333.613281 138.203125 Z M 343.65625 148.246094 " fill-opacity="1" fill-rule="nonzero"/><path fill="#d0c3f1" d="M 350.347656 94.617188 L 351.859375 96.125 L 344.976562 103.003906 L 343.46875 101.496094 Z M 350.347656 94.617188 " fill-opacity="1" fill-rule="nonzero"/><path fill="#d0c3f1" d="M 351.863281 101.503906 L 350.355469 103.011719 L 343.472656 96.132812 L 344.984375 94.625 Z M 351.863281 101.503906 " fill-opacity="1" fill-rule="nonzero"/></svg>