<svg xmlns="http://www.w3.org/2000/svg" xmlns:xlink="http://www.w3.org/1999/xlink" width="500" zoomAndPan="magnify" viewBox="0 0 375 374.999991" height="500" preserveAspectRatio="xMidYMid meet" version="1.0"><path fill="#d0c3f1" d="M 33.292969 103.367188 C 29.585938 114.304688 27.203125 125.734375 26.230469 137.253906 C 24.355469 159.480469 26.195312 181.660156 28.695312 203.777344 C 34.042969 251.03125 60.507812 288.285156 86.253906 309.21875 C 171.679688 378.683594 328.0625 333.808594 348.769531 268.371094 C 352.527344 256.5 351.472656 245.050781 350.171875 230.960938 C 346.035156 186.152344 324.261719 172.835938 309.617188 125.257812 C 296.289062 81.957031 309.429688 77.085938 296.96875 57.835938 C 285.894531 40.734375 264.335938 32.605469 245.6875 27.125 C 224.441406 20.882812 202.246094 18.441406 180.171875 17.816406 C 159.316406 17.222656 138.242188 18.207031 118.035156 23.429688 C 77.242188 33.96875 46.828125 63.460938 33.292969 103.367188 " fill-opacity="1" fill-rule="nonzero"/><path fill="#ffffff" d="M 247.453125 72.808594 C 283.875 129.304688 268.191406 204.617188 212.421875 241.019531 C 156.65625 277.421875 81.921875 261.132812 45.5 204.632812 C 9.078125 148.136719 24.761719 72.824219 80.53125 36.421875 C 136.300781 0.0195312 211.035156 16.3125 247.453125 72.808594 " fill-opacity="1" fill-rule="nonzero"/><path fill="#d0c3f1" d="M 67.027344 58.238281 C 67.007812 59.128906 69.578125 60.398438 72.03125 58.796875 C 74.484375 57.195312 75.445312 55.980469 78.203125 58.003906 C 80.957031 60.03125 85.402344 70.074219 88.96875 72.453125 C 92.535156 74.835938 96.324219 75.304688 96.960938 72.238281 C 97.597656 69.175781 94.191406 64.339844 95.636719 61.628906 C 97.085938 58.917969 102.058594 48.613281 99.796875 44.203125 C 97.535156 39.796875 92.671875 38.554688 84.984375 42.398438 C 77.296875 46.238281 67.15625 51.679688 67.027344 58.238281 " fill-opacity="1" fill-rule="nonzero"/><path fill="#d0c3f1" d="M 93.449219 171.507812 C 92.730469 172.746094 92.757812 174.199219 93.523438 175.273438 C 95.925781 178.640625 100.050781 188.246094 98.785156 193 C 97.167969 199.054688 102.6875 204.464844 104.277344 207.066406 C 107.507812 212.347656 109.554688 214.300781 117.328125 212.753906 C 125.097656 211.210938 127.605469 209.777344 131.265625 214.449219 C 134.925781 219.117188 148.015625 237.855469 153.046875 241.628906 C 158.078125 245.40625 167.171875 250.949219 170.429688 251.46875 C 173.6875 251.988281 179.152344 249.890625 171.644531 244.789062 C 164.132812 239.6875 160.167969 237.570312 161.0625 231.398438 C 161.953125 225.226562 161.792969 212.386719 159.980469 208.566406 C 158.167969 204.746094 158.890625 201.332031 160.453125 199.726562 C 162.015625 198.117188 165.097656 194.339844 165.4375 192.351562 C 165.78125 190.363281 161.226562 188.335938 158.539062 185.675781 C 155.851562 183.019531 154.648438 181.15625 158.761719 174.941406 C 162.871094 168.726562 155.589844 163.472656 146.617188 166.683594 C 137.648438 169.890625 130.3125 169.089844 128.691406 164.558594 C 127.066406 160.027344 121.164062 164.46875 116.304688 164.992188 C 111.449219 165.515625 109.671875 162.515625 104.703125 163.777344 C 97.984375 165.480469 94.84375 169.117188 93.449219 171.507812 " fill-opacity="1" fill-rule="nonzero"/><path fill="#d0c3f1" d="M 218.21875 89.453125 C 214.8125 87.960938 212.355469 83.675781 213.003906 75.191406 C 213.515625 68.53125 205.789062 67.242188 202.453125 67 C 201.839844 66.953125 201.605469 66.179688 202.078125 65.789062 C 204.648438 63.660156 211.6875 60.40625 223.867188 73.0625 C 239.617188 89.429688 236.90625 81.902344 237.441406 78.457031 C 237.972656 75.011719 231.71875 73.300781 232.628906 66.722656 C 233.199219 62.574219 231.863281 57.941406 230.417969 54.394531 C 203.953125 29.398438 167.953125 17.921875 132.851562 22.261719 C 134.996094 25.503906 141.554688 37.386719 125.375 41.28125 C 125.375 41.28125 114.664062 42.695312 126.863281 57.355469 C 139.066406 72.011719 134.773438 50.640625 135.644531 49.144531 C 136.515625 47.644531 139.394531 44.523438 144.777344 56.195312 C 144.777344 56.195312 146.953125 60.046875 139.855469 63.746094 C 132.761719 67.449219 133.578125 71.566406 134.703125 73.308594 C 135.828125 75.054688 139.425781 79.210938 137.875 84.875 C 136.324219 90.535156 142.886719 98.339844 146.011719 92.269531 C 149.132812 86.203125 146.8125 75.011719 150.773438 71.1875 C 154.730469 67.363281 162.617188 70.582031 165.941406 66.246094 C 169.261719 61.90625 162.542969 55.757812 164.699219 54.351562 C 166.851562 52.945312 174.183594 54.359375 175.648438 58.050781 C 177.109375 61.742188 171.417969 67.628906 175.671875 70.429688 C 179.925781 73.230469 182.742188 69.535156 185.507812 71.449219 C 188.269531 73.363281 183.78125 80.632812 176.503906 80.734375 C 169.226562 80.835938 171.457031 86.195312 167.46875 85.703125 C 163.480469 85.207031 160.3125 80.765625 157.636719 84.683594 C 154.960938 88.597656 154.773438 93.058594 151.445312 98.332031 C 148.113281 103.601562 146.066406 108.96875 148.035156 112.023438 C 150.003906 115.078125 153.835938 117.222656 156.066406 122.585938 C 158.300781 127.945312 165.230469 142.015625 179.042969 129.28125 C 192.859375 116.546875 196.125 125.878906 196.6875 126.753906 C 197.25 127.625 204.34375 139.105469 207.117188 140.085938 C 209.890625 141.066406 216.992188 144.488281 216.816406 155.136719 C 216.648438 165.785156 229.273438 181.097656 232.386719 175.964844 C 235.503906 170.832031 234.542969 159.375 237.324219 151.359375 C 240.113281 143.339844 235.628906 119.304688 228.605469 115.527344 C 221.578125 111.742188 226.234375 101.886719 224.78125 97.257812 C 223.328125 92.628906 221.628906 90.945312 218.21875 89.453125 " fill-opacity="1" fill-rule="nonzero"/><path fill="#d0c3f1" d="M 27.96875 114.234375 C 30.402344 117.808594 33.207031 122.878906 33.277344 128.097656 C 33.488281 143.84375 37.320312 149.289062 43.851562 160.914062 C 50.382812 172.539062 78.488281 182.199219 83.65625 181.765625 C 88.828125 181.332031 86.246094 176.023438 83.707031 172.085938 C 81.171875 168.152344 76.492188 164.503906 71.296875 161.421875 C 66.105469 158.335938 64.234375 155.4375 63.710938 153.132812 C 63.1875 150.828125 65.496094 148.4375 68.5 149.125 C 71.507812 149.808594 76.914062 148.628906 78.246094 146.105469 C 79.886719 143.003906 75.277344 138.046875 74.976562 135.59375 C 74.679688 133.140625 78.839844 128.660156 78.335938 123.398438 C 77.832031 118.140625 80.148438 114.273438 83.007812 109.757812 C 85.867188 105.242188 88.945312 102.058594 88.820312 100.375 C 88.695312 98.691406 85.925781 96.378906 84.917969 92.332031 C 83.910156 88.28125 84.082031 82.578125 81.882812 81.660156 C 79.6875 80.738281 74.570312 80.253906 70.921875 88.523438 C 67.273438 96.789062 65.691406 97.816406 61.886719 95.890625 C 58.078125 93.960938 56.707031 83.382812 64.605469 78.226562 C 72.5 73.070312 72.480469 69.554688 71.503906 67.546875 C 70.527344 65.535156 66.710938 65.082031 63.734375 66.4375 C 60.761719 67.789062 61.246094 69.535156 52.632812 81.039062 C 46.886719 88.71875 38.890625 91.734375 34.839844 93.332031 C 31.953125 100.15625 29.652344 107.148438 27.96875 114.234375 " fill-opacity="1" fill-rule="nonzero"/><path fill="#d0c3f1" d="M 254.578125 94.34375 C 252.828125 94.996094 255.605469 98.554688 254.011719 100.570312 C 252.417969 102.582031 252.238281 104.164062 255.179688 107.613281 C 258.125 111.058594 260.488281 116.59375 259.671875 119.808594 C 258.855469 123.027344 256.859375 126.28125 259.679688 131.027344 C 262.496094 135.777344 261.136719 143.007812 259.59375 146.210938 C 258.046875 149.417969 255.695312 154.363281 258.242188 158.316406 C 259.882812 160.859375 261.910156 164.152344 264.105469 166.273438 C 269.039062 144.265625 267.925781 120.871094 260.1875 98.820312 C 258.15625 96.546875 255.574219 93.972656 254.578125 94.34375 " fill-opacity="1" fill-rule="nonzero"/><path fill="#272030" d="M 145.890625 261.394531 C 145.890625 261.394531 145.886719 261.394531 145.886719 261.394531 C 120.652344 261.164062 96.5625 253.167969 76.214844 238.269531 C 75.949219 238.074219 75.894531 237.703125 76.085938 237.441406 C 76.28125 237.175781 76.652344 237.117188 76.917969 237.3125 C 97.0625 252.0625 120.914062 259.980469 145.898438 260.207031 C 146.222656 260.210938 146.488281 260.480469 146.484375 260.804688 C 146.480469 261.132812 146.214844 261.394531 145.890625 261.394531 " fill-opacity="1" fill-rule="nonzero"/><path fill="#272030" d="M 51.449219 213.667969 C 51.273438 213.667969 51.097656 213.585938 50.980469 213.433594 C 48.882812 210.710938 46.871094 207.859375 45 204.953125 C 27.300781 177.496094 21.214844 144.796875 27.863281 112.871094 C 34.511719 80.945312 53.101562 53.617188 80.207031 35.921875 C 104.1875 20.273438 133.019531 13.714844 161.394531 17.453125 C 189.4375 21.152344 215.480469 34.632812 234.722656 55.414062 C 234.945312 55.65625 234.929688 56.03125 234.691406 56.253906 C 234.449219 56.476562 234.074219 56.460938 233.851562 56.21875 C 194.003906 13.179688 129.65625 5.0625 80.855469 36.917969 C 25.449219 73.085938 9.8125 148.179688 46 204.3125 C 47.851562 207.1875 49.84375 210.015625 51.917969 212.710938 C 52.121094 212.972656 52.070312 213.34375 51.8125 213.542969 C 51.703125 213.628906 51.574219 213.667969 51.449219 213.667969 " fill-opacity="1" fill-rule="nonzero"/><path fill="#272030" d="M 190.894531 164.804688 L 190.898438 164.804688 Z M 194.851562 162.339844 C 194.238281 162.339844 193.636719 162.5 193.097656 162.808594 C 192.285156 163.277344 191.707031 164.039062 191.46875 164.953125 C 190.972656 166.863281 192.132812 168.855469 194.050781 169.386719 C 194.984375 169.648438 195.953125 169.527344 196.773438 169.050781 C 197.589844 168.582031 198.167969 167.820312 198.40625 166.90625 C 198.898438 164.996094 197.738281 163.007812 195.820312 162.472656 C 195.5 162.382812 195.171875 162.339844 194.851562 162.339844 Z M 195.027344 170.707031 C 194.597656 170.707031 194.164062 170.648438 193.734375 170.53125 C 191.195312 169.824219 189.664062 167.1875 190.320312 164.65625 C 190.636719 163.433594 191.414062 162.410156 192.507812 161.78125 C 193.609375 161.144531 194.898438 160.984375 196.140625 161.328125 C 198.679688 162.039062 200.207031 164.671875 199.554688 167.203125 C 199.234375 168.429688 198.460938 169.453125 197.367188 170.078125 C 196.644531 170.496094 195.84375 170.707031 195.027344 170.707031 " fill-opacity="1" fill-rule="nonzero"/><path fill="#272030" d="M 204.890625 173.398438 C 204.601562 174.523438 205.28125 175.691406 206.410156 176.003906 C 206.957031 176.15625 207.523438 176.085938 208.003906 175.808594 C 208.480469 175.535156 208.820312 175.085938 208.957031 174.554688 C 209.25 173.429688 208.566406 172.261719 207.441406 171.949219 C 206.894531 171.796875 206.324219 171.867188 205.84375 172.144531 C 205.367188 172.417969 205.03125 172.863281 204.890625 173.398438 Z M 206.984375 177.269531 C 206.6875 177.269531 206.386719 177.230469 206.09375 177.148438 C 204.34375 176.660156 203.289062 174.847656 203.742188 173.101562 C 203.960938 172.253906 204.496094 171.550781 205.25 171.117188 C 206.011719 170.679688 206.902344 170.566406 207.757812 170.804688 C 209.503906 171.292969 210.558594 173.109375 210.105469 174.851562 C 209.890625 175.695312 209.351562 176.402344 208.597656 176.835938 C 208.101562 177.125 207.546875 177.269531 206.984375 177.269531 " fill-opacity="1" fill-rule="nonzero"/><path fill="#272030" d="M 309.746094 341.863281 L 303.121094 342.347656 L 180.273438 341.863281 C 174.695312 341.863281 170.742188 337.328125 171.449219 331.730469 L 203.328125 78.304688 C 204.03125 72.707031 209.125 68.171875 214.703125 68.171875 L 337.675781 66.726562 C 351.789062 66.726562 353.703125 72.707031 353.003906 78.304688 L 321.121094 331.730469 C 320.417969 337.328125 315.324219 341.863281 309.746094 341.863281 " fill-opacity="1" fill-rule="nonzero"/><path fill="#ffffff" d="M 301.953125 341.863281 L 172.484375 341.863281 C 166.90625 341.863281 162.953125 337.3125 163.65625 331.695312 L 195.535156 77.464844 C 196.242188 71.851562 201.332031 67.300781 206.914062 67.300781 L 336.382812 67.300781 C 341.960938 67.300781 345.914062 71.851562 345.210938 77.464844 L 313.332031 331.695312 C 312.625 337.3125 307.535156 341.863281 301.953125 341.863281 " fill-opacity="1" fill-rule="nonzero"/><path fill="#272030" d="M 206.914062 67.894531 C 201.632812 67.894531 196.792969 72.222656 196.125 77.539062 L 164.246094 331.769531 C 163.921875 334.34375 164.621094 336.75 166.203125 338.542969 C 167.753906 340.300781 169.984375 341.269531 172.484375 341.269531 L 301.953125 341.269531 C 307.234375 341.269531 312.074219 336.941406 312.742188 331.625 L 344.621094 77.394531 C 344.945312 74.820312 344.246094 72.414062 342.664062 70.621094 C 341.113281 68.863281 338.878906 67.894531 336.382812 67.894531 Z M 301.953125 342.457031 L 172.484375 342.457031 C 169.640625 342.457031 167.09375 341.347656 165.3125 339.328125 C 163.5 337.273438 162.703125 334.539062 163.070312 331.625 L 194.945312 77.394531 C 195.6875 71.5 201.054688 66.707031 206.914062 66.707031 L 336.382812 66.707031 C 339.226562 66.707031 341.773438 67.820312 343.550781 69.835938 C 345.367188 71.890625 346.164062 74.628906 345.800781 77.539062 L 313.921875 331.769531 C 313.179688 337.664062 307.816406 342.457031 301.953125 342.457031 " fill-opacity="1" fill-rule="nonzero"/><path fill="#d0c3f1" d="M 171.035156 332.046875 L 201.472656 89.300781 C 201.636719 88.003906 202.8125 86.953125 204.097656 86.953125 L 334.265625 86.953125 C 335.554688 86.953125 336.464844 88.003906 336.304688 89.300781 L 305.863281 332.046875 C 305.699219 333.34375 304.527344 334.394531 303.238281 334.394531 L 173.070312 334.394531 C 171.785156 334.394531 170.871094 333.34375 171.035156 332.046875 " fill-opacity="1" fill-rule="nonzero"/><path fill="#272030" d="M 171.035156 332.046875 L 171.039062 332.046875 Z M 204.097656 87.546875 C 203.101562 87.546875 202.1875 88.367188 202.0625 89.375 L 171.621094 332.121094 C 171.5625 332.582031 171.683594 333.011719 171.964844 333.328125 C 172.234375 333.632812 172.628906 333.800781 173.070312 333.800781 L 303.238281 333.800781 C 304.238281 333.800781 305.148438 332.980469 305.277344 331.972656 L 335.714844 89.226562 C 335.773438 88.761719 335.652344 88.335938 335.371094 88.019531 C 335.101562 87.714844 334.710938 87.546875 334.265625 87.546875 Z M 303.238281 334.988281 L 173.070312 334.988281 C 172.28125 334.988281 171.574219 334.675781 171.074219 334.113281 C 170.570312 333.539062 170.34375 332.777344 170.445312 331.972656 L 200.886719 89.226562 C 201.082031 87.648438 202.527344 86.359375 204.097656 86.359375 L 334.265625 86.359375 C 335.054688 86.359375 335.765625 86.671875 336.261719 87.238281 C 336.769531 87.8125 336.992188 88.570312 336.894531 89.375 L 306.453125 332.121094 C 306.253906 333.703125 304.8125 334.988281 303.238281 334.988281 " fill-opacity="1" fill-rule="nonzero"/><path fill="#d0c3f1" d="M 270.027344 80.230469 C 267.9375 80.230469 266.457031 78.523438 266.71875 76.421875 C 266.984375 74.316406 268.890625 72.613281 270.980469 72.613281 C 273.070312 72.613281 274.554688 74.316406 274.289062 76.421875 C 274.023438 78.523438 272.117188 80.230469 270.027344 80.230469 " fill-opacity="1" fill-rule="nonzero"/><path fill="#ffffff" d="M 212.09375 282.265625 C 209.945312 299.453125 222.050781 313.386719 239.132812 313.386719 C 256.214844 313.386719 271.800781 299.453125 273.953125 282.265625 C 276.101562 265.074219 263.992188 251.140625 246.914062 251.140625 C 229.832031 251.140625 214.242188 265.074219 212.09375 282.265625 " fill-opacity="1" fill-rule="nonzero"/><path fill="#272030" d="M 246.914062 251.734375 C 230.148438 251.734375 214.792969 265.464844 212.683594 282.335938 C 211.65625 290.5625 213.894531 298.265625 218.984375 304.035156 C 223.96875 309.683594 231.128906 312.792969 239.132812 312.792969 C 255.898438 312.792969 271.253906 299.066406 273.363281 282.191406 C 274.390625 273.96875 272.15625 266.261719 267.066406 260.496094 C 262.078125 254.847656 254.921875 251.734375 246.914062 251.734375 Z M 239.132812 313.980469 C 230.78125 313.980469 223.308594 310.726562 218.09375 304.816406 C 212.777344 298.792969 210.4375 290.757812 211.503906 282.191406 C 213.6875 264.742188 229.570312 250.546875 246.914062 250.546875 C 255.265625 250.546875 262.738281 253.800781 267.953125 259.707031 C 273.273438 265.734375 275.613281 273.773438 274.542969 282.335938 C 272.359375 299.785156 256.476562 313.980469 239.132812 313.980469 " fill-opacity="1" fill-rule="nonzero"/><path fill="#4e2780" d="M 285.105469 214.3125 C 284.710938 217.46875 286.933594 220.023438 290.066406 220.023438 C 293.203125 220.023438 296.0625 217.46875 296.457031 214.3125 C 296.851562 211.15625 294.628906 208.597656 291.492188 208.597656 C 288.359375 208.597656 285.496094 211.15625 285.105469 214.3125 " fill-opacity="1" fill-rule="nonzero"/><path fill="#4e2780" d="M 210.519531 219.039062 L 279.03125 219.039062 L 280.210938 209.585938 L 211.699219 209.585938 L 210.519531 219.039062 " fill-opacity="1" fill-rule="nonzero"/><path fill="#4e2780" d="M 207.007812 236.109375 L 292.089844 236.109375 L 293.554688 226.652344 L 208.476562 226.652344 L 207.007812 236.109375 " fill-opacity="1" fill-rule="nonzero"/><path fill="#d0c3f1" d="M 233.308594 278.03125 C 235.550781 278.171875 237.699219 277.152344 239.238281 275.480469 L 251.910156 281.863281 C 251.867188 282.050781 251.796875 282.226562 251.769531 282.421875 C 251.71875 282.777344 251.71875 283.121094 251.714844 283.46875 L 236.867188 289.363281 C 235.820312 287.746094 234.121094 286.636719 232.042969 286.503906 C 228.195312 286.253906 224.566406 289.378906 223.957031 293.46875 C 223.34375 297.554688 225.976562 301.082031 229.820312 301.328125 C 233.667969 301.574219 237.296875 298.449219 237.90625 294.363281 C 237.960938 294.007812 237.960938 293.660156 237.964844 293.316406 L 252.808594 287.417969 C 253.859375 289.039062 255.558594 290.148438 257.636719 290.28125 C 261.484375 290.527344 265.109375 287.402344 265.722656 283.316406 C 266.335938 279.226562 263.703125 275.703125 259.855469 275.453125 C 257.617188 275.3125 255.46875 276.332031 253.929688 278 L 241.261719 271.621094 C 241.300781 271.433594 241.367188 271.253906 241.394531 271.0625 C 242.007812 266.976562 239.375 263.449219 235.53125 263.203125 C 231.683594 262.957031 228.054688 266.082031 227.441406 270.167969 C 226.832031 274.253906 229.464844 277.78125 233.308594 278.03125 " fill-opacity="1" fill-rule="nonzero"/><path fill="#4e2780" d="M 231.613281 287.082031 C 228.214844 287.082031 225.089844 289.902344 224.542969 293.554688 C 224.261719 295.4375 224.730469 297.296875 225.828125 298.65625 C 226.828125 299.894531 228.257812 300.632812 229.859375 300.738281 C 233.402344 300.96875 236.753906 298.066406 237.324219 294.273438 C 237.363281 294 237.367188 293.722656 237.371094 293.425781 L 237.371094 293.308594 C 237.375 293.066406 237.523438 292.851562 237.746094 292.765625 L 252.589844 286.867188 C 252.851562 286.761719 253.15625 286.859375 253.308594 287.097656 C 254.316406 288.652344 255.867188 289.574219 257.675781 289.6875 C 261.222656 289.921875 264.570312 287.019531 265.136719 283.226562 C 265.417969 281.347656 264.949219 279.484375 263.851562 278.125 C 262.851562 276.886719 261.417969 276.148438 259.820312 276.046875 C 257.851562 275.921875 255.863281 276.78125 254.363281 278.402344 C 254.183594 278.597656 253.898438 278.652344 253.660156 278.53125 L 240.992188 272.152344 C 240.75 272.027344 240.621094 271.757812 240.679688 271.492188 C 240.699219 271.40625 240.722656 271.320312 240.746094 271.238281 C 240.769531 271.152344 240.796875 271.066406 240.8125 270.976562 C 241.09375 269.09375 240.621094 267.234375 239.523438 265.875 C 238.523438 264.636719 237.09375 263.894531 235.492188 263.792969 C 231.949219 263.566406 228.597656 266.464844 228.03125 270.257812 C 227.75 272.136719 228.21875 273.996094 229.316406 275.359375 C 230.3125 276.597656 231.746094 277.335938 233.351562 277.4375 C 235.316406 277.5625 237.304688 276.703125 238.800781 275.082031 C 238.980469 274.886719 239.269531 274.832031 239.503906 274.953125 L 252.175781 281.332031 C 252.417969 281.453125 252.546875 281.726562 252.488281 281.992188 C 252.46875 282.078125 252.445312 282.160156 252.421875 282.246094 C 252.394531 282.332031 252.371094 282.417969 252.359375 282.507812 C 252.316406 282.78125 252.3125 283.058594 252.308594 283.351562 L 252.308594 283.476562 C 252.304688 283.714844 252.152344 283.929688 251.933594 284.019531 L 237.085938 289.914062 C 236.828125 290.019531 236.527344 289.921875 236.371094 289.6875 C 235.363281 288.128906 233.8125 287.210938 232.003906 287.09375 C 231.875 287.085938 231.742188 287.082031 231.613281 287.082031 Z M 230.246094 301.933594 C 230.09375 301.933594 229.9375 301.929688 229.785156 301.921875 C 227.847656 301.796875 226.117188 300.902344 224.90625 299.402344 C 223.597656 297.785156 223.039062 295.589844 223.367188 293.378906 C 224.027344 288.996094 227.933594 285.648438 232.082031 285.910156 C 234.078125 286.039062 235.878906 287.023438 237.085938 288.640625 L 251.128906 283.0625 C 251.132812 282.828125 251.144531 282.585938 251.183594 282.332031 C 251.191406 282.277344 251.199219 282.226562 251.214844 282.179688 L 239.363281 276.207031 C 237.65625 277.886719 235.464844 278.761719 233.273438 278.621094 C 231.335938 278.496094 229.605469 277.601562 228.390625 276.105469 C 227.085938 274.484375 226.527344 272.289062 226.855469 270.082031 C 227.515625 265.695312 231.414062 262.347656 235.566406 262.609375 C 237.503906 262.734375 239.238281 263.628906 240.445312 265.125 C 241.753906 266.746094 242.316406 268.941406 241.980469 271.152344 C 241.976562 271.203125 241.964844 271.253906 241.953125 271.304688 L 253.804688 277.277344 C 255.511719 275.597656 257.703125 274.722656 259.898438 274.863281 C 261.832031 274.988281 263.566406 275.878906 264.773438 277.378906 C 266.082031 278.996094 266.640625 281.191406 266.308594 283.402344 C 265.65625 287.789062 261.742188 291.136719 257.597656 290.871094 C 255.601562 290.746094 253.800781 289.757812 252.59375 288.144531 L 238.554688 293.722656 C 238.546875 293.953125 238.53125 294.195312 238.496094 294.449219 C 237.863281 298.671875 234.21875 301.933594 230.246094 301.933594 " fill-opacity="1" fill-rule="nonzero"/><path fill="#4e2780" d="M 91.886719 319.195312 C 80.964844 321.339844 70.359375 314.253906 68.203125 303.355469 C 66.046875 292.464844 73.15625 281.890625 84.082031 279.742188 C 95.003906 277.59375 105.609375 284.683594 107.765625 295.578125 C 109.921875 306.472656 102.8125 317.046875 91.886719 319.195312 Z M 128.492188 295.480469 L 126.976562 287.820312 L 118.425781 287.585938 C 117.757812 285.875 116.957031 284.242188 116.027344 282.699219 L 121.066406 275.816406 L 115.910156 269.9375 L 108.386719 274 C 106.964844 272.871094 105.449219 271.859375 103.859375 270.976562 L 104.773438 262.492188 L 97.359375 259.96875 L 92.890625 267.226562 C 91.109375 266.957031 89.289062 266.839844 87.445312 266.875 L 83.984375 259.070312 L 76.296875 260.582031 L 76.066406 269.109375 C 74.351562 269.777344 72.710938 270.574219 71.164062 271.5 L 64.265625 266.476562 L 58.367188 271.617188 L 62.445312 279.117188 C 61.308594 280.535156 60.292969 282.046875 59.410156 283.632812 L 50.902344 282.722656 L 48.371094 290.113281 L 55.652344 294.570312 C 55.382812 296.347656 55.265625 298.164062 55.296875 300 L 47.476562 303.453125 L 48.992188 311.117188 L 57.542969 311.347656 C 58.210938 313.058594 59.011719 314.691406 59.941406 316.234375 L 54.902344 323.117188 L 60.058594 328.996094 L 67.582031 324.933594 C 69.003906 326.066406 70.519531 327.078125 72.109375 327.960938 L 71.195312 336.445312 L 78.609375 338.96875 L 83.078125 331.707031 C 84.863281 331.976562 86.683594 332.09375 88.523438 332.0625 L 91.984375 339.863281 L 99.671875 338.351562 L 99.902344 329.824219 C 101.617188 329.160156 103.257812 328.359375 104.804688 327.433594 L 111.703125 332.457031 L 117.601562 327.320312 L 113.523438 319.816406 C 114.660156 318.398438 115.675781 316.886719 116.558594 315.304688 L 125.066406 316.214844 L 127.597656 308.824219 L 120.316406 304.363281 C 120.585938 302.585938 120.703125 300.773438 120.671875 298.933594 L 128.492188 295.480469 " fill-opacity="1" fill-rule="nonzero"/><path fill="#272030" d="M 88.109375 283.703125 C 86.859375 283.703125 85.589844 283.824219 84.316406 284.074219 C 79.179688 285.085938 74.746094 288.03125 71.835938 292.371094 C 68.9375 296.695312 67.898438 301.890625 68.90625 306.992188 C 70.996094 317.550781 81.308594 324.445312 91.894531 322.363281 C 97.03125 321.351562 101.464844 318.40625 104.375 314.0625 C 107.273438 309.742188 108.316406 304.546875 107.304688 299.445312 C 105.46875 290.15625 97.265625 283.703125 88.109375 283.703125 Z M 92.007812 322.945312 L 92.011719 322.945312 Z M 88.101562 323.917969 C 78.390625 323.917969 69.691406 317.074219 67.742188 307.222656 C 66.671875 301.808594 67.777344 296.300781 70.851562 291.710938 C 73.9375 287.109375 78.640625 283.980469 84.089844 282.910156 C 95.316406 280.699219 106.253906 288.015625 108.46875 299.214844 C 109.539062 304.628906 108.4375 310.136719 105.359375 314.726562 C 102.273438 319.328125 97.574219 322.453125 92.125 323.527344 C 90.773438 323.792969 89.429688 323.917969 88.101562 323.917969 Z M 88.644531 335.21875 C 88.878906 335.21875 89.09375 335.355469 89.1875 335.574219 L 92.457031 342.941406 L 99.210938 341.613281 L 99.429688 333.558594 C 99.4375 333.320312 99.585938 333.109375 99.808594 333.023438 C 101.496094 332.367188 103.113281 331.578125 104.621094 330.675781 C 104.824219 330.554688 105.082031 330.566406 105.273438 330.707031 L 111.792969 335.449219 L 116.976562 330.933594 L 113.125 323.851562 C 113.011719 323.640625 113.035156 323.382812 113.183594 323.195312 C 114.292969 321.808594 115.296875 320.316406 116.164062 318.765625 C 116.28125 318.558594 116.507812 318.4375 116.746094 318.464844 L 124.78125 319.324219 L 127.003906 312.832031 L 120.128906 308.621094 C 119.921875 308.496094 119.8125 308.261719 119.851562 308.023438 C 120.113281 306.292969 120.230469 304.5 120.199219 302.695312 C 120.195312 302.457031 120.335938 302.238281 120.554688 302.140625 L 127.941406 298.882812 L 126.609375 292.148438 L 118.53125 291.929688 C 118.292969 291.925781 118.082031 291.777344 117.996094 291.554688 C 117.335938 289.871094 116.546875 288.257812 115.640625 286.753906 C 115.519531 286.550781 115.53125 286.292969 115.671875 286.101562 L 120.425781 279.601562 L 115.898438 274.4375 L 108.789062 278.273438 C 108.582031 278.386719 108.324219 278.363281 108.140625 278.214844 C 106.746094 277.109375 105.25 276.109375 103.695312 275.246094 C 103.484375 275.128906 103.367188 274.898438 103.390625 274.660156 L 104.253906 266.652344 L 97.738281 264.433594 L 93.515625 271.289062 C 93.390625 271.492188 93.15625 271.601562 92.921875 271.566406 C 91.183594 271.300781 89.386719 271.183594 87.578125 271.214844 C 87.335938 271.214844 87.121094 271.082031 87.023438 270.863281 L 83.753906 263.496094 L 77 264.824219 L 76.78125 272.875 C 76.773438 273.113281 76.625 273.328125 76.402344 273.414062 C 74.71875 274.070312 73.097656 274.859375 71.589844 275.757812 C 71.386719 275.882812 71.128906 275.871094 70.9375 275.730469 L 64.417969 270.984375 L 59.238281 275.5 L 63.085938 282.585938 C 63.203125 282.796875 63.179688 283.054688 63.027344 283.242188 C 61.917969 284.628906 60.914062 286.121094 60.050781 287.671875 C 59.933594 287.878906 59.703125 287.996094 59.46875 287.972656 L 51.429688 287.109375 L 49.210938 293.605469 L 56.085938 297.816406 C 56.289062 297.941406 56.398438 298.175781 56.363281 298.410156 C 56.097656 300.144531 55.980469 301.9375 56.011719 303.742188 C 56.015625 303.980469 55.878906 304.199219 55.660156 304.296875 L 48.269531 307.554688 L 49.605469 314.285156 L 57.679688 314.503906 C 57.917969 314.511719 58.128906 314.660156 58.21875 314.878906 C 58.875 316.5625 59.667969 318.179688 60.570312 319.679688 C 60.695312 319.886719 60.683594 320.144531 60.542969 320.335938 L 55.785156 326.835938 L 60.316406 332 L 67.421875 328.164062 C 67.628906 328.050781 67.886719 328.070312 68.074219 328.21875 C 69.464844 329.328125 70.960938 330.328125 72.519531 331.191406 C 72.726562 331.308594 72.84375 331.539062 72.820312 331.773438 L 71.957031 339.785156 L 78.472656 342.003906 L 82.695312 335.144531 C 82.820312 334.945312 83.054688 334.835938 83.289062 334.871094 C 85.027344 335.132812 86.824219 335.25 88.636719 335.21875 C 88.640625 335.21875 88.640625 335.21875 88.644531 335.21875 Z M 92.109375 344.207031 C 91.875 344.207031 91.664062 344.070312 91.566406 343.855469 L 88.261719 336.410156 C 86.65625 336.417969 85.054688 336.316406 83.5 336.101562 L 79.234375 343.027344 C 79.089844 343.265625 78.800781 343.367188 78.539062 343.277344 L 71.125 340.757812 C 70.863281 340.667969 70.699219 340.40625 70.726562 340.128906 L 71.597656 332.035156 C 70.222656 331.25 68.894531 330.363281 67.644531 329.390625 L 60.460938 333.269531 C 60.21875 333.402344 59.917969 333.347656 59.734375 333.140625 L 54.578125 327.257812 C 54.394531 327.050781 54.382812 326.742188 54.546875 326.519531 L 59.351562 319.953125 C 58.5625 318.601562 57.859375 317.167969 57.257812 315.679688 L 49.097656 315.460938 C 48.820312 315.453125 48.585938 315.253906 48.53125 314.980469 L 47.015625 307.320312 C 46.960938 307.046875 47.101562 306.773438 47.355469 306.660156 L 54.820312 303.367188 C 54.8125 301.765625 54.914062 300.171875 55.132812 298.625 L 48.183594 294.367188 C 47.949219 294.222656 47.84375 293.933594 47.933594 293.671875 L 50.460938 286.28125 C 50.550781 286.015625 50.8125 285.851562 51.085938 285.882812 L 59.207031 286.75 C 59.992188 285.378906 60.882812 284.058594 61.855469 282.808594 L 57.96875 275.648438 C 57.835938 275.40625 57.890625 275.101562 58.097656 274.917969 L 63.996094 269.777344 C 64.203125 269.597656 64.511719 269.585938 64.734375 269.746094 L 71.320312 274.542969 C 72.679688 273.753906 74.117188 273.050781 75.605469 272.453125 L 75.828125 264.316406 C 75.835938 264.039062 76.03125 263.804688 76.304688 263.753906 L 83.988281 262.242188 C 84.261719 262.1875 84.535156 262.328125 84.644531 262.582031 L 87.949219 270.027344 C 89.558594 270.011719 91.15625 270.121094 92.710938 270.335938 L 96.976562 263.410156 C 97.121094 263.171875 97.410156 263.066406 97.671875 263.15625 L 105.085938 265.679688 C 105.347656 265.769531 105.515625 266.03125 105.484375 266.304688 L 104.613281 274.402344 C 105.988281 275.183594 107.316406 276.074219 108.570312 277.046875 L 115.75 273.167969 C 115.992188 273.035156 116.296875 273.089844 116.476562 273.296875 L 121.632812 279.175781 C 121.816406 279.386719 121.832031 279.695312 121.664062 279.917969 L 116.859375 286.484375 C 117.648438 287.835938 118.351562 289.269531 118.953125 290.757812 L 127.113281 290.976562 C 127.390625 290.984375 127.628906 291.183594 127.679688 291.457031 L 129.199219 299.117188 C 129.25 299.390625 129.109375 299.664062 128.855469 299.777344 L 121.390625 303.070312 C 121.402344 304.671875 121.296875 306.261719 121.082031 307.8125 L 128.027344 312.066406 C 128.265625 312.214844 128.371094 312.503906 128.28125 312.765625 L 125.75 320.15625 C 125.660156 320.417969 125.398438 320.582031 125.125 320.554688 L 117.003906 319.683594 C 116.21875 321.058594 115.328125 322.382812 114.355469 323.628906 L 118.246094 330.785156 C 118.378906 331.03125 118.320312 331.332031 118.113281 331.515625 L 112.214844 336.65625 C 112.007812 336.839844 111.699219 336.851562 111.476562 336.691406 L 104.890625 331.894531 C 103.535156 332.683594 102.097656 333.382812 100.605469 333.984375 L 100.386719 342.117188 C 100.378906 342.394531 100.179688 342.632812 99.90625 342.6875 L 92.222656 344.195312 C 92.183594 344.203125 92.144531 344.207031 92.109375 344.207031 " fill-opacity="1" fill-rule="nonzero"/><path fill="#4e2780" d="M 158.226562 305.199219 C 150.171875 304.132812 144.507812 296.757812 145.578125 288.726562 C 146.648438 280.695312 154.046875 275.046875 162.101562 276.109375 C 170.160156 277.175781 175.820312 284.550781 174.75 292.582031 C 173.683594 300.613281 166.285156 306.261719 158.226562 305.199219 Z M 189.101562 297.351562 L 189.851562 291.703125 L 183.996094 289.546875 C 183.9375 288.207031 183.769531 286.890625 183.488281 285.609375 L 188.585938 282.027344 L 186.40625 276.761719 L 180.25 277.816406 C 179.535156 276.699219 178.722656 275.648438 177.832031 274.667969 L 180.457031 269.019531 L 175.925781 265.542969 L 171.132812 269.519531 C 169.960938 268.917969 168.730469 268.410156 167.449219 268.003906 L 166.890625 261.804688 L 161.222656 261.054688 L 159.0625 266.894531 C 157.71875 266.953125 156.398438 267.125 155.109375 267.402344 L 151.519531 262.320312 L 146.238281 264.496094 L 147.292969 270.632812 C 146.175781 271.347656 145.117188 272.15625 144.136719 273.042969 L 138.46875 270.429688 L 134.984375 274.945312 L 138.96875 279.726562 C 138.363281 280.890625 137.855469 282.121094 137.445312 283.394531 L 131.230469 283.957031 L 130.476562 289.605469 L 136.332031 291.761719 C 136.394531 293.101562 136.5625 294.417969 136.84375 295.699219 L 131.742188 299.28125 L 133.925781 304.546875 L 140.078125 303.492188 C 140.796875 304.605469 141.605469 305.660156 142.496094 306.640625 L 139.875 312.289062 L 144.402344 315.761719 L 149.199219 311.789062 C 150.367188 312.390625 151.601562 312.898438 152.878906 313.304688 L 153.441406 319.503906 L 159.109375 320.253906 L 161.269531 314.414062 C 162.613281 314.351562 163.933594 314.183594 165.21875 313.90625 L 168.808594 318.988281 L 174.09375 316.8125 L 173.039062 310.675781 C 174.15625 309.960938 175.210938 309.152344 176.195312 308.265625 L 181.863281 310.878906 L 185.347656 306.363281 L 181.363281 301.582031 C 181.96875 300.414062 182.472656 299.1875 182.882812 297.910156 L 189.101562 297.351562 " fill-opacity="1" fill-rule="nonzero"/><path fill="#272030" d="M 158.425781 308.359375 C 166.148438 309.378906 173.261719 303.949219 174.285156 296.253906 C 174.78125 292.53125 173.796875 288.84375 171.511719 285.859375 C 169.21875 282.867188 165.894531 280.945312 162.144531 280.449219 C 154.425781 279.429688 147.3125 284.859375 146.289062 292.554688 C 145.792969 296.273438 146.777344 299.964844 149.0625 302.945312 C 151.355469 305.941406 154.679688 307.863281 158.425781 308.359375 Z M 160.292969 309.667969 C 159.625 309.667969 158.953125 309.625 158.273438 309.535156 C 154.210938 309 150.605469 306.917969 148.117188 303.667969 C 145.640625 300.433594 144.574219 296.433594 145.113281 292.398438 C 146.222656 284.058594 153.933594 278.167969 162.300781 279.273438 C 166.363281 279.808594 169.96875 281.894531 172.453125 285.140625 C 174.929688 288.375 176 292.375 175.460938 296.410156 C 174.441406 304.074219 167.847656 309.667969 160.292969 309.667969 Z M 189.222656 301.101562 L 189.226562 301.101562 Z M 154.109375 322.730469 L 158.835938 323.351562 L 160.835938 317.957031 C 160.917969 317.734375 161.125 317.582031 161.363281 317.570312 C 162.675781 317.511719 163.972656 317.34375 165.214844 317.074219 C 165.449219 317.027344 165.6875 317.117188 165.824219 317.3125 L 169.140625 322.007812 L 173.546875 320.195312 L 172.574219 314.527344 C 172.535156 314.292969 172.640625 314.054688 172.839844 313.925781 C 173.925781 313.230469 174.960938 312.441406 175.917969 311.574219 C 176.097656 311.414062 176.347656 311.375 176.566406 311.476562 L 181.804688 313.890625 L 184.707031 310.125 L 181.027344 305.710938 C 180.875 305.527344 180.847656 305.269531 180.957031 305.058594 C 181.542969 303.929688 182.039062 302.726562 182.441406 301.480469 C 182.511719 301.253906 182.714844 301.09375 182.953125 301.070312 L 188.699219 300.554688 L 189.324219 295.84375 L 183.914062 293.855469 C 183.691406 293.773438 183.539062 293.5625 183.527344 293.324219 C 183.46875 292.019531 183.300781 290.726562 183.03125 289.484375 C 182.980469 289.25 183.074219 289.011719 183.269531 288.871094 L 187.976562 285.566406 L 186.160156 281.175781 L 180.472656 282.148438 C 180.238281 282.191406 180 282.085938 179.875 281.886719 C 179.175781 280.804688 178.382812 279.769531 177.515625 278.816406 C 177.355469 278.640625 177.316406 278.382812 177.414062 278.167969 L 179.839844 272.949219 L 176.0625 270.054688 L 171.628906 273.726562 C 171.449219 273.878906 171.191406 273.90625 170.980469 273.796875 C 169.847656 273.214844 168.640625 272.714844 167.390625 272.316406 C 167.164062 272.246094 167.003906 272.042969 166.980469 271.804688 L 166.460938 266.078125 L 161.738281 265.457031 L 159.738281 270.851562 C 159.65625 271.074219 159.449219 271.226562 159.210938 271.238281 C 157.898438 271.296875 156.605469 271.464844 155.359375 271.730469 C 155.125 271.78125 154.886719 271.691406 154.746094 271.496094 L 151.429688 266.800781 L 147.023438 268.613281 L 148 274.28125 C 148.039062 274.519531 147.933594 274.753906 147.734375 274.882812 C 146.648438 275.578125 145.609375 276.371094 144.652344 277.234375 C 144.476562 277.394531 144.222656 277.433594 144.007812 277.332031 L 138.769531 274.914062 L 135.867188 278.683594 L 139.546875 283.097656 C 139.699219 283.28125 139.726562 283.539062 139.617188 283.75 C 139.03125 284.878906 138.53125 286.082031 138.132812 287.328125 C 138.0625 287.554688 137.859375 287.71875 137.621094 287.738281 L 131.875 288.253906 L 131.25 292.964844 L 136.660156 294.957031 C 136.882812 295.039062 137.039062 295.246094 137.046875 295.484375 C 137.105469 296.792969 137.273438 298.082031 137.542969 299.324219 C 137.59375 299.558594 137.5 299.796875 137.304688 299.933594 L 132.59375 303.242188 L 134.414062 307.632812 L 140.101562 306.660156 C 140.335938 306.617188 140.570312 306.722656 140.699219 306.921875 C 141.398438 308.007812 142.191406 309.039062 143.058594 309.992188 C 143.21875 310.171875 143.257812 310.425781 143.15625 310.640625 L 140.734375 315.859375 L 144.511719 318.753906 L 148.941406 315.082031 C 149.125 314.929688 149.382812 314.902344 149.59375 315.011719 C 150.722656 315.59375 151.929688 316.09375 153.179688 316.492188 C 153.40625 316.5625 153.570312 316.765625 153.59375 317.003906 Z M 159.230469 324.597656 C 159.203125 324.597656 159.175781 324.59375 159.148438 324.59375 L 153.484375 323.84375 C 153.210938 323.808594 152.996094 323.585938 152.972656 323.308594 L 152.445312 317.5 C 151.394531 317.144531 150.375 316.726562 149.402344 316.246094 L 144.90625 319.972656 C 144.691406 320.148438 144.382812 320.15625 144.164062 319.984375 L 139.632812 316.511719 C 139.414062 316.34375 139.339844 316.042969 139.457031 315.792969 L 141.917969 310.496094 C 141.195312 309.675781 140.523438 308.804688 139.917969 307.894531 L 134.144531 308.882812 C 133.871094 308.929688 133.605469 308.78125 133.5 308.523438 L 131.316406 303.257812 C 131.210938 303 131.296875 302.703125 131.523438 302.542969 L 136.304688 299.1875 C 136.089844 298.128906 135.949219 297.039062 135.882812 295.933594 L 130.394531 293.914062 C 130.132812 293.816406 129.972656 293.554688 130.011719 293.277344 L 130.761719 287.628906 C 130.800781 287.355469 131.019531 287.140625 131.296875 287.117188 L 137.125 286.59375 C 137.480469 285.542969 137.902344 284.527344 138.382812 283.558594 L 134.648438 279.078125 C 134.472656 278.863281 134.464844 278.554688 134.636719 278.335938 L 138.121094 273.816406 C 138.289062 273.597656 138.585938 273.523438 138.839844 273.640625 L 144.152344 276.09375 C 144.976562 275.371094 145.851562 274.703125 146.761719 274.101562 L 145.773438 268.347656 C 145.726562 268.074219 145.878906 267.804688 146.132812 267.699219 L 151.417969 265.523438 C 151.671875 265.417969 151.96875 265.503906 152.128906 265.730469 L 155.492188 270.492188 C 156.558594 270.28125 157.652344 270.140625 158.761719 270.074219 L 160.789062 264.597656 C 160.886719 264.339844 161.152344 264.183594 161.421875 264.21875 L 167.089844 264.964844 C 167.363281 265 167.578125 265.222656 167.605469 265.5 L 168.128906 271.308594 C 169.179688 271.664062 170.203125 272.082031 171.171875 272.566406 L 175.671875 268.839844 C 175.882812 268.660156 176.1875 268.65625 176.410156 268.824219 L 180.941406 272.296875 C 181.160156 272.464844 181.234375 272.765625 181.117188 273.019531 L 178.65625 278.3125 C 179.378906 279.132812 180.050781 280.007812 180.65625 280.914062 L 186.425781 279.929688 C 186.699219 279.882812 186.96875 280.03125 187.074219 280.285156 L 189.257812 285.550781 C 189.363281 285.808594 189.277344 286.105469 189.050781 286.265625 L 184.273438 289.621094 C 184.484375 290.679688 184.621094 291.773438 184.691406 292.875 L 190.179688 294.894531 C 190.441406 294.992188 190.597656 295.253906 190.5625 295.53125 L 189.8125 301.179688 C 189.773438 301.453125 189.550781 301.667969 189.277344 301.691406 L 183.445312 302.21875 C 183.09375 303.265625 182.671875 304.28125 182.191406 305.25 L 185.925781 309.730469 C 186.101562 309.945312 186.109375 310.253906 185.9375 310.472656 L 182.453125 314.992188 C 182.285156 315.210938 181.984375 315.285156 181.734375 315.167969 L 176.421875 312.714844 C 175.597656 313.4375 174.722656 314.105469 173.808594 314.710938 L 174.796875 320.460938 C 174.847656 320.734375 174.695312 321.003906 174.441406 321.109375 L 169.15625 323.289062 C 168.902344 323.394531 168.605469 323.308594 168.445312 323.078125 L 165.082031 318.316406 C 164.015625 318.527344 162.921875 318.667969 161.8125 318.734375 L 159.785156 324.210938 C 159.699219 324.445312 159.472656 324.597656 159.230469 324.597656 " fill-opacity="1" fill-rule="nonzero"/><path fill="#4e2780" d="M 257.320312 155.558594 C 256.792969 155.558594 256.253906 155.453125 255.738281 155.226562 L 142.785156 105.847656 C 140.785156 104.972656 139.871094 102.640625 140.746094 100.636719 C 141.621094 98.636719 143.953125 97.722656 145.953125 98.597656 L 258.90625 147.976562 C 260.90625 148.851562 261.824219 151.183594 260.949219 153.1875 C 260.296875 154.671875 258.84375 155.558594 257.320312 155.558594 " fill-opacity="1" fill-rule="nonzero"/><path fill="#4e2780" d="M 143.5625 200.355469 C 141.988281 200.355469 140.5 199.40625 139.882812 197.855469 C 139.078125 195.824219 140.070312 193.527344 142.101562 192.71875 L 256.667969 147.265625 C 258.699219 146.464844 261 147.457031 261.804688 149.484375 C 262.609375 151.515625 261.617188 153.816406 259.585938 154.621094 L 145.019531 200.074219 C 144.539062 200.265625 144.046875 200.355469 143.5625 200.355469 " fill-opacity="1" fill-rule="nonzero"/><path fill="#ffffff" d="M 169.175781 99.957031 C 169.175781 81.703125 154.484375 66.910156 136.363281 66.910156 C 118.242188 66.910156 103.550781 81.703125 103.550781 99.957031 C 103.550781 118.207031 118.242188 133.003906 136.363281 133.003906 C 154.484375 133.003906 169.175781 118.207031 169.175781 99.957031 " fill-opacity="1" fill-rule="nonzero"/><path fill="#d0c3f1" d="M 159.460938 123.984375 C 153.550781 129.597656 145.589844 133.042969 136.820312 133.042969 C 128.054688 133.042969 120.089844 129.597656 114.179688 123.984375 C 121.019531 121.855469 128.699219 120.652344 136.820312 120.652344 C 144.941406 120.652344 152.625 121.855469 159.460938 123.984375 " fill-opacity="1" fill-rule="nonzero"/><path fill="#ffffff" d="M 131.496094 84.90625 C 131.5 84.902344 131.515625 84.894531 131.515625 84.894531 L 147.574219 95.253906 L 147.574219 101.265625 C 147.574219 104.820312 145.921875 107.984375 143.355469 110.03125 L 143.355469 119.496094 C 143.355469 123.234375 140.34375 126.269531 136.625 126.269531 C 132.90625 126.269531 129.890625 123.234375 129.890625 119.496094 L 129.890625 110.285156 C 127.136719 108.25 125.34375 104.972656 125.34375 101.265625 L 125.34375 94.679688 C 125.34375 90.363281 127.859375 86.636719 131.496094 84.90625 " fill-opacity="1" fill-rule="nonzero"/><path fill="#272030" d="M 136.625 126.859375 C 132.585938 126.859375 129.300781 123.554688 129.300781 119.492188 L 129.09375 105.796875 L 130.28125 105.777344 L 130.488281 119.484375 C 130.488281 122.898438 133.238281 125.671875 136.625 125.671875 C 140.011719 125.671875 142.765625 122.898438 142.765625 119.492188 L 142.765625 110.226562 L 143.949219 110.226562 L 143.949219 119.492188 C 143.949219 123.554688 140.664062 126.859375 136.625 126.859375 " fill-opacity="1" fill-rule="nonzero"/><path fill="#272030" d="M 143.808594 100.578125 C 144.792969 101.21875 144.609375 103.535156 144.597656 103.539062 C 144.578125 103.539062 142.492188 98.105469 144.683594 95.332031 C 145.953125 93.722656 147.449219 94.542969 149.742188 92.933594 C 152.175781 91.222656 154.066406 87.785156 153.691406 84.367188 C 153.242188 80.246094 149.6875 77.921875 147.449219 76.457031 C 145.21875 75.003906 142.546875 73.476562 139.4375 73.828125 C 135.382812 74.28125 134.972656 77 130.464844 77.78125 C 126.796875 78.417969 126.246094 76.761719 123.023438 77.40625 C 120.335938 77.941406 113.765625 81.804688 114.09375 86.207031 C 114.300781 89 117.082031 89.332031 117.78125 93.269531 C 118.203125 95.632812 117.355469 96.386719 117.445312 98.328125 C 117.671875 103.15625 123.378906 108.898438 128.761719 109.035156 C 136.0625 109.222656 141.476562 99.0625 143.808594 100.578125 " fill-opacity="1" fill-rule="nonzero"/><path fill="#ffffff" d="M 129.6875 105.789062 C 129.6875 105.789062 124.554688 106.371094 124.347656 101.953125 C 124.144531 97.535156 128.117188 98.828125 128.117188 98.828125 C 128.117188 98.828125 126.078125 88.738281 132.988281 89.574219 C 139.894531 90.414062 145.40625 89.175781 145.40625 89.175781 C 145.40625 89.175781 148.113281 98.992188 147.867188 106.578125 C 147.722656 111.152344 146.5 114.914062 142.960938 115.222656 C 133.28125 116.070312 129.6875 105.789062 129.6875 105.789062 " fill-opacity="1" fill-rule="nonzero"/><path fill="#272030" d="M 129.6875 105.195312 C 129.9375 105.195312 130.164062 105.351562 130.246094 105.59375 C 130.390625 105.992188 133.816406 115.425781 142.910156 114.632812 C 145.644531 114.394531 147.109375 111.679688 147.277344 106.558594 C 147.484375 100.144531 145.523438 92.003906 144.972656 89.863281 C 143.390625 90.15625 138.65625 90.863281 132.914062 90.164062 C 131.503906 89.992188 130.460938 90.300781 129.722656 91.097656 C 127.644531 93.347656 128.691406 98.65625 128.699219 98.710938 C 128.742188 98.917969 128.671875 99.128906 128.515625 99.269531 C 128.355469 99.410156 128.136719 99.457031 127.933594 99.390625 C 127.921875 99.386719 126.507812 98.945312 125.65625 99.601562 C 125.128906 100.007812 124.886719 100.789062 124.941406 101.925781 C 124.988281 102.9375 125.332031 103.726562 125.96875 104.269531 C 127.328125 105.433594 129.597656 105.199219 129.621094 105.199219 C 129.644531 105.195312 129.664062 105.195312 129.6875 105.195312 Z M 141.851562 115.867188 C 133.789062 115.867188 130.089844 108.292969 129.296875 106.40625 C 128.4375 106.425781 126.546875 106.324219 125.203125 105.179688 C 124.304688 104.410156 123.816406 103.335938 123.753906 101.980469 C 123.683594 100.429688 124.082031 99.308594 124.9375 98.65625 C 125.722656 98.058594 126.699219 98.011719 127.398438 98.085938 C 127.167969 96.339844 126.910156 92.394531 128.851562 90.292969 C 129.851562 89.210938 131.265625 88.769531 133.058594 88.988281 C 139.789062 89.804688 145.222656 88.605469 145.277344 88.59375 C 145.585938 88.527344 145.894531 88.710938 145.980469 89.015625 C 146.089844 89.421875 148.707031 99.007812 148.460938 106.597656 C 148.273438 112.417969 146.441406 115.515625 143.015625 115.816406 C 142.617188 115.847656 142.230469 115.867188 141.851562 115.867188 " fill-opacity="1" fill-rule="nonzero"/><path fill="#272030" d="M 136.363281 67.503906 C 118.597656 67.503906 104.144531 82.0625 104.144531 99.957031 C 104.144531 117.851562 118.597656 132.410156 136.363281 132.410156 C 154.128906 132.410156 168.582031 117.851562 168.582031 99.957031 C 168.582031 82.0625 154.128906 67.503906 136.363281 67.503906 Z M 136.363281 133.597656 C 117.941406 133.597656 102.957031 118.503906 102.957031 99.957031 C 102.957031 81.40625 117.941406 66.316406 136.363281 66.316406 C 154.78125 66.316406 169.769531 81.40625 169.769531 99.957031 C 169.769531 118.503906 154.78125 133.597656 136.363281 133.597656 " fill-opacity="1" fill-rule="nonzero"/><path fill="#ffffff" d="M 113.152344 154.121094 C 102.359375 158.851562 96.527344 164.003906 91.34375 177.816406 C 84.707031 195.507812 95.929688 219.046875 115.726562 225.414062 C 126.21875 228.792969 137.101562 227.289062 145.953125 222.167969 L 149.15625 220.066406 C 149.328125 219.953125 149.496094 219.832031 149.664062 219.710938 C 155.753906 215.152344 160.539062 208.710938 163.027344 200.882812 C 168.5 183.660156 161.082031 165.394531 146.175781 156.648438 C 146.175781 156.648438 129.640625 146.898438 113.152344 154.121094 " fill-opacity="1" fill-rule="nonzero"/><path fill="#4e2780" d="M 128.058594 210.8125 C 137.65625 210.757812 146.78125 212.011719 155.039062 214.300781 C 153.398438 216.113281 151.597656 217.753906 149.664062 219.203125 C 149.496094 219.324219 149.328125 219.445312 149.15625 219.554688 L 145.953125 221.660156 C 137.097656 226.78125 126.722656 228.28125 116.230469 224.90625 C 110.15625 222.953125 104.894531 219.378906 100.703125 214.855469 C 109.171875 212.3125 118.101562 210.863281 128.058594 210.8125 " fill-opacity="1" fill-rule="nonzero"/><path fill="#272030" d="M 101.800781 215.148438 C 105.976562 219.433594 111.007812 222.605469 116.410156 224.34375 C 126.382812 227.550781 136.496094 226.445312 145.65625 221.144531 L 148.828125 219.058594 C 148.992188 218.953125 149.152344 218.84375 149.308594 218.726562 C 150.957031 217.492188 152.507812 216.113281 153.9375 214.617188 C 145.730469 212.4375 137.03125 211.355469 128.0625 211.402344 C 118.9375 211.453125 110.335938 212.679688 101.800781 215.148438 Z M 127.597656 227.328125 C 123.765625 227.328125 119.898438 226.710938 116.046875 225.472656 C 110.160156 223.578125 104.703125 220.046875 100.265625 215.257812 C 100.128906 215.109375 100.078125 214.898438 100.128906 214.699219 C 100.183594 214.5 100.335938 214.34375 100.53125 214.285156 C 109.484375 211.597656 118.484375 210.265625 128.054688 210.214844 C 137.480469 210.167969 146.609375 211.347656 155.199219 213.730469 C 155.398438 213.785156 155.554688 213.9375 155.609375 214.136719 C 155.667969 214.335938 155.617188 214.546875 155.480469 214.699219 C 153.824219 216.53125 151.988281 218.203125 150.019531 219.679688 C 149.84375 219.808594 149.664062 219.933594 149.480469 220.050781 L 146.277344 222.15625 C 140.335938 225.59375 134.019531 227.328125 127.597656 227.328125 " fill-opacity="1" fill-rule="nonzero"/><path fill="#272030" d="M 103.226562 186.449219 C 106.929688 173.03125 114.5625 155.4375 128.875 157.601562 C 142.609375 159.675781 149.070312 174.835938 152.039062 186.582031 C 153.84375 193.734375 148.425781 200.671875 141.097656 200.710938 L 114.21875 200.851562 C 106.71875 200.890625 101.222656 193.71875 103.226562 186.449219 " fill-opacity="1" fill-rule="nonzero"/><path fill="#ffffff" d="M 115.074219 170.867188 C 115.082031 170.832031 115.09375 170.769531 115.09375 170.769531 L 139.496094 170.582031 C 139.496094 170.582031 139.507812 170.621094 139.511719 170.640625 C 139.835938 171.863281 140.007812 173.15625 140.015625 174.488281 L 140.054688 181.679688 C 140.078125 186.492188 137.839844 190.734375 134.429688 193.214844 L 134.527344 211.980469 C 134.546875 215.714844 131.554688 218.757812 127.84375 218.777344 C 124.132812 218.796875 121.109375 215.785156 121.089844 212.050781 L 120.992188 193.5625 C 117.339844 191.167969 114.878906 186.808594 114.855469 181.8125 L 114.8125 173.703125 C 114.808594 172.730469 114.898438 171.78125 115.074219 170.867188 " fill-opacity="1" fill-rule="nonzero"/><path fill="#272030" d="M 127.808594 219.371094 C 125.867188 219.371094 124.042969 218.613281 122.664062 217.242188 C 121.277344 215.859375 120.507812 214.019531 120.496094 212.054688 L 120.402344 193.777344 C 120.398438 193.449219 120.664062 193.179688 120.992188 193.179688 C 120.992188 193.179688 120.992188 193.179688 120.996094 193.179688 C 121.320312 193.179688 121.585938 193.441406 121.589844 193.769531 L 121.683594 212.046875 C 121.691406 213.695312 122.339844 215.242188 123.5 216.402344 C 124.65625 217.550781 126.183594 218.183594 127.808594 218.183594 C 127.816406 218.183594 127.828125 218.183594 127.839844 218.183594 C 131.21875 218.164062 133.949219 215.382812 133.933594 211.984375 L 133.839844 193.777344 C 133.835938 193.449219 134.101562 193.179688 134.429688 193.179688 C 134.429688 193.179688 134.429688 193.179688 134.433594 193.179688 C 134.757812 193.179688 135.023438 193.441406 135.023438 193.769531 L 135.121094 211.976562 C 135.140625 216.03125 131.878906 219.347656 127.847656 219.371094 C 127.832031 219.371094 127.820312 219.371094 127.808594 219.371094 " fill-opacity="1" fill-rule="nonzero"/><path fill="#272030" d="M 127.421875 187.269531 C 125.90625 187.269531 124.492188 186.660156 123.445312 185.558594 C 123.21875 185.320312 123.230469 184.945312 123.46875 184.71875 C 123.707031 184.492188 124.082031 184.503906 124.304688 184.742188 C 125.132812 185.613281 126.25 186.070312 127.445312 186.082031 C 128.640625 186.078125 129.746094 185.589844 130.558594 184.71875 C 130.78125 184.480469 131.15625 184.464844 131.398438 184.6875 C 131.636719 184.910156 131.652344 185.285156 131.429688 185.527344 C 130.390625 186.640625 128.976562 187.261719 127.453125 187.269531 C 127.441406 187.269531 127.433594 187.269531 127.421875 187.269531 " fill-opacity="1" fill-rule="nonzero"/><path fill="#272030" d="M 127.464844 196.105469 C 123.953125 196.105469 120.652344 194.625 118.160156 191.929688 C 115.667969 189.234375 114.28125 185.640625 114.261719 181.816406 L 114.21875 173.707031 C 114.179688 166.039062 119.875 159.773438 126.917969 159.738281 C 130.574219 159.703125 134 161.25 136.585938 164.046875 C 139.160156 166.832031 140.589844 170.539062 140.609375 174.488281 L 140.648438 181.675781 C 140.675781 187.285156 137.675781 192.429688 133.003906 194.785156 C 132.710938 194.933594 132.351562 194.816406 132.203125 194.523438 C 132.058594 194.230469 132.175781 193.871094 132.46875 193.722656 C 136.742188 191.570312 139.488281 186.84375 139.460938 181.683594 L 139.421875 174.492188 C 139.402344 170.84375 138.085938 167.417969 135.714844 164.851562 C 133.355469 162.300781 130.242188 160.894531 126.925781 160.925781 C 120.535156 160.957031 115.371094 166.6875 115.40625 173.699219 L 115.449219 181.808594 C 115.464844 185.335938 116.738281 188.644531 119.03125 191.125 C 121.296875 193.574219 124.289062 194.921875 127.464844 194.921875 C 127.484375 194.921875 127.507812 194.921875 127.527344 194.921875 C 127.851562 194.921875 128.117188 195.183594 128.121094 195.507812 C 128.121094 195.839844 127.855469 196.105469 127.527344 196.105469 C 127.507812 196.105469 127.484375 196.105469 127.464844 196.105469 " fill-opacity="1" fill-rule="nonzero"/><path fill="#272030" d="M 127.464844 227.222656 C 118.648438 227.222656 110.1875 224.171875 103.316406 218.453125 C 96.34375 212.644531 91.65625 204.507812 90.125 195.542969 C 90.070312 195.21875 90.285156 194.910156 90.609375 194.855469 C 90.929688 194.800781 91.238281 195.019531 91.292969 195.339844 C 92.78125 204.027344 97.320312 211.910156 104.078125 217.539062 C 111.632812 223.832031 121.183594 226.789062 130.960938 225.871094 C 140.777344 224.949219 149.648438 220.234375 155.945312 212.59375 C 168.914062 196.847656 166.746094 173.449219 151.109375 160.433594 C 143.554688 154.144531 134.003906 151.183594 124.230469 152.101562 C 114.414062 153.023438 105.539062 157.738281 99.246094 165.378906 C 94.929688 170.621094 92.128906 176.933594 91.152344 183.628906 C 91.101562 183.949219 90.804688 184.175781 90.476562 184.128906 C 90.152344 184.082031 89.929688 183.78125 89.976562 183.453125 C 90.984375 176.546875 93.875 170.035156 98.332031 164.625 C 104.828125 156.742188 113.984375 151.871094 124.117188 150.921875 C 134.210938 149.96875 144.070312 153.027344 151.871094 159.523438 C 168.003906 172.957031 170.242188 197.101562 156.859375 213.347656 C 150.363281 221.230469 141.203125 226.101562 131.070312 227.050781 C 129.867188 227.164062 128.660156 227.222656 127.464844 227.222656 " fill-opacity="1" fill-rule="nonzero"/><path fill="#ffffff" d="M 297.492188 148.601562 C 297.492188 127.613281 280.601562 110.601562 259.757812 110.601562 C 238.917969 110.601562 222.023438 127.613281 222.023438 148.601562 C 222.023438 169.589844 238.917969 186.605469 259.757812 186.605469 C 280.601562 186.605469 297.492188 169.589844 297.492188 148.601562 " fill-opacity="1" fill-rule="nonzero"/><path fill="#d0c3f1" d="M 286.324219 176.234375 C 279.527344 182.6875 270.371094 186.652344 260.289062 186.652344 C 250.203125 186.652344 241.046875 182.6875 234.25 176.234375 C 242.113281 173.78125 250.945312 172.40625 260.289062 172.40625 C 269.625 172.40625 278.460938 173.78125 286.324219 176.234375 " fill-opacity="1" fill-rule="nonzero"/><path fill="#4e2780" d="M 235.410156 176.5 C 242.273438 182.671875 251.0625 186.058594 260.289062 186.058594 C 269.507812 186.058594 278.300781 182.671875 285.160156 176.5 C 277.347656 174.175781 268.984375 172.996094 260.289062 172.996094 C 251.589844 172.996094 243.226562 174.175781 235.410156 176.5 Z M 260.289062 187.246094 C 250.417969 187.246094 241.027344 183.488281 233.839844 176.664062 C 233.6875 176.519531 233.625 176.304688 233.671875 176.101562 C 233.71875 175.894531 233.871094 175.730469 234.074219 175.667969 C 242.28125 173.109375 251.101562 171.8125 260.289062 171.8125 C 269.472656 171.8125 278.292969 173.109375 286.5 175.667969 C 286.703125 175.730469 286.855469 175.894531 286.902344 176.101562 C 286.949219 176.304688 286.882812 176.519531 286.730469 176.664062 C 279.546875 183.488281 270.15625 187.246094 260.289062 187.246094 " fill-opacity="1" fill-rule="nonzero"/><path fill="#272030" d="M 248.125 126.398438 C 249.832031 125.289062 251.824219 124.703125 253.859375 124.703125 L 265.835938 124.703125 C 268.507812 124.703125 271.085938 125.71875 273.042969 127.550781 L 273.699219 128.164062 C 276.8125 131.070312 277.898438 135.566406 276.457031 139.589844 L 272.519531 150.585938 L 247.273438 150.425781 L 243.707031 138.410156 C 242.363281 133.863281 244.160156 128.96875 248.125 126.398438 " fill-opacity="1" fill-rule="nonzero"/><path fill="#ffffff" d="M 254.160156 131.289062 C 254.171875 131.285156 254.183594 131.277344 254.183594 131.277344 L 272.652344 143.195312 L 272.652344 150.109375 C 272.652344 154.195312 270.753906 157.832031 267.800781 160.1875 L 267.800781 171.070312 C 267.800781 175.375 264.335938 178.859375 260.058594 178.859375 C 255.785156 178.859375 252.316406 175.375 252.316406 171.070312 L 252.316406 160.480469 C 249.148438 158.140625 247.089844 154.367188 247.089844 150.109375 L 247.089844 142.535156 C 247.089844 137.566406 249.980469 133.285156 254.160156 131.289062 " fill-opacity="1" fill-rule="nonzero"/><path fill="#272030" d="M 260.058594 179.453125 C 255.464844 179.453125 251.726562 175.691406 251.726562 171.070312 L 251.726562 160.746094 L 252.914062 160.746094 L 252.914062 171.070312 C 252.914062 175.039062 256.121094 178.265625 260.058594 178.265625 C 264.003906 178.265625 267.210938 175.039062 267.210938 171.070312 L 267.210938 160.410156 L 268.398438 160.410156 L 268.398438 171.070312 C 268.398438 175.691406 264.65625 179.453125 260.058594 179.453125 " fill-opacity="1" fill-rule="nonzero"/><path fill="#272030" d="M 259.875 163.5625 C 252.5 163.5625 246.496094 157.527344 246.496094 150.105469 L 246.496094 142.53125 C 246.496094 135.347656 252.304688 129.503906 259.445312 129.503906 L 272.65625 129.503906 C 272.984375 129.503906 273.25 129.769531 273.25 130.097656 L 273.25 150.105469 C 273.25 155.367188 270.171875 160.175781 265.410156 162.359375 C 265.113281 162.492188 264.761719 162.363281 264.625 162.066406 C 264.488281 161.769531 264.621094 161.417969 264.917969 161.28125 C 269.257812 159.292969 272.0625 154.90625 272.0625 150.105469 L 272.0625 130.691406 L 259.445312 130.691406 C 252.960938 130.691406 247.683594 136.003906 247.683594 142.53125 L 247.683594 150.105469 C 247.683594 156.871094 253.152344 162.375 259.875 162.375 C 260.199219 162.375 260.46875 162.640625 260.46875 162.96875 C 260.46875 163.296875 260.199219 163.5625 259.875 163.5625 " fill-opacity="1" fill-rule="nonzero"/><path fill="#272030" d="M 260.335938 187.214844 C 250.351562 187.214844 240.917969 183.40625 233.6875 176.433594 C 218.339844 161.640625 217.816406 137.042969 232.515625 121.597656 C 240.226562 113.5 251.03125 109.160156 262.175781 109.6875 C 262.503906 109.699219 262.757812 109.980469 262.742188 110.304688 C 262.726562 110.632812 262.453125 110.886719 262.121094 110.871094 C 251.324219 110.359375 240.847656 114.570312 233.378906 122.414062 C 219.125 137.390625 219.632812 161.234375 234.511719 175.582031 C 241.714844 182.527344 251.175781 186.230469 261.152344 186.019531 C 271.128906 185.804688 280.425781 181.695312 287.335938 174.441406 C 300.914062 160.179688 301.175781 137.609375 287.933594 123.058594 C 287.710938 122.816406 287.726562 122.441406 287.972656 122.222656 C 288.214844 122 288.589844 122.015625 288.808594 122.261719 C 302.46875 137.265625 302.199219 160.546875 288.191406 175.257812 C 281.066406 182.742188 271.472656 186.984375 261.179688 187.207031 C 260.894531 187.214844 260.613281 187.214844 260.335938 187.214844 " fill-opacity="1" fill-rule="nonzero"/><path fill="#272030" d="M 290.121094 57.003906 C 289.976562 57.003906 289.835938 56.953125 289.722656 56.851562 C 278.707031 46.851562 265.917969 38.894531 251.714844 33.195312 C 251.410156 33.074219 251.265625 32.730469 251.386719 32.425781 C 251.507812 32.121094 251.851562 31.972656 252.15625 32.097656 C 266.492188 37.84375 279.398438 45.878906 290.519531 55.96875 C 290.761719 56.1875 290.78125 56.566406 290.558594 56.808594 C 290.445312 56.9375 290.285156 57.003906 290.121094 57.003906 " fill-opacity="1" fill-rule="nonzero"/><path fill="#272030" d="M 245.394531 30.808594 C 245.328125 30.808594 245.265625 30.800781 245.203125 30.78125 C 243.273438 30.121094 241.300781 29.492188 239.332031 28.917969 C 239.015625 28.824219 238.835938 28.496094 238.929688 28.179688 C 239.019531 27.867188 239.347656 27.683594 239.664062 27.777344 C 241.652344 28.359375 243.644531 28.992188 245.585938 29.65625 C 245.894531 29.761719 246.0625 30.101562 245.957031 30.410156 C 245.871094 30.65625 245.640625 30.808594 245.394531 30.808594 " fill-opacity="1" fill-rule="nonzero"/><path fill="#272030" d="M 277.503906 56.632812 C 277.378906 56.632812 277.253906 56.59375 277.148438 56.511719 C 262.714844 45.578125 245.972656 38.222656 227.382812 34.652344 C 227.058594 34.589844 226.851562 34.28125 226.910156 33.957031 C 226.972656 33.636719 227.285156 33.425781 227.605469 33.488281 C 246.375 37.09375 263.285156 44.523438 277.867188 55.566406 C 278.125 55.765625 278.175781 56.136719 277.980469 56.398438 C 277.863281 56.550781 277.683594 56.632812 277.503906 56.632812 " fill-opacity="1" fill-rule="nonzero"/><path fill="#272030" d="M 49.496094 233.742188 C 49.25 233.742188 49.023438 233.589844 48.9375 233.34375 L 47.925781 230.449219 C 47.820312 230.140625 47.980469 229.800781 48.292969 229.691406 C 48.601562 229.585938 48.9375 229.75 49.046875 230.058594 L 50.058594 232.953125 C 50.164062 233.261719 50 233.601562 49.691406 233.707031 C 49.628906 233.730469 49.5625 233.742188 49.496094 233.742188 " fill-opacity="1" fill-rule="nonzero"/><path fill="#272030" d="M 51.851562 240.484375 C 51.605469 240.484375 51.375 240.332031 51.289062 240.085938 L 50.28125 237.191406 C 50.171875 236.882812 50.335938 236.542969 50.644531 236.433594 C 50.953125 236.328125 51.292969 236.492188 51.398438 236.800781 L 52.410156 239.695312 C 52.519531 240.003906 52.355469 240.34375 52.046875 240.453125 C 51.980469 240.472656 51.914062 240.484375 51.851562 240.484375 " fill-opacity="1" fill-rule="nonzero"/><path fill="#272030" d="M 45.378906 237.359375 C 45.136719 237.359375 44.90625 237.207031 44.820312 236.960938 C 44.710938 236.652344 44.871094 236.3125 45.183594 236.203125 L 48.058594 235.1875 C 48.367188 235.078125 48.707031 235.242188 48.816406 235.550781 C 48.925781 235.859375 48.761719 236.199219 48.453125 236.308594 L 45.578125 237.324219 C 45.511719 237.347656 45.445312 237.359375 45.378906 237.359375 " fill-opacity="1" fill-rule="nonzero"/><path fill="#272030" d="M 52.082031 234.992188 C 51.835938 234.992188 51.605469 234.839844 51.519531 234.59375 C 51.410156 234.285156 51.574219 233.945312 51.882812 233.835938 L 54.757812 232.820312 C 55.066406 232.710938 55.40625 232.871094 55.515625 233.183594 C 55.625 233.492188 55.464844 233.828125 55.15625 233.941406 L 52.277344 234.957031 C 52.210938 234.976562 52.144531 234.992188 52.082031 234.992188 " fill-opacity="1" fill-rule="nonzero"/><path fill="#272030" d="M 57.667969 247.792969 C 57.414062 247.792969 57.15625 247.835938 56.910156 247.921875 C 55.714844 248.34375 55.085938 249.664062 55.507812 250.867188 C 55.710938 251.449219 56.128906 251.917969 56.683594 252.183594 C 57.230469 252.449219 57.851562 252.480469 58.425781 252.277344 C 59.617188 251.855469 60.246094 250.535156 59.828125 249.335938 C 59.621094 248.75 59.207031 248.285156 58.652344 248.015625 C 58.339844 247.867188 58.003906 247.792969 57.667969 247.792969 Z M 57.664062 253.597656 C 57.152344 253.597656 56.644531 253.480469 56.167969 253.253906 C 55.328125 252.851562 54.695312 252.140625 54.386719 251.257812 C 53.753906 249.441406 54.707031 247.441406 56.515625 246.804688 C 57.386719 246.496094 58.328125 246.546875 59.164062 246.949219 C 60.007812 247.351562 60.640625 248.058594 60.945312 248.945312 C 60.949219 248.945312 60.949219 248.945312 60.949219 248.945312 C 61.582031 250.761719 60.625 252.757812 58.820312 253.398438 C 58.441406 253.53125 58.054688 253.597656 57.664062 253.597656 " fill-opacity="1" fill-rule="nonzero"/><path fill="#4e2780" d="M 102.527344 20.617188 C 102.511719 20.617188 102.496094 20.617188 102.476562 20.617188 C 100.898438 20.484375 99.332031 20.445312 97.804688 20.496094 C 97.484375 20.515625 97.203125 20.253906 97.191406 19.925781 C 97.179688 19.601562 97.4375 19.324219 97.761719 19.3125 C 99.339844 19.257812 100.949219 19.300781 102.578125 19.433594 C 102.902344 19.460938 103.144531 19.746094 103.117188 20.070312 C 103.09375 20.382812 102.832031 20.617188 102.527344 20.617188 Z M 88.4375 22 C 88.179688 22 87.941406 21.832031 87.867188 21.574219 C 87.777344 21.257812 87.957031 20.929688 88.273438 20.835938 C 89.820312 20.390625 91.398438 20.03125 92.96875 19.777344 C 93.292969 19.726562 93.597656 19.945312 93.648438 20.269531 C 93.703125 20.59375 93.480469 20.898438 93.160156 20.949219 C 91.636719 21.199219 90.105469 21.542969 88.601562 21.976562 C 88.546875 21.992188 88.492188 22 88.4375 22 Z M 111.84375 22.375 C 111.785156 22.375 111.730469 22.367188 111.671875 22.351562 C 110.175781 21.910156 108.640625 21.539062 107.117188 21.246094 C 106.796875 21.1875 106.585938 20.875 106.644531 20.554688 C 106.707031 20.234375 107.015625 20.019531 107.339844 20.082031 C 108.902344 20.375 110.472656 20.757812 112.011719 21.214844 C 112.324219 21.304688 112.503906 21.636719 112.410156 21.953125 C 112.335938 22.207031 112.097656 22.375 111.84375 22.375 Z M 79.699219 25.664062 C 79.492188 25.664062 79.289062 25.554688 79.179688 25.355469 C 79.023438 25.070312 79.125 24.710938 79.414062 24.550781 C 80.832031 23.765625 82.289062 23.058594 83.738281 22.445312 C 84.039062 22.320312 84.386719 22.460938 84.515625 22.765625 C 84.640625 23.066406 84.5 23.414062 84.199219 23.542969 C 82.789062 24.136719 81.371094 24.824219 79.988281 25.589844 C 79.898438 25.640625 79.796875 25.664062 79.699219 25.664062 Z M 120.617188 25.972656 C 120.519531 25.972656 120.425781 25.949219 120.335938 25.898438 C 118.984375 25.171875 117.558594 24.5 116.097656 23.902344 C 115.796875 23.78125 115.648438 23.433594 115.773438 23.128906 C 115.898438 22.828125 116.246094 22.679688 116.546875 22.804688 C 118.046875 23.417969 119.511719 24.109375 120.898438 24.855469 C 121.1875 25.011719 121.292969 25.375 121.140625 25.660156 C 121.03125 25.859375 120.828125 25.972656 120.617188 25.972656 Z M 150.824219 26.066406 C 150.800781 26.066406 150.777344 26.0625 150.753906 26.0625 C 149.195312 25.878906 147.621094 25.757812 146.070312 25.707031 C 145.742188 25.695312 145.484375 25.421875 145.496094 25.09375 C 145.507812 24.765625 145.789062 24.515625 146.109375 24.519531 C 147.691406 24.574219 149.300781 24.695312 150.890625 24.882812 C 151.214844 24.921875 151.449219 25.214844 151.410156 25.542969 C 151.375 25.84375 151.121094 26.066406 150.824219 26.066406 Z M 136.617188 26.183594 C 136.324219 26.183594 136.070312 25.964844 136.03125 25.667969 C 135.988281 25.339844 136.21875 25.042969 136.542969 25.003906 L 137.34375 24.902344 C 138.65625 24.742188 139.988281 24.625 141.3125 24.558594 C 141.644531 24.539062 141.921875 24.792969 141.9375 25.121094 C 141.953125 25.449219 141.703125 25.726562 141.375 25.746094 C 140.078125 25.808594 138.773438 25.925781 137.492188 26.082031 L 136.691406 26.179688 C 136.667969 26.183594 136.644531 26.183594 136.617188 26.183594 Z M 160.128906 27.902344 C 160.078125 27.902344 160.023438 27.894531 159.96875 27.882812 C 158.453125 27.460938 156.914062 27.09375 155.394531 26.792969 C 155.074219 26.730469 154.863281 26.417969 154.929688 26.097656 C 154.992188 25.773438 155.304688 25.566406 155.625 25.628906 C 157.171875 25.9375 158.742188 26.304688 160.285156 26.738281 C 160.601562 26.824219 160.789062 27.152344 160.699219 27.46875 C 160.628906 27.730469 160.386719 27.902344 160.128906 27.902344 Z M 127.34375 28.125 C 127.097656 28.125 126.867188 27.96875 126.78125 27.726562 C 126.675781 27.417969 126.839844 27.078125 127.148438 26.972656 C 128.566406 26.476562 130.09375 26.070312 131.8125 25.730469 C 132.136719 25.667969 132.445312 25.878906 132.511719 26.199219 C 132.574219 26.523438 132.363281 26.835938 132.042969 26.898438 C 130.378906 27.226562 128.902344 27.617188 127.539062 28.089844 C 127.472656 28.113281 127.40625 28.125 127.34375 28.125 Z M 71.867188 31.015625 C 71.695312 31.015625 71.527344 30.941406 71.410156 30.796875 C 71.203125 30.542969 71.238281 30.167969 71.492188 29.960938 C 72.75 28.933594 74.039062 27.960938 75.328125 27.078125 C 75.597656 26.894531 75.96875 26.960938 76.152344 27.230469 C 76.339844 27.503906 76.269531 27.871094 76 28.054688 C 74.738281 28.921875 73.472656 29.871094 72.246094 30.878906 C 72.132812 30.96875 72 31.015625 71.867188 31.015625 Z M 169.070312 31.074219 C 168.992188 31.074219 168.914062 31.058594 168.835938 31.023438 C 167.390625 30.398438 165.917969 29.816406 164.457031 29.296875 C 164.144531 29.1875 163.984375 28.851562 164.09375 28.539062 C 164.207031 28.234375 164.542969 28.070312 164.855469 28.179688 C 166.339844 28.707031 167.839844 29.296875 169.308594 29.933594 C 169.609375 30.066406 169.746094 30.414062 169.617188 30.71875 C 169.519531 30.941406 169.300781 31.074219 169.070312 31.074219 Z M 128.339844 31.453125 C 128.191406 31.453125 128.046875 31.398438 127.933594 31.292969 C 126.839844 30.265625 125.621094 29.277344 124.3125 28.355469 C 124.046875 28.167969 123.980469 27.796875 124.171875 27.527344 C 124.359375 27.261719 124.730469 27.199219 124.996094 27.386719 C 126.351562 28.339844 127.609375 29.363281 128.746094 30.425781 C 128.984375 30.652344 128.996094 31.027344 128.769531 31.265625 C 128.65625 31.390625 128.496094 31.453125 128.339844 31.453125 Z M 119.246094 32.941406 C 119.089844 32.941406 118.929688 32.878906 118.8125 32.75 C 118.589844 32.511719 118.601562 32.136719 118.839844 31.914062 C 120.027344 30.804688 121.335938 29.820312 122.734375 28.996094 C 123.019531 28.832031 123.382812 28.925781 123.546875 29.207031 C 123.714844 29.492188 123.621094 29.855469 123.339844 30.019531 C 122.015625 30.800781 120.773438 31.730469 119.652344 32.78125 C 119.539062 32.886719 119.390625 32.941406 119.246094 32.941406 Z M 177.515625 35.40625 C 177.414062 35.40625 177.308594 35.378906 177.210938 35.320312 C 175.871094 34.519531 174.484375 33.753906 173.09375 33.039062 C 172.800781 32.886719 172.6875 32.53125 172.835938 32.238281 C 172.988281 31.945312 173.34375 31.832031 173.636719 31.980469 C 175.050781 32.707031 176.457031 33.488281 177.820312 34.300781 C 178.105469 34.46875 178.195312 34.835938 178.027344 35.117188 C 177.917969 35.300781 177.71875 35.40625 177.515625 35.40625 Z M 64.988281 37.558594 C 64.84375 37.558594 64.703125 37.503906 64.585938 37.402344 C 64.347656 37.179688 64.332031 36.804688 64.554688 36.5625 C 65.683594 35.332031 66.78125 34.214844 67.902344 33.140625 C 68.140625 32.914062 68.515625 32.925781 68.742188 33.160156 C 68.96875 33.398438 68.960938 33.773438 68.722656 34 C 67.617188 35.054688 66.539062 36.15625 65.425781 37.367188 C 65.308594 37.492188 65.148438 37.558594 64.988281 37.558594 Z M 133.964844 39.023438 C 133.742188 39.023438 133.527344 38.898438 133.425781 38.683594 C 132.800781 37.335938 132 36.007812 131.042969 34.734375 C 130.84375 34.476562 130.898438 34.101562 131.160156 33.90625 C 131.421875 33.707031 131.792969 33.757812 131.988281 34.019531 C 132.996094 35.359375 133.84375 36.761719 134.503906 38.183594 C 134.640625 38.480469 134.511719 38.832031 134.214844 38.96875 C 134.132812 39.007812 134.046875 39.023438 133.964844 39.023438 Z M 113.742188 40.617188 C 113.660156 40.617188 113.578125 40.597656 113.5 40.5625 C 113.199219 40.425781 113.066406 40.074219 113.203125 39.777344 C 113.855469 38.339844 114.679688 36.929688 115.648438 35.574219 C 115.839844 35.3125 116.210938 35.25 116.476562 35.441406 C 116.742188 35.632812 116.804688 36.003906 116.613281 36.269531 C 115.6875 37.558594 114.902344 38.902344 114.285156 40.265625 C 114.183594 40.484375 113.96875 40.617188 113.742188 40.617188 Z M 185.289062 40.84375 C 185.160156 40.84375 185.027344 40.800781 184.917969 40.710938 C 183.675781 39.699219 182.410156 38.742188 181.167969 37.875 C 180.898438 37.683594 180.832031 37.316406 181.019531 37.046875 C 181.207031 36.777344 181.578125 36.714844 181.847656 36.898438 C 183.117188 37.785156 184.402344 38.757812 185.667969 39.789062 C 185.921875 39.996094 185.957031 40.371094 185.75 40.625 C 185.636719 40.769531 185.460938 40.84375 185.289062 40.84375 Z M 58.945312 44.875 C 58.824219 44.875 58.703125 44.839844 58.597656 44.761719 C 58.332031 44.574219 58.273438 44.203125 58.460938 43.9375 C 59.390625 42.644531 60.378906 41.371094 61.394531 40.152344 C 61.605469 39.898438 61.980469 39.867188 62.230469 40.078125 C 62.484375 40.285156 62.515625 40.660156 62.308594 40.910156 C 61.308594 42.109375 60.339844 43.359375 59.425781 44.628906 C 59.3125 44.789062 59.128906 44.875 58.945312 44.875 Z M 192.273438 47.269531 C 192.117188 47.269531 191.964844 47.210938 191.847656 47.089844 C 190.730469 45.941406 189.597656 44.832031 188.472656 43.796875 C 188.230469 43.578125 188.214844 43.199219 188.4375 42.960938 C 188.660156 42.71875 189.035156 42.703125 189.277344 42.925781 C 190.414062 43.976562 191.566406 45.097656 192.699219 46.261719 C 192.925781 46.496094 192.921875 46.871094 192.6875 47.101562 C 192.570312 47.214844 192.421875 47.269531 192.273438 47.269531 Z M 135.804688 48.257812 C 135.800781 48.257812 135.800781 48.257812 135.796875 48.257812 C 135.46875 48.25 135.207031 47.980469 135.210938 47.65625 L 135.214844 47.339844 C 135.214844 45.535156 135.003906 44.007812 134.824219 43.042969 C 134.765625 42.722656 134.980469 42.414062 135.300781 42.355469 C 135.625 42.296875 135.933594 42.507812 135.992188 42.832031 C 136.179688 43.84375 136.398438 45.445312 136.398438 47.339844 C 136.398438 47.449219 136.398438 47.558594 136.398438 47.671875 C 136.394531 47.996094 136.128906 48.257812 135.804688 48.257812 Z M 112.039062 49.847656 C 111.734375 49.847656 111.472656 49.613281 111.445312 49.304688 C 111.40625 48.8125 111.386719 48.316406 111.386719 47.824219 C 111.386719 46.695312 111.496094 45.550781 111.710938 44.417969 C 111.773438 44.097656 112.085938 43.886719 112.40625 43.949219 C 112.726562 44.007812 112.9375 44.320312 112.875 44.640625 C 112.675781 45.699219 112.570312 46.769531 112.570312 47.824219 C 112.570312 48.28125 112.589844 48.746094 112.628906 49.203125 C 112.65625 49.53125 112.414062 49.820312 112.089844 49.84375 C 112.070312 49.847656 112.054688 49.847656 112.039062 49.847656 Z M 53.976562 52.953125 C 53.886719 52.953125 53.792969 52.933594 53.703125 52.886719 C 53.414062 52.738281 53.300781 52.378906 53.453125 52.085938 C 54.191406 50.671875 54.984375 49.269531 55.8125 47.921875 C 55.984375 47.644531 56.347656 47.558594 56.628906 47.726562 C 56.90625 47.898438 56.996094 48.265625 56.824219 48.546875 C 56.011719 49.867188 55.230469 51.242188 54.503906 52.636719 C 54.398438 52.839844 54.191406 52.953125 53.976562 52.953125 Z M 198.570312 54.371094 C 198.398438 54.371094 198.226562 54.296875 198.109375 54.152344 C 197.691406 53.636719 197.285156 53.148438 196.894531 52.679688 C 196.285156 51.957031 195.664062 51.238281 195.054688 50.550781 C 194.839844 50.304688 194.863281 49.929688 195.105469 49.710938 C 195.351562 49.496094 195.726562 49.515625 195.941406 49.761719 C 196.5625 50.460938 197.1875 51.183594 197.804688 51.917969 C 198.199219 52.386719 198.609375 52.882812 199.03125 53.402344 C 199.238281 53.65625 199.199219 54.03125 198.945312 54.234375 C 198.835938 54.324219 198.703125 54.371094 198.570312 54.371094 Z M 133.511719 57.367188 C 133.410156 57.367188 133.3125 57.339844 133.21875 57.289062 C 132.933594 57.128906 132.832031 56.765625 132.992188 56.480469 C 133.722656 55.1875 134.28125 53.757812 134.652344 52.226562 C 134.730469 51.90625 135.050781 51.710938 135.371094 51.789062 C 135.6875 51.863281 135.882812 52.1875 135.808594 52.503906 C 135.410156 54.144531 134.8125 55.679688 134.027344 57.066406 C 133.917969 57.257812 133.71875 57.367188 133.511719 57.367188 Z M 115.023438 58.785156 C 114.820312 58.785156 114.625 58.683594 114.515625 58.496094 C 113.695312 57.140625 113.007812 55.652344 112.472656 54.078125 C 112.367188 53.765625 112.535156 53.429688 112.847656 53.324219 C 113.15625 53.21875 113.492188 53.386719 113.597656 53.695312 C 114.097656 55.171875 114.765625 56.617188 115.53125 57.886719 C 115.699219 58.164062 115.609375 58.53125 115.328125 58.699219 C 115.234375 58.757812 115.125 58.785156 115.023438 58.785156 Z M 50.167969 61.644531 C 50.097656 61.644531 50.03125 61.632812 49.964844 61.609375 C 49.65625 61.496094 49.496094 61.152344 49.609375 60.847656 C 50.15625 59.34375 50.753906 57.847656 51.386719 56.40625 C 51.515625 56.105469 51.867188 55.96875 52.167969 56.097656 C 52.46875 56.230469 52.605469 56.582031 52.472656 56.878906 C 51.851562 58.300781 51.261719 59.769531 50.726562 61.25 C 50.636719 61.496094 50.410156 61.644531 50.167969 61.644531 Z M 204.246094 61.980469 C 204.054688 61.980469 203.867188 61.890625 203.753906 61.722656 C 202.863281 60.421875 201.941406 59.128906 201.011719 57.878906 C 200.8125 57.617188 200.867188 57.246094 201.128906 57.046875 C 201.394531 56.851562 201.765625 56.90625 201.960938 57.167969 C 202.90625 58.433594 203.839844 59.742188 204.734375 61.050781 C 204.917969 61.320312 204.851562 61.691406 204.578125 61.875 C 204.476562 61.949219 204.359375 61.980469 204.246094 61.980469 Z M 126.816406 63.914062 C 126.589844 63.914062 126.375 63.785156 126.273438 63.570312 C 126.136719 63.269531 126.269531 62.917969 126.566406 62.78125 C 127.804688 62.210938 129.03125 61.320312 130.210938 60.125 C 130.441406 59.890625 130.820312 59.890625 131.050781 60.117188 C 131.285156 60.347656 131.289062 60.722656 131.058594 60.957031 C 129.773438 62.253906 128.429688 63.230469 127.0625 63.859375 C 126.980469 63.898438 126.898438 63.914062 126.816406 63.914062 Z M 122.191406 64.570312 C 122.15625 64.570312 122.121094 64.566406 122.085938 64.5625 C 120.523438 64.277344 119.019531 63.515625 117.625 62.300781 C 117.378906 62.085938 117.351562 61.707031 117.566406 61.464844 C 117.785156 61.214844 118.15625 61.191406 118.40625 61.40625 C 119.636719 62.480469 120.945312 63.148438 122.296875 63.390625 C 122.621094 63.453125 122.832031 63.761719 122.777344 64.082031 C 122.722656 64.367188 122.472656 64.570312 122.191406 64.570312 Z M 209.289062 70.023438 C 209.082031 70.023438 208.882812 69.914062 208.773438 69.722656 C 207.988281 68.359375 207.171875 66.996094 206.34375 65.671875 C 206.167969 65.394531 206.25 65.03125 206.527344 64.855469 C 206.808594 64.683594 207.171875 64.765625 207.347656 65.042969 C 208.183594 66.378906 209.011719 67.753906 209.800781 69.132812 C 209.964844 69.417969 209.867188 69.78125 209.582031 69.941406 C 209.488281 69.996094 209.386719 70.023438 209.289062 70.023438 Z M 47.472656 70.738281 C 47.425781 70.738281 47.382812 70.734375 47.335938 70.726562 C 47.015625 70.652344 46.816406 70.332031 46.894531 70.011719 C 47.257812 68.453125 47.667969 66.898438 48.117188 65.390625 C 48.207031 65.074219 48.535156 64.898438 48.851562 64.988281 C 49.167969 65.082031 49.347656 65.414062 49.253906 65.726562 C 48.8125 67.210938 48.410156 68.746094 48.046875 70.28125 C 47.984375 70.554688 47.742188 70.738281 47.472656 70.738281 Z M 213.699219 78.425781 C 213.480469 78.425781 213.265625 78.304688 213.164062 78.089844 C 212.484375 76.667969 211.773438 75.25 211.046875 73.863281 C 210.894531 73.574219 211.007812 73.214844 211.296875 73.0625 C 211.585938 72.910156 211.945312 73.023438 212.097656 73.3125 C 212.832031 74.710938 213.550781 76.144531 214.234375 77.578125 C 214.378906 77.871094 214.253906 78.226562 213.957031 78.371094 C 213.875 78.40625 213.785156 78.425781 213.699219 78.425781 Z M 45.796875 80.082031 C 45.773438 80.082031 45.75 80.082031 45.722656 80.078125 C 45.398438 80.039062 45.167969 79.738281 45.210938 79.414062 C 45.410156 77.824219 45.652344 76.238281 45.929688 74.691406 C 45.988281 74.371094 46.296875 74.15625 46.617188 74.210938 C 46.941406 74.269531 47.15625 74.578125 47.097656 74.902344 C 46.824219 76.425781 46.585938 77.992188 46.386719 79.566406 C 46.347656 79.867188 46.09375 80.082031 45.796875 80.082031 Z M 217.488281 87.128906 C 217.25 87.128906 217.027344 86.988281 216.933594 86.753906 C 216.355469 85.289062 215.75 83.820312 215.125 82.386719 C 214.996094 82.085938 215.132812 81.738281 215.433594 81.605469 C 215.734375 81.476562 216.085938 81.613281 216.214844 81.914062 C 216.84375 83.359375 217.457031 84.84375 218.039062 86.320312 C 218.160156 86.625 218.007812 86.96875 217.703125 87.089844 C 217.632812 87.117188 217.558594 87.128906 217.488281 87.128906 Z M 45.035156 89.546875 C 45.03125 89.546875 45.023438 89.546875 45.015625 89.546875 C 44.6875 89.535156 44.433594 89.257812 44.445312 88.929688 C 44.5 87.328125 44.59375 85.722656 44.71875 84.164062 C 44.746094 83.839844 45.027344 83.59375 45.359375 83.621094 C 45.683594 83.648438 45.929688 83.933594 45.902344 84.257812 C 45.777344 85.800781 45.6875 87.386719 45.628906 88.972656 C 45.617188 89.292969 45.355469 89.546875 45.035156 89.546875 Z M 220.65625 96.074219 C 220.40625 96.074219 220.171875 95.914062 220.09375 95.664062 C 219.617188 94.160156 219.109375 92.652344 218.589844 91.179688 C 218.480469 90.871094 218.640625 90.535156 218.949219 90.421875 C 219.261719 90.3125 219.597656 90.476562 219.707031 90.785156 C 220.234375 92.265625 220.746094 93.789062 221.222656 95.304688 C 221.324219 95.613281 221.152344 95.949219 220.839844 96.046875 C 220.777344 96.066406 220.71875 96.074219 220.65625 96.074219 Z M 45.078125 99.039062 C 44.761719 99.039062 44.496094 98.789062 44.484375 98.46875 C 44.414062 96.867188 44.375 95.265625 44.371094 93.699219 C 44.367188 93.375 44.632812 93.109375 44.960938 93.105469 C 44.960938 93.105469 44.960938 93.105469 44.964844 93.105469 C 45.289062 93.105469 45.554688 93.371094 45.554688 93.695312 C 45.5625 95.246094 45.601562 96.832031 45.667969 98.421875 C 45.683594 98.746094 45.429688 99.023438 45.101562 99.039062 C 45.09375 99.039062 45.085938 99.039062 45.078125 99.039062 Z M 223.230469 105.214844 C 222.964844 105.214844 222.722656 105.03125 222.65625 104.761719 C 222.277344 103.234375 221.871094 101.695312 221.449219 100.191406 C 221.359375 99.875 221.542969 99.546875 221.859375 99.457031 C 222.171875 99.371094 222.503906 99.554688 222.589844 99.871094 C 223.019531 101.386719 223.425781 102.9375 223.808594 104.476562 C 223.886719 104.796875 223.695312 105.117188 223.375 105.195312 C 223.324219 105.207031 223.28125 105.214844 223.230469 105.214844 Z M 45.816406 108.503906 C 45.515625 108.503906 45.261719 108.277344 45.226562 107.976562 C 45.046875 106.378906 44.894531 104.785156 44.773438 103.230469 C 44.746094 102.902344 44.992188 102.617188 45.316406 102.59375 C 45.648438 102.570312 45.929688 102.808594 45.957031 103.136719 C 46.078125 104.675781 46.226562 106.261719 46.40625 107.84375 C 46.441406 108.167969 46.207031 108.464844 45.882812 108.5 C 45.859375 108.5 45.835938 108.503906 45.816406 108.503906 Z M 47.121094 117.90625 C 46.835938 117.90625 46.585938 117.703125 46.539062 117.410156 C 46.480469 117.054688 46.421875 116.695312 46.367188 116.335938 C 46.210938 115.308594 46.023438 114.089844 45.824219 112.703125 C 45.78125 112.378906 46.007812 112.078125 46.332031 112.03125 C 46.65625 111.988281 46.957031 112.210938 47 112.539062 C 47.195312 113.921875 47.382812 115.132812 47.539062 116.152344 C 47.59375 116.511719 47.652344 116.863281 47.707031 117.21875 C 47.761719 117.542969 47.542969 117.847656 47.21875 117.898438 C 47.1875 117.90625 47.152344 117.90625 47.121094 117.90625 Z M 49.023438 127.207031 C 48.757812 127.207031 48.515625 127.027344 48.449219 126.757812 C 48.070312 125.21875 47.714844 123.652344 47.398438 122.101562 C 47.332031 121.78125 47.539062 121.464844 47.863281 121.398438 C 48.183594 121.335938 48.496094 121.542969 48.5625 121.863281 C 48.875 123.398438 49.226562 124.949219 49.601562 126.46875 C 49.679688 126.789062 49.484375 127.109375 49.167969 127.1875 C 49.121094 127.199219 49.070312 127.207031 49.023438 127.207031 Z M 51.667969 136.324219 C 51.421875 136.324219 51.1875 136.167969 51.105469 135.917969 C 50.605469 134.414062 50.125 132.882812 49.6875 131.363281 C 49.59375 131.046875 49.777344 130.71875 50.089844 130.628906 C 50.40625 130.535156 50.734375 130.71875 50.824219 131.03125 C 51.261719 132.539062 51.734375 134.054688 52.230469 135.542969 C 52.335938 135.851562 52.167969 136.1875 51.855469 136.292969 C 51.792969 136.3125 51.730469 136.324219 51.667969 136.324219 Z M 55.03125 145.199219 C 54.800781 145.199219 54.582031 145.0625 54.488281 144.839844 C 53.867188 143.378906 53.265625 141.890625 52.707031 140.414062 C 52.589844 140.105469 52.746094 139.761719 53.050781 139.644531 C 53.359375 139.53125 53.699219 139.683594 53.816406 139.992188 C 54.371094 141.457031 54.964844 142.929688 55.578125 144.375 C 55.707031 144.675781 55.566406 145.023438 55.265625 145.152344 C 55.1875 145.1875 55.109375 145.199219 55.03125 145.199219 Z M 59.089844 153.785156 C 58.875 153.785156 58.667969 153.667969 58.5625 153.464844 C 57.832031 152.0625 57.117188 150.625 56.4375 149.191406 C 56.296875 148.894531 56.425781 148.539062 56.722656 148.402344 C 57.019531 148.261719 57.371094 148.390625 57.511719 148.683594 C 58.183594 150.105469 58.890625 151.527344 59.613281 152.914062 C 59.765625 153.207031 59.652344 153.5625 59.363281 153.714844 C 59.273438 153.761719 59.179688 153.785156 59.089844 153.785156 Z M 63.8125 162.019531 C 63.617188 162.019531 63.421875 161.917969 63.308594 161.738281 C 62.46875 160.402344 61.644531 159.027344 60.855469 157.648438 C 60.691406 157.367188 60.789062 157 61.074219 156.839844 C 61.359375 156.675781 61.71875 156.773438 61.882812 157.058594 C 62.664062 158.421875 63.484375 159.78125 64.316406 161.109375 C 64.488281 161.386719 64.40625 161.753906 64.128906 161.925781 C 64.03125 161.988281 63.921875 162.019531 63.8125 162.019531 Z M 69.1875 169.847656 C 69.003906 169.847656 68.828125 169.765625 68.710938 169.609375 C 68.511719 169.34375 68.316406 169.082031 68.121094 168.8125 C 67.375 167.800781 66.640625 166.765625 65.929688 165.730469 C 65.746094 165.460938 65.8125 165.089844 66.082031 164.90625 C 66.351562 164.71875 66.722656 164.789062 66.910156 165.058594 C 67.609375 166.082031 68.339844 167.109375 69.078125 168.109375 C 69.269531 168.375 69.464844 168.636719 69.660156 168.898438 C 69.855469 169.160156 69.804688 169.535156 69.539062 169.726562 C 69.433594 169.808594 69.308594 169.847656 69.1875 169.847656 Z M 75.171875 177.210938 C 75.007812 177.210938 74.84375 177.144531 74.726562 177.011719 C 73.679688 175.824219 72.640625 174.597656 71.644531 173.371094 C 71.4375 173.117188 71.476562 172.742188 71.730469 172.539062 C 71.984375 172.328125 72.359375 172.371094 72.566406 172.625 C 73.550781 173.839844 74.578125 175.050781 75.617188 176.226562 C 75.832031 176.472656 75.808594 176.851562 75.5625 177.066406 C 75.449219 177.164062 75.308594 177.210938 75.171875 177.210938 Z M 81.730469 184.074219 C 81.582031 184.074219 81.433594 184.019531 81.320312 183.90625 C 80.179688 182.808594 79.046875 181.667969 77.953125 180.523438 C 77.726562 180.289062 77.734375 179.914062 77.972656 179.6875 C 78.207031 179.460938 78.582031 179.46875 78.808594 179.707031 C 79.890625 180.835938 81.015625 181.964844 82.144531 183.050781 C 82.378906 183.28125 82.386719 183.65625 82.15625 183.890625 C 82.042969 184.011719 81.886719 184.074219 81.730469 184.074219 Z M 88.820312 190.382812 C 88.6875 190.382812 88.554688 190.339844 88.445312 190.246094 C 87.222656 189.246094 86.003906 188.203125 84.820312 187.148438 C 84.574219 186.933594 84.550781 186.554688 84.769531 186.3125 C 84.988281 186.066406 85.363281 186.042969 85.609375 186.261719 C 86.78125 187.304688 87.988281 188.335938 89.199219 189.332031 C 89.453125 189.539062 89.488281 189.914062 89.28125 190.164062 C 89.164062 190.308594 88.992188 190.382812 88.820312 190.382812 Z M 96.394531 196.105469 C 96.277344 196.105469 96.160156 196.074219 96.054688 196 C 94.757812 195.097656 93.457031 194.15625 92.191406 193.199219 C 91.933594 193 91.878906 192.632812 92.078125 192.371094 C 92.273438 192.109375 92.648438 192.058594 92.910156 192.253906 C 94.160156 193.199219 95.445312 194.132812 96.734375 195.023438 C 97 195.214844 97.066406 195.582031 96.882812 195.851562 C 96.765625 196.015625 96.582031 196.105469 96.394531 196.105469 " fill-opacity="1" fill-rule="nonzero"/></svg>