<svg xmlns="http://www.w3.org/2000/svg" xmlns:xlink="http://www.w3.org/1999/xlink" width="500" zoomAndPan="magnify" viewBox="0 0 375 374.999991" height="500" preserveAspectRatio="xMidYMid meet" version="1.0"><defs><clipPath id="fe6aa17e10"><path d="M 285 54.441406 L 371 54.441406 L 371 140 L 285 140 Z M 285 54.441406 " clip-rule="nonzero"/></clipPath><clipPath id="46eec01135"><path d="M 94 279 L 124 279 L 124 296.691406 L 94 296.691406 Z M 94 279 " clip-rule="nonzero"/></clipPath></defs><g clip-path="url(#fe6aa17e10)"><path fill="#e8d3c8" d="M 367.734375 89.058594 L 363.042969 89.058594 C 362.21875 85.410156 360.808594 81.980469 358.945312 78.859375 L 362.394531 75.410156 C 363.617188 74.191406 363.617188 72.21875 362.394531 71 L 354.835938 63.449219 C 353.613281 62.230469 351.640625 62.230469 350.417969 63.449219 L 347.097656 66.765625 C 344.019531 64.832031 340.601562 63.359375 336.980469 62.4375 L 336.980469 57.570312 C 336.980469 55.847656 335.578125 54.449219 333.851562 54.449219 L 323.167969 54.449219 C 321.445312 54.449219 320.042969 55.847656 320.042969 57.570312 L 320.042969 62.261719 C 316.390625 63.085938 312.957031 64.492188 309.824219 66.339844 L 306.371094 62.894531 C 305.148438 61.671875 303.175781 61.671875 301.953125 62.894531 L 294.394531 70.445312 C 293.171875 71.664062 293.171875 73.632812 294.394531 74.855469 L 297.722656 78.179688 C 295.773438 81.261719 294.308594 84.652344 293.390625 88.277344 L 288.507812 88.277344 C 286.78125 88.277344 285.382812 89.675781 285.382812 91.398438 L 285.382812 102.070312 C 285.382812 103.792969 286.78125 105.191406 288.507812 105.191406 L 293.210938 105.191406 C 294.023438 108.839844 295.433594 112.269531 297.296875 115.394531 L 293.847656 118.839844 C 292.625 120.058594 292.625 122.03125 293.847656 123.25 L 301.40625 130.800781 C 302.628906 132.023438 304.601562 132.023438 305.824219 130.800781 L 309.140625 127.484375 C 312.230469 129.417969 315.625 130.894531 319.253906 131.8125 L 319.253906 136.679688 C 319.253906 138.40625 320.65625 139.804688 322.378906 139.804688 L 333.0625 139.804688 C 334.789062 139.804688 336.191406 138.40625 336.191406 136.679688 L 336.191406 131.992188 C 339.84375 131.164062 343.277344 129.773438 346.394531 127.910156 C 346.394531 127.910156 346.394531 127.910156 346.402344 127.910156 L 349.851562 131.359375 C 351.074219 132.578125 353.046875 132.578125 354.269531 131.359375 L 361.828125 123.808594 C 363.050781 122.585938 363.050781 120.617188 361.828125 119.394531 L 358.511719 116.082031 C 360.460938 112.996094 361.9375 109.605469 362.859375 105.980469 L 367.726562 105.980469 C 369.449219 105.980469 370.851562 104.582031 370.851562 102.859375 L 370.851562 92.1875 C 370.859375 90.457031 369.457031 89.058594 367.734375 89.058594 Z M 328.121094 116.984375 C 317.140625 116.984375 308.238281 108.097656 308.238281 97.125 C 308.238281 85.710938 317.875 76.554688 329.449219 77.304688 C 339.347656 77.945312 347.386719 86.015625 347.980469 95.90625 C 348.667969 107.433594 339.515625 116.984375 328.121094 116.984375 Z M 328.121094 116.984375 " fill-opacity="1" fill-rule="nonzero"/></g><path fill="#e8d3c8" d="M 205.15625 189.746094 L 202.257812 189.746094 C 201.746094 187.488281 200.878906 185.371094 199.71875 183.4375 L 201.855469 181.304688 C 202.605469 180.558594 202.605469 179.328125 201.855469 178.578125 L 197.179688 173.910156 C 196.429688 173.160156 195.199219 173.160156 194.449219 173.910156 L 192.398438 175.960938 C 190.496094 174.761719 188.382812 173.851562 186.140625 173.285156 L 186.140625 170.28125 C 186.140625 169.214844 185.273438 168.347656 184.207031 168.347656 L 177.597656 168.347656 C 176.53125 168.347656 175.664062 169.214844 175.664062 170.28125 L 175.664062 173.175781 C 173.40625 173.6875 171.277344 174.554688 169.34375 175.703125 L 167.214844 173.578125 C 166.464844 172.828125 165.234375 172.828125 164.484375 173.578125 L 159.8125 178.246094 C 159.0625 178.996094 159.0625 180.226562 159.8125 180.972656 L 161.871094 183.03125 C 160.664062 184.929688 159.757812 187.03125 159.183594 189.273438 L 156.167969 189.273438 C 155.101562 189.273438 154.234375 190.140625 154.234375 191.207031 L 154.234375 197.804688 C 154.234375 198.871094 155.101562 199.734375 156.167969 199.734375 L 159.078125 199.734375 C 159.582031 201.992188 160.445312 204.109375 161.605469 206.042969 L 159.472656 208.175781 C 158.722656 208.925781 158.722656 210.152344 159.472656 210.902344 L 164.144531 215.570312 C 164.894531 216.320312 166.125 216.320312 166.875 215.570312 L 168.925781 213.523438 C 170.828125 214.71875 172.933594 215.632812 175.175781 216.203125 L 175.175781 219.207031 C 175.175781 220.273438 176.042969 221.140625 177.113281 221.140625 L 183.71875 221.140625 C 184.785156 221.140625 185.652344 220.273438 185.652344 219.207031 L 185.652344 216.3125 C 187.914062 215.800781 190.039062 214.9375 191.964844 213.785156 L 194.101562 215.917969 C 194.851562 216.667969 196.082031 216.667969 196.832031 215.917969 L 201.507812 211.25 C 202.257812 210.5 202.257812 209.273438 201.507812 208.523438 L 199.457031 206.472656 C 200.664062 204.574219 201.574219 202.472656 202.140625 200.230469 L 205.148438 200.230469 C 206.21875 200.230469 207.085938 199.367188 207.085938 198.300781 L 207.085938 191.699219 C 207.09375 190.609375 206.226562 189.746094 205.15625 189.746094 Z M 180.671875 207.007812 C 173.886719 207.007812 168.375 201.511719 168.375 194.730469 C 168.375 187.675781 174.335938 182.007812 181.5 182.472656 C 187.617188 182.875 192.585938 187.859375 192.957031 193.972656 C 193.375 201.105469 187.710938 207.007812 180.671875 207.007812 Z M 180.671875 207.007812 " fill-opacity="1" fill-rule="nonzero"/><path fill="#efbf62" d="M 162.660156 105.308594 L 162.660156 119.140625 L 181.257812 119.140625 L 181.257812 83.347656 L 158.914062 83.347656 L 133.855469 119.140625 L 153.5 119.140625 Z M 162.660156 105.308594 " fill-opacity="1" fill-rule="nonzero"/><path fill="#a05839" d="M 162.660156 134.988281 L 143.007812 134.988281 L 147.261719 128.566406 L 126.613281 129.496094 L 121.957031 136.15625 L 121.957031 152.273438 L 161.257812 152.273438 L 161.257812 167.46875 L 181.257812 167.46875 L 181.257812 152.273438 L 190.851562 152.273438 L 190.851562 134.988281 L 181.257812 134.988281 L 181.257812 127.046875 L 162.660156 127.878906 Z M 162.660156 134.988281 " fill-opacity="1" fill-rule="nonzero"/><path fill="#a05839" d="M 227.09375 147.554688 C 216.152344 144.59375 217.171875 134.171875 220.398438 121.777344 L 201.242188 117.503906 C 195.535156 140.730469 199.511719 159.453125 222.195312 165.597656 C 245.675781 171.949219 258.691406 156.59375 265.296875 132.230469 C 265.335938 132.089844 265.359375 131.953125 265.398438 131.8125 L 246.203125 127.53125 C 242.691406 140.414062 238.371094 150.605469 227.09375 147.554688 Z M 227.09375 147.554688 " fill-opacity="1" fill-rule="nonzero"/><path fill="#efbf62" d="M 240.003906 99.96875 C 250.070312 102.695312 249.96875 111.914062 247.449219 122.726562 L 266.386719 127.847656 C 271.347656 105.71875 266.945312 87.882812 244.894531 81.917969 C 222.851562 75.953125 210.03125 89.128906 203.132812 110.734375 L 222.078125 115.855469 C 225.367188 105.261719 229.9375 97.25 240.003906 99.96875 Z M 240.003906 99.96875 " fill-opacity="1" fill-rule="nonzero"/><path fill="#a05839" d="M 336.714844 120.066406 L 318.125 120.902344 L 318.125 134.988281 L 298.472656 134.988281 L 307.476562 121.382812 L 287.113281 122.292969 L 277.414062 136.15625 L 277.414062 152.273438 L 316.714844 152.273438 L 316.714844 167.46875 L 336.714844 167.46875 L 336.714844 152.273438 L 346.308594 152.273438 L 346.308594 134.988281 L 336.714844 134.988281 Z M 336.714844 120.066406 " fill-opacity="1" fill-rule="nonzero"/><path fill="#efbf62" d="M 318.125 105.308594 L 318.125 119.140625 L 336.714844 119.140625 L 336.714844 83.347656 L 314.378906 83.347656 L 289.320312 119.140625 L 308.964844 119.140625 Z M 318.125 105.308594 " fill-opacity="1" fill-rule="nonzero"/><path fill="#563025" d="M 189.738281 184.96875 L 182.867188 184.96875 L 182.867188 188.734375 L 188.941406 188.734375 L 188.941406 192.234375 L 182.867188 192.234375 L 182.867188 196.3125 L 189.738281 196.3125 L 189.738281 199.945312 L 178.328125 199.945312 L 178.328125 181.34375 L 189.738281 181.34375 Z M 189.738281 184.96875 " fill-opacity="1" fill-rule="nonzero"/><path fill="#563025" d="M 208.269531 181.34375 C 212.832031 181.34375 215.117188 183.972656 215.117188 187.203125 C 215.117188 189.535156 213.839844 191.730469 210.976562 192.582031 L 215.277344 199.945312 L 210.15625 199.945312 L 206.28125 192.921875 L 205.1875 192.921875 L 205.1875 199.945312 L 200.65625 199.945312 L 200.65625 181.34375 Z M 207.996094 185.109375 L 205.1875 185.109375 L 205.1875 189.722656 L 207.996094 189.722656 C 209.691406 189.722656 210.488281 188.847656 210.488281 187.386719 C 210.496094 186.003906 209.699219 185.109375 207.996094 185.109375 Z M 207.996094 185.109375 " fill-opacity="1" fill-rule="nonzero"/><path fill="#563025" d="M 233.527344 181.34375 C 238.09375 181.34375 240.375 183.972656 240.375 187.203125 C 240.375 189.535156 239.101562 191.730469 236.238281 192.582031 L 240.539062 199.945312 L 235.417969 199.945312 L 231.539062 192.921875 L 230.449219 192.921875 L 230.449219 199.945312 L 225.917969 199.945312 L 225.917969 181.34375 Z M 233.257812 185.109375 L 230.449219 185.109375 L 230.449219 189.722656 L 233.257812 189.722656 C 234.953125 189.722656 235.75 188.847656 235.75 187.386719 C 235.757812 186.003906 234.960938 185.109375 233.257812 185.109375 Z M 233.257812 185.109375 " fill-opacity="1" fill-rule="nonzero"/><path fill="#563025" d="M 259.980469 200.128906 C 254.703125 200.128906 250.402344 196.179688 250.402344 190.59375 C 250.402344 185.007812 254.703125 181.082031 259.980469 181.082031 C 265.289062 181.082031 269.503906 185.007812 269.503906 190.59375 C 269.503906 196.179688 265.257812 200.128906 259.980469 200.128906 Z M 259.980469 195.996094 C 262.953125 195.996094 264.886719 193.847656 264.886719 190.585938 C 264.886719 187.273438 262.953125 185.179688 259.980469 185.179688 C 256.957031 185.179688 255.046875 187.273438 255.046875 190.585938 C 255.046875 193.847656 256.957031 195.996094 259.980469 195.996094 Z M 259.980469 195.996094 " fill-opacity="1" fill-rule="nonzero"/><path fill="#563025" d="M 287.601562 181.34375 C 292.167969 181.34375 294.449219 183.972656 294.449219 187.203125 C 294.449219 189.535156 293.171875 191.730469 290.308594 192.582031 L 294.613281 199.945312 L 289.488281 199.945312 L 285.613281 192.921875 L 284.523438 192.921875 L 284.523438 199.945312 L 279.988281 199.945312 L 279.988281 181.34375 Z M 287.339844 185.109375 L 284.53125 185.109375 L 284.53125 189.722656 L 287.339844 189.722656 C 289.035156 189.722656 289.832031 188.847656 289.832031 187.386719 C 289.832031 186.003906 289.042969 185.109375 287.339844 185.109375 Z M 287.339844 185.109375 " fill-opacity="1" fill-rule="nonzero"/><path fill="#ccaea2" d="M 50.753906 216.992188 C 50.753906 216.992188 54.042969 220.34375 52.671875 223.4375 C 51.300781 226.535156 51.203125 230.769531 52.449219 232.484375 C 53.691406 234.199219 54.992188 235.453125 54.644531 237.59375 C 54.296875 239.734375 45.484375 243.65625 38.929688 238.417969 C 32.378906 233.179688 37.398438 224.316406 38.460938 221.148438 C 39.519531 217.980469 40.871094 215.699219 40.871094 215.699219 Z M 50.753906 216.992188 " fill-opacity="1" fill-rule="nonzero"/><path fill="#e8d3c8" d="M 53.160156 218.304688 C 52.828125 219.449219 52.617188 220.128906 52.617188 220.128906 C 52.617188 220.128906 50.976562 218.96875 46.667969 218.066406 C 42.746094 217.253906 39.496094 218.46875 39.496094 218.46875 C 39.496094 218.46875 39.660156 217.585938 39.921875 216.21875 C 40.664062 212.339844 41.988281 204.425781 42.890625 201.398438 C 43.109375 200.695312 42.785156 195.878906 42.761719 190.207031 C 42.761719 189.566406 42.777344 188.917969 42.777344 188.269531 C 42.800781 185.703125 42.90625 183.03125 43.179688 180.550781 C 44.105469 171.746094 50.125 168.054688 50.125 168.054688 L 55.464844 178 C 55.464844 178 55.542969 182.386719 55.652344 187.820312 C 55.664062 188.460938 55.671875 189.125 55.6875 189.792969 C 55.757812 193.277344 55.835938 197.007812 55.914062 200.214844 C 56.089844 206.976562 54.132812 214.820312 53.160156 218.304688 Z M 53.160156 218.304688 " fill-opacity="1" fill-rule="nonzero"/><path fill="#563025" d="M 57.714844 190.496094 C 57.105469 190.183594 56.410156 189.945312 55.679688 189.777344 C 51.710938 188.792969 46.328125 189.496094 42.761719 190.199219 C 42.761719 189.558594 42.777344 188.910156 42.777344 188.261719 C 46.328125 187.574219 51.679688 186.855469 55.644531 187.8125 C 56.292969 187.960938 56.894531 188.160156 57.453125 188.40625 C 57.539062 189.089844 57.632812 189.792969 57.714844 190.496094 Z M 57.714844 190.496094 " fill-opacity="1" fill-rule="nonzero"/><path fill="#563025" d="M 52.617188 220.121094 C 52.617188 220.121094 50.976562 218.960938 46.667969 218.058594 C 42.746094 217.246094 39.496094 218.460938 39.496094 218.460938 C 39.496094 218.460938 39.21875 217.089844 39.898438 216.210938 C 39.898438 216.210938 39.914062 216.210938 39.921875 216.210938 C 40.457031 216.101562 47.386719 214.859375 53.160156 218.296875 C 53.160156 218.3125 53.175781 218.3125 53.175781 218.3125 C 53.175781 218.3125 53.585938 219.632812 52.617188 220.121094 Z M 52.617188 220.121094 " fill-opacity="1" fill-rule="nonzero"/><path fill="#ccaea2" d="M 72.554688 276.183594 C 72.554688 276.183594 72.640625 290.746094 71.984375 291.289062 C 71.324219 291.835938 40.300781 291.289062 40.300781 291.289062 C 40.300781 291.289062 39.503906 285.539062 42.875 283.730469 C 46.25 281.921875 53.320312 280.855469 53.648438 280.199219 C 53.972656 279.542969 53.980469 275.925781 53.980469 275.925781 L 64.015625 271.917969 Z M 72.554688 276.183594 " fill-opacity="1" fill-rule="nonzero"/><path fill="#e8d3c8" d="M 40.292969 291.289062 C 40.292969 291.289062 40.625 293.753906 42.101562 293.808594 C 43.582031 293.863281 71.703125 293.808594 71.703125 293.808594 C 71.703125 293.808594 72.039062 293.042969 71.976562 291.289062 Z M 40.292969 291.289062 " fill-opacity="1" fill-rule="nonzero"/><path fill="#ccaea2" d="M 115.394531 265.914062 C 115.394531 265.914062 122.488281 278.632812 122.179688 279.425781 C 121.871094 280.222656 94.414062 294.671875 94.414062 294.671875 C 94.414062 294.671875 90.945312 290.023438 93.027344 286.816406 C 95.109375 283.609375 100.796875 279.273438 100.765625 278.539062 C 100.734375 277.804688 98.992188 274.636719 98.992188 274.636719 L 107.75 269.976562 Z M 115.394531 265.914062 " fill-opacity="1" fill-rule="nonzero"/><g clip-path="url(#46eec01135)"><path fill="#e8d3c8" d="M 94.414062 294.671875 C 94.414062 294.671875 95.890625 296.675781 97.214844 296.011719 C 98.535156 295.34375 123.15625 281.769531 123.15625 281.769531 C 123.15625 281.769531 123.070312 280.941406 122.179688 279.425781 Z M 94.414062 294.671875 " fill-opacity="1" fill-rule="nonzero"/></g><path fill="#563025" d="M 118.621094 172.367188 L 111.347656 169.066406 C 117.335938 155.90625 118.328125 144.847656 114.28125 136.210938 C 108.925781 124.757812 96.207031 121.117188 96.082031 121.089844 L 98.179688 113.390625 C 98.84375 113.570312 114.496094 117.941406 121.476562 132.742188 C 126.605469 143.605469 125.644531 156.933594 118.621094 172.367188 Z M 118.621094 172.367188 " fill-opacity="1" fill-rule="nonzero"/><path fill="#ccaea2" d="M 96.53125 121.21875 C 96.277344 121.132812 96.113281 121.089844 96.082031 121.082031 L 98.1875 113.382812 C 98.1875 113.382812 98.480469 113.460938 99.007812 113.632812 Z M 96.53125 121.21875 " fill-opacity="1" fill-rule="nonzero"/><path fill="#ccaea2" d="M 120.996094 166.617188 L 113.492188 163.882812 C 113.636719 163.488281 113.777344 163.101562 113.910156 162.707031 L 121.453125 165.328125 C 121.304688 165.757812 121.152344 166.183594 120.996094 166.617188 Z M 123.0625 160.019531 L 115.324219 158.046875 C 115.425781 157.652344 115.527344 157.257812 115.613281 156.871094 L 123.394531 158.65625 C 123.285156 159.105469 123.179688 159.5625 123.0625 160.019531 Z M 124.378906 153.101562 L 116.445312 152.160156 C 116.492188 151.757812 116.539062 151.363281 116.570312 150.96875 L 124.523438 151.695312 C 124.484375 152.160156 124.429688 152.621094 124.378906 153.101562 Z M 116.6875 146.300781 C 116.671875 145.914062 116.640625 145.53125 116.609375 145.152344 L 124.570312 144.5 C 124.609375 144.980469 124.640625 145.460938 124.664062 145.953125 Z M 115.875 140.660156 C 115.78125 140.289062 115.679688 139.925781 115.574219 139.570312 L 123.222656 137.285156 C 123.363281 137.746094 123.496094 138.226562 123.617188 138.707031 Z M 113.902344 135.421875 C 113.722656 135.082031 113.546875 134.75 113.359375 134.425781 L 120.300781 130.476562 C 120.539062 130.902344 120.773438 131.328125 121.003906 131.765625 Z M 110.792969 130.738281 C 110.542969 130.445312 110.296875 130.160156 110.039062 129.882812 L 115.945312 124.511719 C 116.269531 124.867188 116.59375 125.238281 116.910156 125.617188 Z M 106.691406 126.753906 C 106.382812 126.503906 106.078125 126.273438 105.769531 126.050781 L 110.519531 119.636719 C 110.898438 119.921875 111.285156 120.214844 111.671875 120.515625 Z M 101.824219 123.539062 C 101.46875 123.34375 101.121094 123.167969 100.789062 122.996094 L 104.378906 115.871094 C 104.789062 116.082031 105.222656 116.304688 105.652344 116.535156 Z M 101.824219 123.539062 " fill-opacity="1" fill-rule="nonzero"/><path fill="#ccaea2" d="M 118.628906 172.359375 L 111.347656 169.074219 L 111.613281 168.496094 L 118.914062 171.71875 Z M 118.628906 172.359375 " fill-opacity="1" fill-rule="nonzero"/><path fill="#ccaea2" d="M 87.882812 154.199219 C 87.882812 154.199219 106.859375 146.503906 114.375 151.386719 C 121.886719 156.261719 131.09375 204.488281 128.277344 211.054688 C 125.460938 217.625 102.914062 228.503906 102.914062 228.503906 Z M 87.882812 154.199219 " fill-opacity="1" fill-rule="nonzero"/><path fill="#e8d3c8" d="M 118.851562 212.78125 C 115.882812 182.898438 107.929688 160.042969 107.851562 159.816406 L 108.476562 159.601562 C 108.554688 159.824219 116.539062 182.75 119.519531 212.71875 Z M 118.851562 212.78125 " fill-opacity="1" fill-rule="nonzero"/><path fill="#e8d3c8" d="M 115.394531 265.914062 C 115.394531 265.914062 113.714844 269.359375 108.832031 271.855469 C 103.246094 274.730469 99 274.636719 99 274.636719 C 99 274.636719 85.453125 259.175781 82.714844 248.464844 C 82.527344 247.707031 82.382812 246.988281 82.304688 246.300781 C 82.265625 245.953125 82.25 245.613281 82.234375 245.28125 C 81.996094 234.78125 82.472656 227.601562 82.472656 227.601562 C 82.472656 227.601562 74.304688 241.480469 73.273438 246.023438 C 73.25 246.113281 73.238281 246.207031 73.222656 246.285156 C 73.144531 246.710938 73.074219 247.359375 73.019531 248.1875 C 72.609375 253.726562 72.554688 267.085938 72.554688 273.121094 C 72.554688 275.007812 72.554688 276.183594 72.554688 276.183594 C 72.554688 276.183594 67.582031 275.070312 62.90625 274.867188 C 56.277344 274.589844 53.980469 275.941406 53.980469 275.941406 C 53.699219 275.503906 53.367188 274.503906 53.019531 273.121094 C 51.25 266.253906 48.863281 249.683594 49.066406 242.910156 C 49.082031 242.414062 49.105469 241.980469 49.144531 241.601562 C 49.167969 241.347656 49.214844 241.085938 49.261719 240.792969 C 50.390625 233.574219 56.65625 217.585938 56.65625 217.585938 C 56.65625 217.585938 56.121094 215.980469 55.300781 213.152344 C 55.171875 212.710938 55.039062 212.246094 54.898438 211.746094 C 54.691406 211.003906 54.460938 210.191406 54.21875 209.339844 C 54.09375 208.894531 53.980469 208.414062 53.847656 207.933594 C 53.660156 207.230469 53.476562 206.496094 53.289062 205.726562 C 53.175781 205.261719 53.050781 204.796875 52.917969 204.304688 C 52.175781 201.273438 51.386719 197.828125 50.644531 194.078125 C 47.890625 180.308594 49.144531 158.550781 49.144531 158.550781 L 94.699219 154.398438 C 94.699219 154.398438 107.6875 175.015625 111.132812 195.324219 C 111.222656 195.824219 111.300781 196.34375 111.371094 196.855469 C 111.480469 197.589844 111.574219 198.3125 111.648438 199.03125 C 111.71875 199.566406 111.757812 200.082031 111.796875 200.585938 C 111.867188 201.25 111.90625 201.898438 111.921875 202.554688 L 111.921875 202.570312 C 111.945312 203.128906 111.976562 203.675781 111.976562 204.234375 C 111.992188 206.066406 111.898438 207.871094 111.664062 209.628906 C 109.152344 229.285156 106.808594 235.042969 107.433594 241.222656 C 107.511719 241.925781 107.605469 242.628906 107.765625 243.347656 C 107.875 243.898438 108.007812 244.453125 108.167969 245.027344 C 110.414062 253.285156 115.394531 265.914062 115.394531 265.914062 Z M 115.394531 265.914062 " fill-opacity="1" fill-rule="nonzero"/><path fill="#ccaea2" d="M 68.640625 201.3125 C 68.417969 201.3125 68.222656 201.140625 68.199219 200.917969 L 65.066406 175.148438 C 65.035156 174.902344 65.214844 174.675781 65.460938 174.644531 C 65.707031 174.621094 65.933594 174.792969 65.964844 175.039062 L 69.097656 200.808594 C 69.128906 201.058594 68.949219 201.28125 68.703125 201.3125 C 68.679688 201.3125 68.664062 201.3125 68.640625 201.3125 Z M 68.640625 201.3125 " fill-opacity="1" fill-rule="nonzero"/><path fill="#ccaea2" d="M 111.371094 196.847656 C 101.113281 203.785156 82.542969 204.046875 81.730469 204.0625 L 81.714844 202.679688 C 81.917969 202.679688 101.375 202.417969 111.125 195.316406 C 111.222656 195.824219 111.308594 196.34375 111.371094 196.847656 Z M 111.371094 196.847656 " fill-opacity="1" fill-rule="nonzero"/><path fill="#ccaea2" d="M 111.796875 200.585938 C 101.453125 207.300781 83.332031 207.546875 82.535156 207.5625 L 82.519531 206.179688 C 82.722656 206.179688 101.800781 205.917969 111.648438 199.03125 C 111.71875 199.558594 111.757812 200.074219 111.796875 200.585938 Z M 111.796875 200.585938 " fill-opacity="1" fill-rule="nonzero"/><path fill="#ccaea2" d="M 111.921875 202.550781 L 111.921875 202.5625 C 102.203125 209.710938 82.589844 209.996094 82.390625 210.003906 L 82.40625 211.375 C 83.21875 211.375 101.699219 211.109375 111.976562 204.226562 Z M 111.921875 202.550781 " fill-opacity="1" fill-rule="nonzero"/><path fill="#ccaea2" d="M 63.023438 205.679688 C 62.769531 205.695312 60.773438 205.839844 57.832031 205.839844 C 56.484375 205.839844 54.953125 205.816406 53.289062 205.726562 C 53.175781 205.261719 53.050781 204.796875 52.917969 204.304688 C 58.503906 204.621094 62.824219 204.304688 62.914062 204.304688 Z M 63.023438 205.679688 " fill-opacity="1" fill-rule="nonzero"/><path fill="#ccaea2" d="M 62.558594 209.226562 C 62.304688 209.242188 60.308594 209.386719 57.367188 209.386719 C 56.410156 209.386719 55.355469 209.371094 54.226562 209.332031 C 54.101562 208.886719 53.988281 208.40625 53.855469 207.925781 C 58.753906 208.128906 62.375 207.859375 62.453125 207.859375 Z M 62.558594 209.226562 " fill-opacity="1" fill-rule="nonzero"/><path fill="#ccaea2" d="M 63.023438 213.011719 C 62.769531 213.035156 60.773438 213.179688 57.832031 213.179688 C 57.050781 213.179688 56.207031 213.167969 55.300781 213.144531 C 55.171875 212.703125 55.039062 212.238281 54.898438 211.738281 C 59.503906 211.898438 62.832031 211.644531 62.914062 211.644531 Z M 63.023438 213.011719 " fill-opacity="1" fill-rule="nonzero"/><path fill="#ccaea2" d="M 58.527344 202.851562 C 58.527344 202.851562 81.996094 200.46875 82.636719 200.957031 C 83.277344 201.4375 83.449219 209.664062 84.796875 214.835938 C 84.796875 214.835938 63.628906 217.46875 61.632812 216.773438 C 59.644531 216.078125 57.980469 205.222656 58.527344 202.851562 Z M 58.527344 202.851562 " fill-opacity="1" fill-rule="nonzero"/><path fill="#e8d3c8" d="M 57.492188 202.101562 C 57.492188 202.101562 80.957031 199.71875 81.601562 200.207031 C 82.242188 200.6875 82.414062 208.917969 83.757812 214.085938 C 83.757812 214.085938 62.589844 216.71875 60.59375 216.023438 C 58.605469 215.328125 56.941406 204.472656 57.492188 202.101562 Z M 57.492188 202.101562 " fill-opacity="1" fill-rule="nonzero"/><path fill="#ccaea2" d="M 60.601562 216.472656 C 60.554688 216.472656 60.5 216.464844 60.453125 216.449219 C 58.058594 215.617188 56.554688 204.195312 57.066406 202 C 57.113281 201.816406 57.265625 201.675781 57.460938 201.660156 C 73.144531 200.070312 81.367188 199.464844 81.878906 199.851562 C 82.078125 200 82.117188 200.285156 81.964844 200.476562 C 81.832031 200.648438 81.609375 200.703125 81.414062 200.617188 C 80.261719 200.394531 66.542969 201.644531 57.878906 202.519531 C 57.46875 205.523438 59.277344 215.089844 60.75 215.609375 C 60.980469 215.691406 61.105469 215.949219 61.027344 216.179688 C 60.957031 216.359375 60.789062 216.472656 60.601562 216.472656 Z M 81.328125 200.5625 Z M 81.328125 200.5625 " fill-opacity="1" fill-rule="nonzero"/><path fill="#ccaea2" d="M 56.664062 218.035156 C 56.476562 218.035156 56.300781 217.917969 56.238281 217.726562 C 56.207031 217.625 52.933594 207.789062 50.210938 194.15625 C 49.445312 190.324219 48.917969 185.519531 48.640625 179.878906 C 48.625 179.628906 48.820312 179.421875 49.066406 179.40625 C 49.3125 179.382812 49.523438 179.582031 49.539062 179.832031 C 49.808594 185.433594 50.335938 190.191406 51.09375 193.980469 C 53.808594 207.546875 57.058594 217.339844 57.097656 217.4375 C 57.175781 217.671875 57.050781 217.925781 56.8125 218.003906 C 56.757812 218.027344 56.710938 218.035156 56.664062 218.035156 Z M 56.664062 218.035156 " fill-opacity="1" fill-rule="nonzero"/><path fill="#ccaea2" d="M 96.261719 214.9375 C 96.261719 214.9375 100.269531 217.378906 99.703125 220.714844 C 99.140625 224.054688 100.082031 228.1875 101.707031 229.546875 C 103.332031 230.90625 104.902344 231.804688 105.089844 233.960938 C 105.273438 236.117188 97.699219 242.089844 90.054688 238.613281 C 82.414062 235.132812 85.113281 225.320312 85.359375 221.984375 C 85.609375 218.644531 86.367188 216.109375 86.367188 216.109375 Z M 96.261719 214.9375 " fill-opacity="1" fill-rule="nonzero"/><path fill="#e8d3c8" d="M 100.726562 218.140625 C 100.429688 218.914062 100.097656 219.640625 99.742188 220.335938 C 99.742188 220.335938 98.226562 217.988281 93.382812 216.734375 C 88.648438 215.515625 86.367188 216.109375 86.367188 216.109375 C 86.582031 215.367188 86.738281 214.566406 86.867188 213.714844 C 88.121094 205.6875 86.109375 193.507812 84.074219 184.257812 C 83.945312 183.632812 83.8125 183.023438 83.664062 182.433594 C 82.171875 175.9375 80.789062 171.269531 80.789062 171.269531 L 99.210938 166.765625 C 99.210938 166.765625 100.757812 173.117188 101.980469 181.746094 C 102.070312 182.425781 102.164062 183.128906 102.242188 183.832031 C 103.664062 194.882812 104.347656 208.878906 100.726562 218.140625 Z M 100.726562 218.140625 " fill-opacity="1" fill-rule="nonzero"/><path fill="#563025" d="M 102.242188 183.832031 C 96.957031 181.199219 86.628906 183.59375 84.074219 184.257812 C 83.945312 183.632812 83.8125 183.023438 83.664062 182.433594 C 85.183594 182.023438 96.238281 179.179688 101.980469 181.746094 C 102.070312 182.425781 102.164062 183.128906 102.242188 183.832031 Z M 102.242188 183.832031 " fill-opacity="1" fill-rule="nonzero"/><path fill="#ccaea2" d="M 86.367188 216.558594 C 86.328125 216.558594 86.28125 216.550781 86.242188 216.542969 C 86.003906 216.472656 85.863281 216.226562 85.933594 215.988281 C 86.125 215.320312 86.289062 214.558594 86.429688 213.644531 C 87.789062 204.867188 85.265625 191.121094 82.90625 181.136719 C 82.851562 180.898438 83 180.65625 83.238281 180.59375 C 83.480469 180.535156 83.71875 180.6875 83.78125 180.929688 C 86.15625 190.988281 88.703125 204.859375 87.316406 213.777344 C 87.171875 214.71875 87 215.523438 86.800781 216.226562 C 86.738281 216.425781 86.558594 216.558594 86.367188 216.558594 Z M 86.367188 216.558594 " fill-opacity="1" fill-rule="nonzero"/><path fill="#ccaea2" d="M 99.742188 220.785156 C 99.671875 220.785156 99.605469 220.769531 99.535156 220.730469 C 99.316406 220.613281 99.230469 220.34375 99.339844 220.128906 C 99.703125 219.425781 100.027344 218.707031 100.308594 217.980469 C 106.96875 200.933594 98.851562 167.210938 98.777344 166.871094 C 98.714844 166.632812 98.859375 166.394531 99.109375 166.332031 C 99.347656 166.277344 99.589844 166.417969 99.648438 166.664062 C 99.734375 167.003906 107.914062 201.003906 101.152344 218.304688 C 100.863281 219.054688 100.523438 219.8125 100.144531 220.539062 C 100.058594 220.691406 99.90625 220.785156 99.742188 220.785156 Z M 99.742188 220.785156 " fill-opacity="1" fill-rule="nonzero"/><path fill="#e8d3c8" d="M 100.789062 138.480469 C 96.082031 159.183594 78.242188 173.523438 58.042969 174.699219 C 53.753906 174.945312 49.359375 174.597656 44.949219 173.617188 C 19.804688 167.921875 4.085938 142.949219 9.785156 117.84375 C 10.1875 116.082031 10.699219 114.335938 11.289062 112.65625 C 13.042969 107.6875 15.582031 103.152344 18.738281 99.203125 C 18.738281 99.203125 18.753906 99.195312 18.769531 99.179688 C 21.074219 96.253906 23.726562 93.648438 26.644531 91.398438 C 28.78125 89.746094 31.054688 88.261719 33.453125 87.003906 C 35.308594 86.007812 37.230469 85.148438 39.21875 84.421875 C 47.386719 81.417969 56.5 80.652344 65.632812 82.722656 C 73.460938 84.507812 80.378906 88.148438 86.019531 93.09375 C 86.566406 93.5625 87.101562 94.058594 87.621094 94.558594 C 89.167969 96.042969 90.613281 97.644531 91.945312 99.328125 C 92.347656 99.84375 92.742188 100.363281 93.128906 100.902344 C 100.679688 111.359375 103.875 124.898438 100.789062 138.480469 Z M 100.789062 138.480469 " fill-opacity="1" fill-rule="nonzero"/><path fill="#ccaea2" d="M 93.121094 100.898438 C 85.855469 102.457031 78.0625 107.960938 77.988281 108.011719 L 76.949219 106.554688 C 77.296875 106.3125 84.585938 101.152344 91.945312 99.320312 C 92.339844 99.84375 92.734375 100.363281 93.121094 100.898438 Z M 93.121094 100.898438 " fill-opacity="1" fill-rule="nonzero"/><path fill="#ccaea2" d="M 87.621094 94.558594 C 80.269531 96.019531 72.253906 101.699219 72.167969 101.761719 L 71.117188 100.300781 C 71.464844 100.0625 78.691406 94.9375 86.011719 93.09375 C 86.558594 93.5625 87.09375 94.058594 87.621094 94.558594 Z M 87.621094 94.558594 " fill-opacity="1" fill-rule="nonzero"/><path fill="#ccaea2" d="M 55.339844 175.226562 C 53.34375 175.226562 51.324219 175.09375 49.328125 174.839844 C 49.082031 174.808594 48.910156 174.582031 48.941406 174.335938 C 48.972656 174.089844 49.199219 173.910156 49.445312 173.949219 C 52.300781 174.320312 55.1875 174.421875 58.019531 174.25 C 71.242188 173.488281 85.832031 164.972656 94.320312 153.0625 C 94.464844 152.863281 94.746094 152.816406 94.945312 152.957031 C 95.148438 153.101562 95.195312 153.378906 95.054688 153.582031 C 86.421875 165.699219 71.558594 174.359375 58.070312 175.140625 C 57.167969 175.203125 56.253906 175.226562 55.339844 175.226562 Z M 55.339844 175.226562 " fill-opacity="1" fill-rule="nonzero"/><path fill="#ccaea2" d="M 39.203125 84.421875 C 32.261719 90.8125 31.03125 99.460938 31.015625 99.542969 L 28.386719 99.195312 C 28.425781 98.855469 29.28125 92.921875 33.4375 86.996094 C 35.300781 86.007812 37.222656 85.140625 39.203125 84.421875 Z M 39.203125 84.421875 " fill-opacity="1" fill-rule="nonzero"/><path fill="#ccaea2" d="M 26.628906 91.398438 C 20.03125 99.882812 17.230469 110.640625 17.191406 110.773438 L 14.613281 110.113281 C 14.707031 109.738281 15.945312 104.9375 18.730469 99.195312 C 18.730469 99.195312 18.746094 99.195312 18.753906 99.171875 C 21.066406 96.253906 23.71875 93.648438 26.628906 91.398438 Z M 26.628906 91.398438 " fill-opacity="1" fill-rule="nonzero"/><path fill="#563025" d="M 78.320312 156.757812 C 73.871094 166.316406 49.351562 174.613281 44.949219 173.609375 C 35.96875 171.570312 28.199219 167.074219 22.179688 160.992188 C 11.308594 150.050781 6.125 133.976562 9.785156 117.851562 C 10.1875 116.074219 10.691406 114.328125 11.28125 112.65625 C 22.929688 96.421875 43.480469 89.746094 60.632812 97.714844 C 67.285156 100.796875 72.570312 105.679688 76.269531 111.636719 C 83.542969 123.296875 84.996094 142.414062 78.320312 156.757812 Z M 78.320312 156.757812 " fill-opacity="1" fill-rule="nonzero"/><path fill="#ccaea2" d="M 78.21875 101.570312 C 78.519531 102.097656 78.773438 102.648438 78.980469 103.21875 C 79.183594 103.785156 79.335938 104.367188 79.4375 104.953125 C 79.539062 105.542969 79.589844 106.128906 79.582031 106.714844 C 79.578125 107.296875 79.515625 107.871094 79.402344 108.429688 C 79.292969 108.988281 79.125 109.523438 78.910156 110.03125 C 78.695312 110.542969 78.433594 111.019531 78.121094 111.464844 C 77.8125 111.910156 77.457031 112.3125 77.066406 112.671875 C 76.671875 113.03125 76.246094 113.339844 75.785156 113.601562 C 75.324219 113.863281 74.839844 114.070312 74.328125 114.222656 C 73.816406 114.378906 73.292969 114.472656 72.75 114.511719 C 72.210938 114.554688 71.664062 114.535156 71.117188 114.457031 C 70.566406 114.382812 70.019531 114.25 69.484375 114.0625 C 68.945312 113.871094 68.421875 113.632812 67.917969 113.335938 C 67.410156 113.042969 66.929688 112.703125 66.476562 112.3125 C 66.023438 111.925781 65.601562 111.496094 65.21875 111.03125 C 64.832031 110.5625 64.488281 110.066406 64.1875 109.535156 C 63.886719 109.007812 63.636719 108.460938 63.429688 107.890625 C 63.226562 107.320312 63.070312 106.742188 62.96875 106.152344 C 62.867188 105.566406 62.820312 104.980469 62.828125 104.394531 C 62.832031 103.808594 62.890625 103.238281 63.003906 102.679688 C 63.117188 102.121094 63.28125 101.585938 63.5 101.074219 C 63.714844 100.5625 63.976562 100.085938 64.289062 99.644531 C 64.597656 99.199219 64.949219 98.796875 65.34375 98.4375 C 65.738281 98.078125 66.164062 97.769531 66.625 97.507812 C 67.085938 97.246094 67.570312 97.039062 68.082031 96.882812 C 68.589844 96.730469 69.117188 96.632812 69.65625 96.59375 C 70.199219 96.554688 70.742188 96.574219 71.292969 96.648438 C 71.84375 96.726562 72.386719 96.859375 72.925781 97.046875 C 73.464844 97.234375 73.988281 97.476562 74.492188 97.769531 C 75 98.066406 75.480469 98.40625 75.933594 98.792969 C 76.386719 99.183594 76.808594 99.609375 77.191406 100.078125 C 77.578125 100.542969 77.917969 101.042969 78.21875 101.570312 Z M 78.21875 101.570312 " fill-opacity="1" fill-rule="nonzero"/><path fill="#563025" d="M 74.964844 103.417969 C 75.125 103.703125 75.261719 103.996094 75.371094 104.300781 C 75.480469 104.605469 75.5625 104.917969 75.617188 105.230469 C 75.671875 105.546875 75.699219 105.863281 75.695312 106.175781 C 75.691406 106.488281 75.660156 106.792969 75.597656 107.09375 C 75.539062 107.394531 75.449219 107.679688 75.335938 107.953125 C 75.21875 108.226562 75.078125 108.484375 74.910156 108.722656 C 74.746094 108.960938 74.554688 109.175781 74.347656 109.367188 C 74.136719 109.558594 73.90625 109.726562 73.660156 109.867188 C 73.414062 110.007812 73.152344 110.117188 72.878906 110.199219 C 72.605469 110.28125 72.324219 110.335938 72.035156 110.355469 C 71.742188 110.375 71.453125 110.367188 71.15625 110.324219 C 70.863281 110.285156 70.570312 110.214844 70.28125 110.113281 C 69.992188 110.011719 69.714844 109.882812 69.441406 109.726562 C 69.171875 109.566406 68.914062 109.382812 68.671875 109.175781 C 68.425781 108.96875 68.203125 108.738281 67.996094 108.488281 C 67.789062 108.238281 67.605469 107.972656 67.445312 107.6875 C 67.285156 107.40625 67.148438 107.113281 67.039062 106.804688 C 66.929688 106.5 66.847656 106.191406 66.792969 105.875 C 66.738281 105.558594 66.710938 105.246094 66.714844 104.933594 C 66.71875 104.621094 66.75 104.3125 66.808594 104.015625 C 66.871094 103.714844 66.960938 103.429688 67.074219 103.152344 C 67.191406 102.878906 67.332031 102.625 67.5 102.386719 C 67.664062 102.148438 67.851562 101.933594 68.0625 101.742188 C 68.273438 101.546875 68.503906 101.382812 68.75 101.242188 C 68.996094 101.101562 69.257812 100.988281 69.53125 100.90625 C 69.804688 100.824219 70.085938 100.773438 70.375 100.753906 C 70.664062 100.730469 70.957031 100.742188 71.253906 100.78125 C 71.546875 100.824219 71.839844 100.894531 72.128906 100.996094 C 72.417969 101.097656 72.695312 101.226562 72.96875 101.382812 C 73.238281 101.539062 73.496094 101.722656 73.738281 101.929688 C 73.984375 102.140625 74.207031 102.367188 74.414062 102.617188 C 74.621094 102.871094 74.804688 103.136719 74.964844 103.417969 Z M 74.964844 103.417969 " fill-opacity="1" fill-rule="nonzero"/><path fill="#563025" d="M 96.765625 271.949219 C 96.765625 271.949219 107.566406 271.382812 114.335938 262.84375 C 114.335938 262.84375 115.835938 264.160156 115.402344 265.90625 C 115.402344 265.90625 111.417969 273.746094 99 274.628906 C 98.992188 274.636719 97.5625 274.296875 96.765625 271.949219 Z M 96.765625 271.949219 " fill-opacity="1" fill-rule="nonzero"/><path fill="#563025" d="M 72.554688 276.175781 C 72.554688 276.175781 67.582031 275.0625 62.90625 274.859375 C 56.277344 274.582031 53.980469 275.933594 53.980469 275.933594 C 53.980469 275.933594 53.089844 275.101562 52.996094 273.128906 C 52.996094 273.128906 53.011719 273.128906 53.019531 273.113281 C 53.632812 272.929688 63.070312 270.046875 72.554688 273.113281 C 72.570312 273.128906 72.570312 273.128906 72.578125 273.128906 C 72.578125 273.128906 73.335938 275.007812 72.554688 276.175781 Z M 72.554688 276.175781 " fill-opacity="1" fill-rule="nonzero"/><path fill="#e8d3c8" d="M 112.0625 172.40625 L 121.953125 168.777344 L 122.183594 169.398438 L 112.292969 173.027344 Z M 112.0625 172.40625 " fill-opacity="1" fill-rule="nonzero"/><path fill="#563025" d="M 99.742188 220.335938 C 99.742188 220.335938 98.226562 217.988281 93.382812 216.734375 C 88.648438 215.515625 86.367188 216.109375 86.367188 216.109375 C 86.367188 216.109375 86.085938 214.566406 86.777344 213.714844 C 86.777344 213.714844 86.816406 213.714844 86.867188 213.714844 C 87.890625 213.660156 96.347656 213.367188 100.710938 217.996094 C 100.710938 217.996094 100.726562 218.050781 100.726562 218.140625 C 100.765625 218.582031 100.78125 219.875 99.742188 220.335938 Z M 99.742188 220.335938 " fill-opacity="1" fill-rule="nonzero"/><path fill="#ccaea2" d="M 86.382812 197.386719 C 86.21875 197.386719 86.0625 197.292969 85.980469 197.140625 C 85.863281 196.914062 85.957031 196.652344 86.171875 196.535156 C 86.273438 196.492188 88.625 195.308594 91.355469 195.601562 C 91.605469 195.625 91.78125 195.847656 91.75 196.097656 C 91.726562 196.34375 91.496094 196.523438 91.253906 196.492188 C 88.789062 196.226562 86.597656 197.324219 86.574219 197.332031 C 86.519531 197.371094 86.449219 197.386719 86.382812 197.386719 Z M 86.382812 197.386719 " fill-opacity="1" fill-rule="nonzero"/><path fill="#ccaea2" d="M 84.300781 185.609375 C 84.175781 185.609375 84.050781 185.5625 83.96875 185.464844 C 83.953125 185.449219 82.550781 183.910156 80.949219 183.023438 C 80.734375 182.898438 80.65625 182.628906 80.773438 182.410156 C 80.886719 182.195312 81.167969 182.117188 81.382812 182.234375 C 83.117188 183.199219 84.570312 184.792969 84.632812 184.859375 C 84.796875 185.046875 84.789062 185.324219 84.601562 185.496094 C 84.515625 185.570312 84.410156 185.609375 84.300781 185.609375 Z M 84.300781 185.609375 " fill-opacity="1" fill-rule="nonzero"/><path fill="#ccaea2" d="M 42.882812 201.84375 C 42.675781 201.84375 42.488281 201.699219 42.445312 201.484375 C 42.398438 201.242188 42.550781 201.003906 42.800781 200.957031 C 42.890625 200.941406 44.996094 200.539062 46.582031 200.933594 C 46.824219 200.996094 46.96875 201.234375 46.90625 201.476562 C 46.847656 201.714844 46.605469 201.859375 46.367188 201.800781 C 44.972656 201.453125 42.992188 201.832031 42.976562 201.839844 C 42.945312 201.839844 42.914062 201.84375 42.882812 201.84375 Z M 42.882812 201.84375 " fill-opacity="1" fill-rule="nonzero"/><path fill="#ccaea2" d="M 14.503906 113.570312 C 14.503906 113.570312 7.085938 129.179688 14.746094 144.996094 Z M 14.503906 113.570312 " fill-opacity="1" fill-rule="nonzero"/><path fill="#ccaea2" d="M 65.011719 204.519531 C 64.78125 204.519531 64.585938 204.339844 64.5625 204.109375 C 64.539062 203.863281 64.726562 203.644531 64.972656 203.628906 L 79.582031 202.457031 C 79.828125 202.433594 80.042969 202.617188 80.058594 202.867188 C 80.082031 203.113281 79.898438 203.328125 79.648438 203.34375 L 65.042969 204.519531 C 65.035156 204.519531 65.019531 204.519531 65.011719 204.519531 Z M 65.011719 204.519531 " fill-opacity="1" fill-rule="nonzero"/><path fill="#ccaea2" d="M 65.382812 207.425781 C 65.152344 207.425781 64.957031 207.246094 64.933594 207.015625 C 64.910156 206.769531 65.097656 206.550781 65.34375 206.535156 L 79.953125 205.363281 C 80.199219 205.339844 80.417969 205.523438 80.433594 205.769531 C 80.453125 206.019531 80.269531 206.234375 80.023438 206.25 L 65.414062 207.425781 C 65.40625 207.425781 65.398438 207.425781 65.382812 207.425781 Z M 65.382812 207.425781 " fill-opacity="1" fill-rule="nonzero"/><path fill="#563025" d="M 63.976562 206.132812 C 63.976562 206.46875 63.910156 206.792969 63.78125 207.105469 C 63.652344 207.414062 63.46875 207.6875 63.230469 207.925781 C 62.992188 208.164062 62.71875 208.347656 62.410156 208.476562 C 62.097656 208.605469 61.773438 208.667969 61.4375 208.667969 C 61.101562 208.667969 60.777344 208.605469 60.464844 208.476562 C 60.15625 208.347656 59.882812 208.164062 59.644531 207.925781 C 59.40625 207.6875 59.222656 207.414062 59.09375 207.105469 C 58.964844 206.792969 58.898438 206.46875 58.898438 206.132812 C 58.898438 205.796875 58.964844 205.476562 59.09375 205.164062 C 59.222656 204.855469 59.40625 204.578125 59.644531 204.34375 C 59.882812 204.105469 60.15625 203.921875 60.464844 203.792969 C 60.777344 203.664062 61.101562 203.601562 61.4375 203.601562 C 61.773438 203.601562 62.097656 203.664062 62.410156 203.792969 C 62.71875 203.921875 62.992188 204.105469 63.230469 204.34375 C 63.46875 204.578125 63.652344 204.855469 63.78125 205.164062 C 63.910156 205.476562 63.976562 205.796875 63.976562 206.132812 Z M 63.976562 206.132812 " fill-opacity="1" fill-rule="nonzero"/><path fill="#ccaea2" d="M 61.738281 211.789062 C 61.507812 211.789062 61.3125 211.613281 61.289062 211.382812 C 61.265625 211.132812 61.453125 210.917969 61.699219 210.894531 L 80.066406 209.394531 C 80.316406 209.371094 80.53125 209.558594 80.554688 209.804688 C 80.578125 210.050781 80.394531 210.269531 80.144531 210.292969 L 61.777344 211.789062 C 61.761719 211.789062 61.746094 211.789062 61.738281 211.789062 Z M 61.738281 211.789062 " fill-opacity="1" fill-rule="nonzero"/><path fill="#563025" d="M 63.589844 213.699219 C 63.589844 213.90625 63.515625 214.082031 63.367188 214.230469 C 63.222656 214.375 63.046875 214.449219 62.839844 214.449219 C 62.628906 214.449219 62.453125 214.375 62.308594 214.230469 C 62.160156 214.082031 62.085938 213.90625 62.085938 213.699219 C 62.085938 213.492188 62.160156 213.316406 62.308594 213.167969 C 62.453125 213.023438 62.628906 212.949219 62.839844 212.949219 C 63.046875 212.949219 63.222656 213.023438 63.367188 213.167969 C 63.515625 213.316406 63.589844 213.492188 63.589844 213.699219 Z M 63.589844 213.699219 " fill-opacity="1" fill-rule="nonzero"/><path fill="#563025" d="M 69.128906 213.203125 C 69.128906 213.410156 69.054688 213.589844 68.910156 213.734375 C 68.761719 213.882812 68.585938 213.953125 68.378906 213.953125 C 68.171875 213.953125 67.992188 213.882812 67.847656 213.734375 C 67.699219 213.589844 67.628906 213.410156 67.628906 213.203125 C 67.628906 212.996094 67.699219 212.820312 67.847656 212.675781 C 67.992188 212.527344 68.171875 212.457031 68.378906 212.457031 C 68.585938 212.457031 68.761719 212.527344 68.910156 212.675781 C 69.054688 212.820312 69.128906 212.996094 69.128906 213.203125 Z M 69.128906 213.203125 " fill-opacity="1" fill-rule="nonzero"/><path fill="#563025" d="M 75.046875 212.703125 C 75.046875 212.910156 74.972656 213.085938 74.828125 213.234375 C 74.679688 213.378906 74.503906 213.453125 74.296875 213.453125 C 74.089844 213.453125 73.914062 213.378906 73.765625 213.234375 C 73.621094 213.085938 73.546875 212.910156 73.546875 212.703125 C 73.546875 212.496094 73.621094 212.320312 73.765625 212.171875 C 73.914062 212.027344 74.089844 211.953125 74.296875 211.953125 C 74.503906 211.953125 74.679688 212.027344 74.828125 212.171875 C 74.972656 212.320312 75.046875 212.496094 75.046875 212.703125 Z M 75.046875 212.703125 " fill-opacity="1" fill-rule="nonzero"/><path fill="#563025" d="M 80.679688 212.046875 C 80.679688 212.253906 80.605469 212.429688 80.460938 212.574219 C 80.3125 212.722656 80.136719 212.796875 79.929688 212.796875 C 79.722656 212.796875 79.542969 212.722656 79.398438 212.574219 C 79.25 212.429688 79.179688 212.253906 79.179688 212.046875 C 79.179688 211.839844 79.25 211.660156 79.398438 211.515625 C 79.542969 211.371094 79.722656 211.296875 79.929688 211.296875 C 80.136719 211.296875 80.3125 211.371094 80.460938 211.515625 C 80.605469 211.660156 80.679688 211.839844 80.679688 212.046875 Z M 80.679688 212.046875 " fill-opacity="1" fill-rule="nonzero"/><path fill="#ccaea2" d="M 72.988281 186.824219 L 81.53125 186.023438 L 81.757812 188.453125 L 73.214844 189.253906 Z M 72.988281 186.824219 " fill-opacity="1" fill-rule="nonzero"/><path fill="#563025" d="M 107.765625 243.339844 C 102.976562 245.351562 90.824219 249.910156 82.707031 248.457031 C 82.519531 247.699219 82.375 246.980469 82.296875 246.292969 C 90.464844 247.808594 102.683594 243.210938 107.433594 241.214844 C 107.511719 241.917969 107.605469 242.621094 107.765625 243.339844 Z M 107.765625 243.339844 " fill-opacity="1" fill-rule="nonzero"/><path fill="#563025" d="M 73.265625 246.015625 C 73.246094 246.109375 73.230469 246.199219 73.214844 246.277344 C 73.136719 246.703125 73.066406 247.351562 73.011719 248.179688 C 68.230469 246.160156 57.011719 241.917969 49.058594 242.902344 C 49.074219 242.40625 49.097656 241.972656 49.136719 241.59375 C 49.160156 241.339844 49.207031 241.078125 49.253906 240.785156 C 57.152344 239.738281 68.363281 243.945312 73.265625 246.015625 Z M 73.265625 246.015625 " fill-opacity="1" fill-rule="nonzero"/><path fill="#ccaea2" d="M 60.457031 131.765625 L 60.980469 130.089844 L 51.605469 122.214844 L 51.078125 123.894531 Z M 60.457031 131.765625 " fill-opacity="1" fill-rule="nonzero"/><path fill="#ccaea2" d="M 54.867188 133.398438 L 53.523438 132.261719 L 57.191406 120.585938 L 58.535156 121.722656 Z M 54.867188 133.398438 " fill-opacity="1" fill-rule="nonzero"/><path fill="#ccaea2" d="M 32.492188 140.515625 L 33.019531 138.828125 L 23.644531 130.957031 L 23.117188 132.632812 Z M 32.492188 140.515625 " fill-opacity="1" fill-rule="nonzero"/><path fill="#ccaea2" d="M 26.90625 142.136719 L 25.5625 141.007812 L 29.230469 129.332031 L 30.574219 130.460938 Z M 26.90625 142.136719 " fill-opacity="1" fill-rule="nonzero"/><path fill="#ccaea2" d="M 43.164062 155.804688 C 42.929688 155.804688 42.699219 155.730469 42.511719 155.566406 C 42.09375 155.210938 42.050781 154.578125 42.40625 154.160156 C 42.691406 153.828125 49.570312 145.96875 60.796875 147.824219 C 61.335938 147.917969 61.707031 148.425781 61.617188 148.96875 C 61.523438 149.507812 61.011719 149.878906 60.46875 149.785156 C 50.382812 148.125 43.984375 155.382812 43.921875 155.457031 C 43.71875 155.691406 43.441406 155.804688 43.164062 155.804688 Z M 43.164062 155.804688 " fill-opacity="1" fill-rule="nonzero"/><path fill="#563025" d="M 95.921875 88.625 L 104.972656 68.371094 L 98.046875 64.054688 L 93.027344 86.972656 C 93.523438 87.457031 95.921875 88.625 95.921875 88.625 Z M 95.921875 88.625 " fill-opacity="1" fill-rule="nonzero"/><path fill="#563025" d="M 98.011719 92.296875 L 115.015625 78.03125 L 121.082031 83.496094 L 100.402344 94.621094 C 99.789062 94.273438 98.011719 92.296875 98.011719 92.296875 Z M 98.011719 92.296875 " fill-opacity="1" fill-rule="nonzero"/><path fill="#563025" d="M 8.601562 294.273438 L 357.984375 294.273438 L 357.984375 295.167969 L 8.601562 295.167969 Z M 8.601562 294.273438 " fill-opacity="1" fill-rule="nonzero"/><path fill="#e8d3c8" d="M 323.886719 187.789062 L 299.464844 216.164062 C 298.355469 217.445312 299.0625 219.410156 300.730469 219.703125 L 338.535156 226.285156 C 340.335938 226.605469 341.816406 224.933594 341.1875 223.296875 L 327.8125 188.347656 C 327.207031 186.761719 325.027344 186.460938 323.886719 187.789062 Z M 323.886719 187.789062 " fill-opacity="1" fill-rule="nonzero"/><path fill="#563025" d="M 320.105469 218.171875 C 318.9375 217.972656 318.195312 216.9375 318.402344 215.808594 C 318.621094 214.679688 319.695312 213.945312 320.863281 214.140625 C 322.007812 214.324219 322.757812 215.359375 322.542969 216.496094 C 322.324219 217.640625 321.242188 218.367188 320.105469 218.171875 Z M 323.640625 198.816406 C 324.59375 198.957031 325.210938 199.828125 325.011719 200.734375 L 322.765625 211.085938 C 322.613281 211.8125 321.882812 212.292969 321.125 212.167969 C 320.375 212.046875 319.863281 211.367188 319.980469 210.632812 L 321.644531 200.222656 C 321.800781 199.3125 322.695312 198.675781 323.640625 198.816406 Z M 323.640625 198.816406 " fill-opacity="1" fill-rule="nonzero"/></svg>