<svg xmlns="http://www.w3.org/2000/svg" xmlns:xlink="http://www.w3.org/1999/xlink" width="500" zoomAndPan="magnify" viewBox="0 0 375 374.999991" height="500" preserveAspectRatio="xMidYMid meet" version="1.0"><path fill="#f9e8de" d="M 369.890625 203.175781 C 369.890625 203.679688 369.890625 204.183594 369.882812 204.679688 C 369.636719 216.726562 367.914062 228.691406 364.402344 240.230469 C 363.269531 243.960938 361.960938 247.664062 360.457031 251.285156 C 355.761719 262.605469 348.609375 273.152344 339.585938 281.601562 C 334.203125 286.664062 328.152344 290.960938 321.554688 294.238281 C 301.320312 304.316406 282.542969 296.816406 261.046875 296.660156 C 246.863281 296.585938 232.578125 297.386719 218.644531 300.273438 L 17.953125 300.273438 C 15.332031 294.171875 13.113281 287.945312 11.296875 281.601562 C 7.410156 268.136719 5.359375 254.21875 5.054688 240.230469 C 4.765625 226.292969 6.226562 212.285156 9.445312 198.605469 C 53.398438 198.355469 118.984375 197.933594 118.984375 197.933594 C 118.984375 194.421875 106.886719 193.75 98.296875 193.410156 C 89.839844 193.082031 85.160156 192.75 85.160156 192.742188 C 85.28125 192.742188 81.253906 179.6875 70.976562 179.6875 C 60.691406 179.6875 59.136719 184.789062 59.136719 184.789062 C 59.136719 184.789062 55.167969 164.871094 48.652344 164.871094 C 42.152344 164.871094 41.113281 181.695312 41.113281 181.695312 C 41.113281 181.695312 35.597656 172.402344 27.320312 175.917969 C 19.835938 179.101562 20.09375 186.878906 20.09375 186.878906 C 20.09375 186.878906 16.578125 183.332031 13.371094 184.613281 C 16.6875 174.519531 20.988281 164.679688 26.261719 155.28125 C 68.664062 79.664062 161.65625 24.652344 249.261719 44.445312 C 250.074219 44.640625 250.867188 44.824219 251.683594 45.03125 C 252.179688 45.121094 252.6875 45.253906 253.183594 45.394531 C 255.761719 46.03125 258.332031 46.773438 260.878906 47.578125 C 267.527344 49.667969 274.011719 52.257812 280.210938 55.339844 C 285.105469 57.796875 289.820312 60.53125 294.351562 63.582031 C 299.574219 67.128906 304.613281 70.816406 309.382812 74.679688 C 313.179688 77.722656 316.824219 80.855469 320.289062 84.136719 C 326.078125 89.5625 331.410156 95.316406 336.28125 101.484375 C 335.386719 101.257812 334.4375 101.136719 333.425781 101.136719 C 323.140625 101.136719 321.585938 106.246094 321.585938 106.246094 C 321.585938 106.246094 317.617188 86.328125 311.117188 86.328125 C 304.601562 86.328125 303.5625 103.144531 303.5625 103.144531 C 303.5625 103.144531 298.046875 93.851562 289.769531 97.375 C 282.285156 100.558594 282.542969 108.335938 282.542969 108.335938 C 282.542969 108.335938 279.011719 104.765625 275.78125 106.078125 C 270.246094 108.335938 271.089844 114.867188 271.089844 114.867188 C 271.089844 114.867188 264.0625 109.007812 260.558594 115.199219 C 260.558594 115.199219 200.171875 113.527344 199.527344 116.703125 C 198.875 119.886719 217.488281 120.21875 235.050781 120.21875 C 246.871094 120.21875 309.078125 119.835938 348.5 119.589844 C 348.921875 120.332031 349.335938 121.085938 349.75 121.839844 C 353.140625 127.996094 356.117188 134.511719 358.65625 141.414062 C 363.582031 154.769531 367.113281 168.90625 368.792969 183.226562 C 369.59375 189.839844 369.964844 196.527344 369.890625 203.175781 Z M 369.890625 203.175781 " fill-opacity="1" fill-rule="nonzero"/><path fill="#efbf62" d="M 289.316406 287.65625 C 279.707031 305.917969 210.515625 320.808594 193.226562 317.921875 C 184.742188 316.507812 169.578125 316.484375 151.097656 317.164062 C 143.742188 317.425781 135.867188 317.816406 127.675781 318.261719 C 114.46875 318.988281 100.472656 319.898438 86.554688 320.808594 C 42.351562 323.695312 15.925781 307.835938 15.445312 303.503906 C 14.960938 299.1875 28.898438 262.191406 51.960938 239.601562 C 75.019531 217.023438 88.960938 211.261719 128.371094 208.375 C 167.769531 205.492188 225.425781 229.996094 225.425781 229.996094 C 225.425781 229.996094 298.929688 269.390625 289.316406 287.65625 Z M 289.316406 287.65625 " fill-opacity="1" fill-rule="nonzero"/><path fill="#563025" d="M 162.605469 161.992188 L 167.886719 159.019531 L 252.585938 309.382812 L 247.304688 312.355469 Z M 162.605469 161.992188 " fill-opacity="1" fill-rule="nonzero"/><path fill="#563025" d="M 239.96875 123.261719 L 225.828125 98.175781 L 210.128906 104.542969 L 222.503906 92.273438 L 223.234375 87.90625 L 220.605469 88.898438 L 201.882812 55.671875 L 56.25 137.695312 L 56.175781 137.449219 L 52.464844 135.867188 L 51.738281 140.234375 L 58.742188 152.667969 L 70.308594 148.203125 L 65.496094 155.816406 L 63.585938 155.621094 L 62.859375 159.984375 L 75.5 182.414062 L 91.773438 170.097656 L 80.617188 182.777344 L 78.351562 181.820312 L 77.625 186.183594 L 91.773438 211.304688 L 240.019531 127.808594 L 240.050781 127.839844 L 241.921875 126.730469 L 242.648438 122.367188 Z M 239.96875 123.261719 " fill-opacity="1" fill-rule="nonzero"/><path fill="#a05839" d="M 223.234375 87.90625 L 210.855469 100.175781 L 226.558594 93.808594 L 242.648438 122.367188 L 92.5 206.9375 L 78.351562 181.820312 L 92.5 165.738281 L 76.226562 178.058594 L 63.585938 155.621094 L 71.035156 143.839844 L 59.46875 148.304688 L 52.464844 135.867188 L 202.613281 51.304688 Z M 223.234375 87.90625 " fill-opacity="1" fill-rule="nonzero"/><path fill="#f9e8de" d="M 123.671875 141.613281 L 110.9375 148.78125 L 107.996094 143.558594 L 110.320312 119.6875 L 117.554688 115.613281 L 126.988281 132.363281 L 130.097656 130.609375 L 133.257812 136.214844 L 130.148438 137.96875 L 132.925781 142.894531 L 126.441406 146.542969 Z M 120.96875 135.746094 L 115.542969 126.121094 L 114.601562 139.332031 Z M 120.96875 135.746094 " fill-opacity="1" fill-rule="nonzero"/><path fill="#f9e8de" d="M 133.96875 105.121094 C 141.847656 100.679688 147.941406 105.039062 152.511719 113.140625 C 157.128906 121.324219 157.6875 128.792969 149.800781 133.230469 C 141.921875 137.671875 135.828125 133.3125 131.214844 125.136719 C 126.648438 117.027344 126.085938 109.558594 133.96875 105.121094 Z M 137.382812 111.179688 C 133.554688 113.339844 135.191406 117.308594 137.582031 121.546875 C 140.050781 125.945312 142.558594 129.328125 146.386719 127.171875 C 150.214844 125.011719 148.617188 121.117188 146.144531 116.726562 C 143.757812 112.480469 141.210938 109.023438 137.382812 111.179688 Z M 137.382812 111.179688 " fill-opacity="1" fill-rule="nonzero"/><path fill="#f9e8de" d="M 174.035156 113.246094 L 161.300781 120.414062 L 158.359375 115.191406 L 160.683594 91.320312 L 167.917969 87.246094 L 177.351562 103.996094 L 180.460938 102.242188 L 183.621094 107.847656 L 180.511719 109.601562 L 183.289062 114.527344 L 176.804688 118.175781 Z M 171.332031 107.378906 L 165.90625 97.753906 L 164.964844 110.964844 Z M 171.332031 107.378906 " fill-opacity="1" fill-rule="nonzero"/><path fill="#f9e8de" d="M 96.394531 180.019531 L 93.054688 181.894531 L 94.476562 184.417969 L 97.445312 182.746094 L 98.089844 183.894531 L 95.121094 185.566406 L 96.601562 188.203125 L 99.941406 186.324219 L 100.585938 187.476562 L 95.839844 190.144531 L 90.996094 181.539062 L 95.742188 178.859375 Z M 96.394531 180.019531 " fill-opacity="1" fill-rule="nonzero"/><path fill="#f9e8de" d="M 101.695312 175.535156 C 103.738281 174.386719 105.398438 175 106.183594 176.398438 C 106.753906 177.414062 106.820312 178.800781 105.582031 179.976562 L 109.714844 182.339844 L 108.039062 183.292969 L 104.117188 180.96875 L 103.042969 181.570312 L 104.976562 185.011719 L 103.5625 185.804688 L 98.71875 177.214844 Z M 102.339844 176.6875 L 100.785156 177.5625 L 102.40625 180.441406 L 103.960938 179.5625 C 105.058594 178.941406 105.21875 178.058594 104.730469 177.207031 C 104.25 176.339844 103.441406 176.066406 102.339844 176.6875 Z M 102.339844 176.6875 " fill-opacity="1" fill-rule="nonzero"/><path fill="#f9e8de" d="M 110.742188 170.433594 C 112.785156 169.285156 114.445312 169.898438 115.230469 171.296875 C 115.800781 172.3125 115.867188 173.703125 114.628906 174.875 L 118.761719 177.238281 L 117.082031 178.191406 L 113.164062 175.867188 L 112.089844 176.472656 L 114.023438 179.910156 L 112.609375 180.703125 L 107.773438 172.113281 Z M 111.386719 171.585938 L 109.832031 172.460938 L 111.453125 175.339844 L 113.007812 174.460938 C 114.105469 173.84375 114.261719 172.957031 113.785156 172.105469 C 113.296875 171.246094 112.492188 170.964844 111.386719 171.585938 Z M 111.386719 171.585938 " fill-opacity="1" fill-rule="nonzero"/><path fill="#f9e8de" d="M 125.632812 173.484375 C 123.210938 174.851562 120.214844 174.140625 118.761719 171.558594 C 117.3125 168.988281 118.257812 166.0625 120.679688 164.699219 C 123.128906 163.316406 126.09375 164.042969 127.542969 166.617188 C 128.996094 169.195312 128.078125 172.105469 125.632812 173.484375 Z M 124.945312 172.261719 C 126.648438 171.304688 127.195312 169.367188 126.105469 167.425781 C 125.011719 165.484375 123.085938 164.96875 121.382812 165.929688 C 119.679688 166.890625 119.125 168.796875 120.214844 170.742188 C 121.308594 172.675781 123.234375 173.222656 124.945312 172.261719 Z M 124.945312 172.261719 " fill-opacity="1" fill-rule="nonzero"/><path fill="#f9e8de" d="M 130.726562 159.183594 C 132.769531 158.035156 134.429688 158.644531 135.214844 160.042969 C 135.785156 161.058594 135.851562 162.449219 134.613281 163.621094 L 138.746094 165.988281 L 137.066406 166.9375 L 133.148438 164.613281 L 132.074219 165.21875 L 134.007812 168.65625 L 132.59375 169.453125 L 127.757812 160.863281 Z M 131.371094 160.332031 L 129.816406 161.207031 L 131.4375 164.085938 L 132.992188 163.210938 C 134.089844 162.589844 134.25 161.703125 133.769531 160.851562 C 133.28125 159.992188 132.46875 159.710938 131.371094 160.332031 Z M 131.371094 160.332031 " fill-opacity="1" fill-rule="nonzero"/><path fill="#f9e8de" d="M 148.3125 149.261719 L 153.15625 157.867188 L 151.746094 158.664062 L 143.890625 154.636719 L 147.503906 161.050781 L 146.089844 161.84375 L 141.242188 153.238281 L 142.648438 152.445312 L 150.496094 156.464844 L 146.890625 150.054688 Z M 148.3125 149.261719 " fill-opacity="1" fill-rule="nonzero"/><path fill="#f9e8de" d="M 160.21875 154.007812 C 157.796875 155.371094 154.804688 154.660156 153.347656 152.082031 C 151.902344 149.511719 152.84375 146.582031 155.265625 145.21875 C 157.714844 143.839844 160.683594 144.566406 162.128906 147.136719 C 163.585938 149.714844 162.667969 152.625 160.21875 154.007812 Z M 159.53125 152.785156 C 161.238281 151.824219 161.78125 149.890625 160.691406 147.949219 C 159.597656 146.003906 157.671875 145.492188 155.96875 146.449219 C 154.265625 147.410156 153.710938 149.320312 154.804688 151.261719 C 155.894531 153.207031 157.820312 153.742188 159.53125 152.785156 Z M 159.53125 152.785156 " fill-opacity="1" fill-rule="nonzero"/><path fill="#f9e8de" d="M 161.898438 141.621094 L 167.890625 138.242188 L 168.539062 139.390625 L 166.246094 140.679688 L 170.4375 148.121094 L 169.023438 148.914062 L 164.832031 141.472656 L 162.535156 142.773438 Z M 161.898438 141.621094 " fill-opacity="1" fill-rule="nonzero"/><path fill="#f9e8de" d="M 175.003906 134.246094 L 180.0625 131.394531 L 180.707031 132.542969 L 177.0625 134.601562 L 178.492188 137.140625 L 181.335938 135.539062 L 181.980469 136.6875 L 179.136719 138.289062 L 181.253906 142.050781 L 179.839844 142.847656 Z M 175.003906 134.246094 " fill-opacity="1" fill-rule="nonzero"/><path fill="#f9e8de" d="M 191.417969 136.429688 C 188.992188 137.792969 186 137.082031 184.546875 134.503906 C 183.097656 131.933594 184.039062 129.007812 186.464844 127.640625 C 188.910156 126.261719 191.878906 126.988281 193.328125 129.558594 C 194.78125 132.148438 193.863281 135.058594 191.417969 136.429688 Z M 190.730469 135.207031 C 192.433594 134.246094 192.980469 132.3125 191.878906 130.371094 C 190.789062 128.425781 188.871094 127.914062 187.15625 128.875 C 185.453125 129.832031 184.902344 131.742188 185.992188 133.683594 C 187.082031 135.628906 189.019531 136.175781 190.730469 135.207031 Z M 190.730469 135.207031 " fill-opacity="1" fill-rule="nonzero"/><path fill="#f9e8de" d="M 193.523438 123.8125 L 194.929688 123.019531 L 198.015625 128.5 C 198.765625 129.839844 199.875 130.039062 201.066406 129.378906 C 202.265625 128.699219 202.660156 127.648438 201.910156 126.3125 L 198.824219 120.828125 L 200.230469 120.035156 L 203.296875 125.492188 C 204.53125 127.683594 203.53125 129.609375 201.742188 130.617188 C 199.941406 131.636719 197.816406 131.460938 196.585938 129.269531 Z M 193.523438 123.8125 " fill-opacity="1" fill-rule="nonzero"/><path fill="#f9e8de" d="M 210.359375 114.3125 L 215.203125 122.921875 L 213.789062 123.714844 L 205.9375 119.6875 L 209.550781 126.105469 L 208.136719 126.898438 L 203.289062 118.292969 L 204.695312 117.496094 L 212.542969 121.515625 L 208.953125 115.109375 Z M 210.359375 114.3125 " fill-opacity="1" fill-rule="nonzero"/><path fill="#f9e8de" d="M 223.265625 112.761719 C 224.753906 115.40625 223.863281 118.042969 221.109375 119.597656 L 218.296875 121.175781 L 213.460938 112.585938 L 216.269531 111.007812 C 219.023438 109.453125 221.769531 110.105469 223.265625 112.761719 Z M 220.457031 118.449219 C 222.480469 117.308594 222.917969 115.53125 221.820312 113.578125 C 220.710938 111.609375 218.941406 111.015625 216.917969 112.15625 L 215.519531 112.941406 L 219.066406 119.234375 Z M 220.457031 118.449219 " fill-opacity="1" fill-rule="nonzero"/><path fill="#563025" d="M 98.328125 195.105469 C 98.328125 195.105469 99.125 194.617188 100.503906 193.757812 C 101.902344 192.921875 103.871094 191.691406 106.269531 190.277344 C 108.671875 188.871094 111.453125 187.195312 114.46875 185.457031 C 117.480469 183.714844 120.710938 181.878906 123.9375 180.050781 C 127.179688 178.242188 130.410156 176.421875 133.472656 174.757812 C 136.523438 173.082031 139.390625 171.566406 141.847656 170.246094 C 144.292969 168.921875 146.371094 167.878906 147.808594 167.121094 C 149.253906 166.382812 150.082031 165.960938 150.082031 165.960938 C 150.082031 165.960938 149.289062 166.449219 147.90625 167.308594 C 146.511719 168.144531 144.542969 169.378906 142.144531 170.792969 C 139.738281 172.195312 136.960938 173.875 133.941406 175.609375 C 130.933594 177.355469 127.699219 179.191406 124.476562 181.019531 C 121.234375 182.828125 117.992188 184.648438 114.941406 186.308594 C 111.890625 187.988281 109.011719 189.5 106.566406 190.824219 C 104.117188 192.148438 102.042969 193.1875 100.605469 193.949219 C 99.15625 194.683594 98.328125 195.105469 98.328125 195.105469 Z M 98.328125 195.105469 " fill-opacity="1" fill-rule="nonzero"/><path fill="#563025" d="M 174.441406 83.359375 C 174.441406 83.359375 174.761719 83.136719 175.335938 82.730469 C 175.914062 82.351562 176.722656 81.78125 177.722656 81.152344 C 178.734375 80.53125 179.890625 79.773438 181.164062 79.019531 C 182.429688 78.25 183.800781 77.472656 185.164062 76.6875 C 186.546875 75.925781 187.925781 75.160156 189.234375 74.472656 C 190.539062 73.777344 191.789062 73.183594 192.839844 72.636719 C 193.898438 72.097656 194.804688 71.710938 195.425781 71.40625 C 196.0625 71.125 196.425781 70.964844 196.425781 70.964844 C 196.425781 70.964844 196.105469 71.191406 195.535156 71.59375 C 194.957031 71.976562 194.144531 72.554688 193.144531 73.175781 C 192.136719 73.792969 190.976562 74.554688 189.703125 75.308594 C 188.441406 76.074219 187.066406 76.851562 185.703125 77.640625 C 184.320312 78.398438 182.941406 79.167969 181.632812 79.855469 C 180.328125 80.550781 179.078125 81.144531 178.03125 81.691406 C 176.972656 82.226562 176.0625 82.617188 175.441406 82.921875 C 174.804688 83.195312 174.441406 83.359375 174.441406 83.359375 Z M 174.441406 83.359375 " fill-opacity="1" fill-rule="nonzero"/><path fill="#563025" d="M 83.5625 151.617188 C 83.5625 151.617188 83.886719 151.394531 84.457031 150.988281 C 85.035156 150.609375 85.84375 150.039062 86.84375 149.410156 C 87.855469 148.789062 89.011719 148.03125 90.285156 147.277344 C 91.550781 146.507812 92.921875 145.730469 94.285156 144.945312 C 95.667969 144.183594 97.046875 143.417969 98.355469 142.730469 C 99.660156 142.035156 100.910156 141.441406 101.960938 140.894531 C 103.019531 140.359375 103.925781 139.96875 104.546875 139.664062 C 105.183594 139.382812 105.546875 139.226562 105.546875 139.226562 C 105.546875 139.226562 105.226562 139.449219 104.65625 139.851562 C 104.078125 140.234375 103.265625 140.8125 102.265625 141.433594 C 101.257812 142.050781 100.097656 142.8125 98.824219 143.566406 C 97.5625 144.335938 96.1875 145.113281 94.824219 145.898438 C 93.441406 146.65625 92.0625 147.425781 90.757812 148.113281 C 89.449219 148.808594 88.199219 149.402344 87.152344 149.949219 C 86.09375 150.484375 85.183594 150.875 84.5625 151.179688 C 83.925781 151.460938 83.5625 151.617188 83.5625 151.617188 Z M 83.5625 151.617188 " fill-opacity="1" fill-rule="nonzero"/><path fill="#efbf62" d="M 257.125 322.734375 C 252.296875 325.769531 244.589844 325.679688 234.402344 324.398438 C 227.671875 323.535156 219.835938 322.15625 211.019531 320.808594 C 188.917969 317.445312 183.800781 315.359375 181.941406 304.710938 C 178.0625 282.71875 214.03125 296.492188 241.753906 298.710938 C 252.320312 299.550781 256.242188 299.636719 260.027344 304.222656 C 263.367188 308.324219 263.609375 318.644531 257.125 322.734375 Z M 257.125 322.734375 " fill-opacity="1" fill-rule="nonzero"/><path fill="#efbf62" d="M 153.339844 325.125 C 154.214844 333.210938 146.667969 334.21875 131.777344 332.0625 C 131.171875 331.996094 130.429688 331.929688 129.75 331.789062 C 113.511719 329.292969 111.15625 303.488281 111.15625 303.488281 L 117.082031 252.078125 C 117.082031 252.078125 141.539062 264.472656 141.203125 279.03125 C 140.863281 293.515625 131.503906 306.523438 138.308594 315.144531 C 138.308594 315.144531 139.382812 315.277344 141.003906 315.617188 C 145.121094 316.5 152.738281 318.988281 153.339844 325.125 Z M 153.339844 325.125 " fill-opacity="1" fill-rule="nonzero"/><path fill="#f9e8de" d="M 153.339844 325.125 C 154.214844 333.210938 146.667969 334.21875 131.777344 332.0625 C 131.171875 331.382812 130.691406 330.582031 130.296875 329.703125 C 125.714844 319.460938 135.886719 316.433594 141.011719 315.625 C 145.121094 316.5 152.738281 318.988281 153.339844 325.125 Z M 153.339844 325.125 " fill-opacity="1" fill-rule="nonzero"/><path fill="#563025" d="M 141.011719 316.136719 C 140.847656 316.136719 140.679688 316.054688 140.582031 315.90625 C 136.554688 309.863281 137.828125 301.5625 139.183594 292.765625 C 139.871094 288.300781 140.582031 283.679688 140.699219 278.992188 C 140.929688 269.507812 130.007812 260.835938 123.464844 256.503906 C 119.746094 254.039062 116.859375 252.566406 116.828125 252.558594 C 116.570312 252.425781 116.472656 252.121094 116.59375 251.863281 C 116.726562 251.609375 117.035156 251.507812 117.289062 251.632812 C 117.3125 251.648438 120.257812 253.136719 124.027344 255.644531 C 138.886719 265.480469 141.847656 273.78125 141.714844 279.015625 C 141.597656 283.769531 140.878906 288.414062 140.183594 292.921875 C 138.804688 301.882812 137.613281 309.621094 141.417969 315.335938 C 141.574219 315.574219 141.507812 315.890625 141.277344 316.046875 C 141.210938 316.113281 141.109375 316.136719 141.011719 316.136719 Z M 141.011719 316.136719 " fill-opacity="1" fill-rule="nonzero"/><path fill="#efbf62" d="M 301.949219 311.558594 C 298.675781 315.921875 292.144531 319.617188 285.429688 322.03125 C 276.613281 325.175781 267.496094 326.109375 264.832031 323.445312 C 260.136719 318.773438 257.96875 309.761719 263.75 303.984375 C 265.519531 302.214844 268.910156 300.15625 272.945312 297.957031 C 282.0625 292.929688 294.464844 287.085938 298.699219 282.015625 C 298.691406 282.015625 309.5 301.453125 301.949219 311.558594 Z M 301.949219 311.558594 " fill-opacity="1" fill-rule="nonzero"/><path fill="#efbf62" d="M 38.988281 292.457031 C 38.988281 292.457031 30.816406 306.628906 48.117188 308.796875 C 65.414062 310.960938 82.710938 300.386719 101.925781 302.554688 C 121.144531 304.71875 144.929688 329.9375 137 340.03125 C 129.070312 350.117188 120.664062 331.144531 102.644531 329.945312 C 84.628906 328.746094 52.917969 339.792969 31.539062 334.027344 C 10.15625 328.265625 9.4375 317.929688 15.4375 303.519531 " fill-opacity="1" fill-rule="nonzero"/><path fill="#563025" d="M 137.011719 340.535156 C 136.894531 340.535156 136.785156 340.503906 136.695312 340.429688 C 136.472656 340.253906 136.429688 339.933594 136.605469 339.699219 C 138.976562 336.675781 138.011719 332.523438 136.769531 329.574219 C 132.179688 318.609375 115.941406 304.636719 101.878906 303.058594 C 92.195312 301.964844 82.917969 304.15625 73.953125 306.28125 C 65.050781 308.390625 56.648438 310.375 48.050781 309.308594 C 42.574219 308.621094 39.003906 306.679688 37.433594 303.519531 C 34.953125 298.535156 38.390625 292.46875 38.539062 292.210938 C 38.679688 291.960938 38.996094 291.878906 39.242188 292.019531 C 39.492188 292.160156 39.574219 292.476562 39.433594 292.722656 C 39.402344 292.78125 36.125 298.585938 38.359375 303.066406 C 39.765625 305.894531 43.070312 307.648438 48.183594 308.292969 C 56.582031 309.339844 64.910156 307.375 73.714844 305.289062 C 82.761719 303.148438 92.121094 300.941406 101.984375 302.050781 C 116.386719 303.667969 133.015625 317.972656 137.710938 329.191406 C 139.640625 333.789062 139.53125 337.648438 137.40625 340.355469 C 137.308594 340.46875 137.160156 340.535156 137.011719 340.535156 Z M 137.011719 340.535156 " fill-opacity="1" fill-rule="nonzero"/><path fill="#f9e8de" d="M 257.125 322.734375 C 252.296875 325.769531 244.589844 325.679688 234.402344 324.398438 C 224.390625 305.792969 241.753906 298.710938 241.753906 298.710938 C 252.320312 299.550781 256.242188 299.636719 260.027344 304.222656 C 263.367188 308.324219 263.609375 318.644531 257.125 322.734375 Z M 257.125 322.734375 " fill-opacity="1" fill-rule="nonzero"/><path fill="#f9e8de" d="M 285.421875 322.03125 C 276.605469 325.175781 267.484375 326.109375 264.824219 323.445312 C 260.128906 318.773438 257.960938 309.761719 263.742188 303.984375 C 265.511719 302.214844 268.898438 300.15625 272.933594 297.957031 C 274.929688 298.136719 288.082031 300.132812 285.421875 322.03125 Z M 285.421875 322.03125 " fill-opacity="1" fill-rule="nonzero"/><path fill="#563025" d="M 207.25 320.757812 C 207.226562 320.757812 207.210938 320.757812 207.183594 320.75 C 206.878906 320.710938 176.308594 316.460938 175.257812 292.542969 C 175.25 292.261719 175.464844 292.019531 175.757812 292.003906 C 176.027344 292.011719 176.277344 292.210938 176.292969 292.5 C 177.300781 315.550781 207.019531 319.691406 207.316406 319.734375 C 207.597656 319.765625 207.796875 320.03125 207.761719 320.3125 C 207.730469 320.570312 207.507812 320.757812 207.25 320.757812 Z M 207.25 320.757812 " fill-opacity="1" fill-rule="nonzero"/><path fill="#efbf62" d="M 274.375 204.050781 C 274.375 204.050781 290.992188 172.757812 301.082031 174.414062 C 311.167969 176.074219 311.167969 219.414062 311.167969 219.414062 Z M 274.375 204.050781 " fill-opacity="1" fill-rule="nonzero"/><path fill="#563025" d="M 288.511719 208.242188 C 288.511719 208.242188 294.789062 177.265625 301.898438 178.851562 C 309.011719 180.441406 308.6875 215.304688 308.6875 215.304688 Z M 288.511719 208.242188 " fill-opacity="1" fill-rule="nonzero"/><path fill="#efbf62" d="M 241.65625 206.9375 C 241.65625 206.9375 219.820312 179.035156 210.167969 182.433594 C 200.519531 185.828125 208.117188 228.5 208.117188 228.5 Z M 241.65625 206.9375 " fill-opacity="1" fill-rule="nonzero"/><path fill="#563025" d="M 228.46875 213.542969 C 228.46875 213.542969 216.867188 184.144531 210.144531 186.945312 C 203.421875 189.75 209.847656 224.027344 209.847656 224.027344 Z M 228.46875 213.542969 " fill-opacity="1" fill-rule="nonzero"/><path fill="#efbf62" d="M 265.773438 297.269531 C 210.109375 302.179688 200.363281 245.597656 207.746094 225.226562 C 210.699219 217.082031 219.214844 210.929688 228.367188 206.484375 C 246.667969 197.59375 267.816406 195.726562 287.386719 201.273438 C 297.179688 204.050781 306.636719 208.617188 310.96875 216.113281 C 321.800781 234.875 322.117188 292.292969 266.453125 297.203125 Z M 265.773438 297.269531 " fill-opacity="1" fill-rule="nonzero"/><path fill="#563025" d="M 272.933594 298.46875 C 272.710938 298.46875 272.503906 298.320312 272.4375 298.097656 C 272.355469 297.824219 272.511719 297.535156 272.785156 297.460938 C 292.390625 291.738281 298.90625 283.734375 298.972656 283.660156 C 299.144531 283.4375 299.476562 283.40625 299.699219 283.578125 C 299.921875 283.753906 299.964844 284.074219 299.78125 284.296875 C 299.519531 284.636719 293.042969 292.625 273.074219 298.453125 C 273.035156 298.46875 272.984375 298.46875 272.933594 298.46875 Z M 272.933594 298.46875 " fill-opacity="1" fill-rule="nonzero"/><path fill="#563025" d="M 259.167969 298.089844 C 237.316406 298.089844 224.664062 287.929688 217.75 278.933594 C 203.835938 260.835938 203.265625 236.082031 207.257812 225.050781 C 207.359375 224.789062 207.648438 224.648438 207.921875 224.746094 C 208.183594 224.84375 208.324219 225.132812 208.226562 225.40625 C 204.308594 236.222656 204.878906 260.511719 218.5625 278.304688 C 229.21875 292.160156 245.523438 298.550781 265.726562 296.757812 L 266.402344 296.699219 C 266.683594 296.675781 266.941406 296.882812 266.964844 297.171875 C 266.988281 297.453125 266.785156 297.707031 266.492188 297.734375 L 265.816406 297.792969 C 263.515625 297.988281 261.292969 298.089844 259.167969 298.089844 Z M 259.167969 298.089844 " fill-opacity="1" fill-rule="nonzero"/><path fill="#563025" d="M 274.421875 278.421875 C 266.136719 278.421875 263.121094 268.359375 263.09375 268.25 C 263.011719 267.976562 263.171875 267.6875 263.441406 267.613281 C 263.722656 267.53125 264.003906 267.695312 264.078125 267.960938 C 264.085938 267.988281 264.890625 270.691406 266.765625 273.179688 C 269.230469 276.4375 272.296875 277.816406 275.902344 277.277344 C 278.449219 276.898438 280.625 275.867188 282.371094 274.21875 C 282.574219 274.023438 282.898438 274.03125 283.097656 274.238281 C 283.296875 274.445312 283.289062 274.765625 283.082031 274.964844 C 281.179688 276.757812 278.824219 277.882812 276.0625 278.296875 C 275.488281 278.378906 274.945312 278.421875 274.421875 278.421875 Z M 274.421875 278.421875 " fill-opacity="1" fill-rule="nonzero"/><path fill="#563025" d="M 252.609375 280.328125 C 250.660156 280.328125 248.839844 279.949219 247.179688 279.199219 C 246.921875 279.082031 246.808594 278.777344 246.921875 278.511719 C 247.039062 278.253906 247.34375 278.140625 247.609375 278.253906 C 249.230469 278.992188 251.039062 279.339844 252.976562 279.289062 C 256.613281 279.1875 259.398438 277.296875 261.25 273.65625 C 262.664062 270.878906 262.980469 268.085938 262.980469 268.050781 C 263.011719 267.769531 263.261719 267.566406 263.550781 267.597656 C 263.832031 267.628906 264.039062 267.878906 264.003906 268.167969 C 263.988281 268.285156 262.625 280.074219 253 280.328125 C 252.875 280.328125 252.742188 280.328125 252.609375 280.328125 Z M 252.609375 280.328125 " fill-opacity="1" fill-rule="nonzero"/><path fill="#563025" d="M 262.441406 259.667969 C 262.410156 259.667969 262.375 259.675781 262.351562 259.675781 C 262.320312 259.675781 262.285156 259.675781 262.261719 259.683594 C 258.515625 260.023438 253.015625 260.753906 252.859375 262.398438 C 252.703125 264.074219 257.929688 270.183594 263.632812 269.679688 L 263.730469 269.671875 C 269.429688 269.167969 273.503906 262.242188 273.058594 260.613281 C 272.621094 259.015625 266.222656 259.339844 262.441406 259.667969 Z M 262.441406 259.667969 " fill-opacity="1" fill-rule="nonzero"/><path fill="#563025" d="M 282.238281 244.472656 C 276.921875 244.472656 273.355469 241 273.300781 240.949219 C 273.101562 240.753906 273.101562 240.421875 273.300781 240.222656 C 273.496094 240.023438 273.828125 240.015625 274.027344 240.222656 C 274.347656 240.546875 282.089844 248.027344 291.878906 239.199219 C 292.085938 239.007812 292.414062 239.023438 292.605469 239.238281 C 292.796875 239.453125 292.78125 239.777344 292.566406 239.96875 C 288.769531 243.382812 285.222656 244.472656 282.238281 244.472656 Z M 282.238281 244.472656 " fill-opacity="1" fill-rule="nonzero"/><path fill="#563025" d="M 240.777344 248.625 C 235.460938 248.625 231.898438 245.152344 231.839844 245.101562 C 231.640625 244.902344 231.640625 244.570312 231.839844 244.375 C 232.039062 244.175781 232.371094 244.175781 232.570312 244.375 C 232.890625 244.695312 240.621094 252.179688 250.421875 243.347656 C 250.625 243.160156 250.957031 243.175781 251.148438 243.390625 C 251.339844 243.605469 251.320312 243.925781 251.105469 244.117188 C 247.3125 247.523438 243.765625 248.625 240.777344 248.625 Z M 240.777344 248.625 " fill-opacity="1" fill-rule="nonzero"/><path fill="#563025" d="M 278.605469 171.839844 C 278.542969 171.839844 278.464844 171.832031 278.402344 171.824219 L 269.015625 170.351562 C 268.476562 170.269531 268.046875 169.875 267.925781 169.34375 C 267.800781 168.816406 268 168.269531 268.4375 167.945312 L 277.605469 161.25 L 269.140625 159.472656 C 268.421875 159.324219 267.957031 158.613281 268.105469 157.894531 C 268.253906 157.175781 268.972656 156.710938 269.6875 156.859375 L 281.097656 159.25 C 281.617188 159.355469 282.015625 159.761719 282.128906 160.273438 C 282.238281 160.785156 282.039062 161.324219 281.609375 161.640625 L 272.621094 168.203125 L 278.824219 169.179688 C 279.550781 169.292969 280.054688 169.980469 279.9375 170.707031 C 279.832031 171.371094 279.261719 171.839844 278.605469 171.839844 Z M 278.605469 171.839844 " fill-opacity="1" fill-rule="nonzero"/><path fill="#563025" d="M 262.566406 153.972656 C 262.5 153.972656 262.425781 153.964844 262.359375 153.957031 L 249.527344 151.949219 C 248.988281 151.867188 248.558594 151.46875 248.4375 150.941406 C 248.3125 150.410156 248.511719 149.867188 248.949219 149.542969 L 262.375 139.738281 L 249.71875 137.082031 C 248.996094 136.933594 248.535156 136.222656 248.683594 135.503906 C 248.832031 134.785156 249.542969 134.320312 250.261719 134.472656 L 265.867188 137.746094 C 266.386719 137.851562 266.785156 138.257812 266.898438 138.769531 C 267.015625 139.28125 266.808594 139.820312 266.378906 140.132812 L 253.132812 149.808594 L 262.78125 151.320312 C 263.507812 151.4375 264.011719 152.121094 263.898438 152.851562 C 263.78125 153.503906 263.210938 153.972656 262.566406 153.972656 Z M 262.566406 153.972656 " fill-opacity="1" fill-rule="nonzero"/><path fill="#563025" d="M 255.792969 183.695312 C 255.746094 183.695312 255.695312 183.695312 255.644531 183.6875 L 251.253906 183.003906 C 250.875 182.945312 250.5625 182.65625 250.46875 182.28125 C 250.378906 181.902344 250.519531 181.515625 250.832031 181.28125 L 254.519531 178.585938 L 251.289062 177.910156 C 250.765625 177.800781 250.4375 177.289062 250.542969 176.777344 C 250.652344 176.257812 251.148438 175.925781 251.675781 176.03125 L 257.019531 177.148438 C 257.390625 177.222656 257.679688 177.511719 257.753906 177.882812 C 257.835938 178.257812 257.6875 178.636719 257.382812 178.859375 L 253.820312 181.457031 L 255.925781 181.785156 C 256.449219 181.871094 256.804688 182.359375 256.730469 182.878906 C 256.664062 183.359375 256.257812 183.695312 255.792969 183.695312 Z M 255.792969 183.695312 " fill-opacity="1" fill-rule="nonzero"/></svg>